<mxfile host="www.draw.io" modified="2019-10-24T03:02:08.027Z" agent="Mozilla/5.0 (Macintosh; Intel Mac OS X 10_14_5) AppleWebKit/537.36 (KHTML, like Gecko) Chrome/77.0.3865.120 Safari/537.36" etag="hj009Vvl46K0uJpQMXGJ" version="12.1.3" type="github" pages="1">
  <diagram id="-npXDzfnEjL1t9BQCzPg" name="Page-1">
    <mxGraphModel dx="2253" dy="745" grid="1" gridSize="10" guides="1" tooltips="1" connect="1" arrows="1" fold="1" page="1" pageScale="1" pageWidth="827" pageHeight="1169" math="0" shadow="0">
      <root>
        <mxCell id="0"/>
        <mxCell id="1" parent="0"/>
        <mxCell id="rfqRg02I_RsMfSukm1y0-7" style="edgeStyle=orthogonalEdgeStyle;rounded=0;orthogonalLoop=1;jettySize=auto;html=1;exitX=0.94;exitY=0.65;exitDx=0;exitDy=0;exitPerimeter=0;entryX=0;entryY=0.5;entryDx=0;entryDy=0;" parent="1" source="rfqRg02I_RsMfSukm1y0-1" target="rfqRg02I_RsMfSukm1y0-27" edge="1">
          <mxGeometry relative="1" as="geometry">
            <mxPoint x="142" y="503" as="targetPoint"/>
          </mxGeometry>
        </mxCell>
        <mxCell id="rfqRg02I_RsMfSukm1y0-28" value="&lt;span style=&quot;text-align: left ; background-color: rgb(248 , 249 , 250)&quot;&gt;Push&lt;/span&gt;" style="text;html=1;resizable=0;points=[];align=center;verticalAlign=middle;labelBackgroundColor=#ffffff;" parent="rfqRg02I_RsMfSukm1y0-7" vertex="1" connectable="0">
          <mxGeometry x="-0.5926" y="1" relative="1" as="geometry">
            <mxPoint as="offset"/>
          </mxGeometry>
        </mxCell>
        <mxCell id="rfqRg02I_RsMfSukm1y0-1" value="" style="pointerEvents=1;shadow=0;dashed=0;html=1;strokeColor=none;labelPosition=center;verticalLabelPosition=bottom;verticalAlign=top;align=center;fillColor=#505050;shape=mxgraph.mscae.intune.account_portal" parent="1" vertex="1">
          <mxGeometry x="23.5" y="470" width="43" height="50" as="geometry"/>
        </mxCell>
        <mxCell id="SvzyOkWb3E6MvezEVZ9W-23" style="edgeStyle=orthogonalEdgeStyle;rounded=0;orthogonalLoop=1;jettySize=auto;html=1;entryX=0.5;entryY=0;entryDx=0;entryDy=0;entryPerimeter=0;" parent="1" source="rfqRg02I_RsMfSukm1y0-2" target="SvzyOkWb3E6MvezEVZ9W-1" edge="1">
          <mxGeometry relative="1" as="geometry"/>
        </mxCell>
        <mxCell id="SvzyOkWb3E6MvezEVZ9W-24" value="Store user data to database" style="text;html=1;resizable=0;points=[];align=center;verticalAlign=middle;labelBackgroundColor=#ffffff;" parent="SvzyOkWb3E6MvezEVZ9W-23" vertex="1" connectable="0">
          <mxGeometry x="-0.3467" y="1" relative="1" as="geometry">
            <mxPoint as="offset"/>
          </mxGeometry>
        </mxCell>
        <mxCell id="rfqRg02I_RsMfSukm1y0-2" value="BackOffice" style="text;html=1;resizable=0;points=[];autosize=1;align=left;verticalAlign=top;spacingTop=-4;" parent="1" vertex="1">
          <mxGeometry x="10" y="520" width="70" height="20" as="geometry"/>
        </mxCell>
        <mxCell id="rfqRg02I_RsMfSukm1y0-3" value="" style="shape=image;verticalLabelPosition=bottom;labelBackgroundColor=#ffffff;verticalAlign=top;aspect=fixed;imageAspect=0;image=data:image/vnd.microsoft.icon,AAABAAUAEBAAAAEAIABoBAAAVgAAABgYAAABACAAiAkAAL4EAAAgIAAAAQAgAKgQAABGDgAAMDAAAAEAIACoJQAA7h4AAEBAAAABACAAKEIAAJZEAAAoAAAAEAAAACAAAAABACAAAAAAAAAAAAAAAAAAAAAAAAAAAAAAAAAAAAAAAAAAAAAAAAAAAAAAANJ/ACrSfwCO0n8A0NJ/APDSfwDw0n8A0NJ/AI7SfwAoAAAAAAAAAAAAAAAAAAAAAAAAAAAAAAAA0n8ABtJ/AJDSfwD80n8A/9J/AP/SfwD/0n8A/9J/AP/SfwD/0n8A/NJ/AI7SfwAGAAAAAAAAAAAAAAAA0n8ABtJ/ALrSfwD/0n8A/9J/AP/SfwD/0n8A/9J/AP/SfwD/2ZMo/9eOHv/SfwD/0n8AuNJ/AAYAAAAAAAAAANJ/AJLSfwD/0n8A/9J/AP/SfwD/0n8A/9J/AP/SfwD/144f//z48f/36tX/1YkV/9J/AP/SfwCQAAAAANJ/ACzSfwD80n8A/9J/AP/SfwD/0n8A/9J/AP/SfwD/0n8A/+nChv/ryJL/2pYu/+a6dv/SfwD/0n8A/NJ/ACrSfwCU0n8A/9J/AP/cnj7/5rl0/9J/AP/SfwD/0n8A/9J/AP/47dv/25k1/9J/AP/pw4f/0n8A/9J/AP/SfwCS0n8A2NJ/AP/SfwD/140c//Xjx//SfwD/0n8A/9J/AP/Zkyj/+/bt/9KAAv/SfwD/4alV/9KAAv/SfwD/0n8A1NJ/APjSfwD/47Fk/+jAgf/9+/j/6cGE/+i/gf/ov4H/8Nav//rx4//ov4H/6L+B/+i/gf/ktGv/0n8A/9J/APbSfwD40n8A/+e9e//tzJn/+OzZ//Lbt//rx5D/6saN//rx5P/w1q7/6L5+/+a5df/ktGr/3qNJ/9J/AP/SfwD20n8A2NJ/AP/SfwD/0n8A/+a6dv/qxY3/0n8A/9OCB//9+fP/2JAi/9J/AP/SfwD/0n8A/9J/AP/SfwD/0n8A1tJ/AJbSfwD/0n8A/9J/AP/Ykif/+e/f/9J/Af/eokf/9+jS/9J/AP/SfwD/0n8A/9J/AP/SfwD/0n8A/9J/AJTSfwAw0n8A/NJ/AP/SfwD/0n8A//Tgw//gpk//7tGj/+a4c//SfwD/0n8A/9J/AP/SfwD/0n8A/9J/APzSfwAuAAAAANJ/AJjSfwD/0n8A/9J/AP/cmzn/+/Tq//nu3v/UhQ3/0n8A/9J/AP/SfwD/0n8A/9J/AP/SfwCWAAAAAAAAAADSfwAI0n8AwNJ/AP/SfwD/0n8A/9iSJv/Wixj/0n8A/9J/AP/SfwD/0n8A/9J/AP/SfwC+0n8ACAAAAAAAAAAAAAAAANJ/AAjSfwCY0n8A/NJ/AP/SfwD/0n8A/9J/AP/SfwD/0n8A/9J/APzSfwCW0n8ACAAAAAAAAAAAAAAAAAAAAAAAAAAAAAAAANJ/ADDSfwCW0n8A2NJ/APjSfwD40n8A2NJ/AJbSfwAuAAAAAAAAAAAAAAAAAAAAAPgfAADgBwAAwAMAAIABAACAAQAAAAAAAAAAAAAAAAAAAAAAAAAAAAAAAAAAgAEAAIABAADAAwAA4AcAAPgfAAAoAAAAGAAAADAAAAABACAAAAAAAAAAAAAAAAAAAAAAAAAAAAAAAAAAAAAAAAAAAAAAAAAAAAAAAAAAAAAAAAAAAAAAANJ/ABjSfwBs0n8ArtJ/ANrSfwDu0n8A7tJ/ANjSfwCu0n8AatJ/ABYAAAAAAAAAAAAAAAAAAAAAAAAAAAAAAAAAAAAAAAAAAAAAAAAAAAAAAAAAAAAAAADSfwAY0n8AmtJ/APjRfgD/0X4A/9F/AP/RfgD/0X4A/9F+AP/RfgD/0X4A/9J/APjSfwCY0n8AFgAAAAAAAAAAAAAAAAAAAAAAAAAAAAAAAAAAAAAAAAAAAAAAANJ/AE7SfwDs0n8A/9J/AP/SfwD/0n8A/9J/AP/SfwD/0n8A/9J/AP/SfwD/0n8A/9J/AP/SfwD/0n8A6tJ/AEwAAAAAAAAAAAAAAAAAAAAAAAAAAAAAAAAAAAAA0n8AaNJ/APzRfgD/0X4A/9J/AP/RfgD/0X4A/9J/AP/RfgD/0n8A/9F+AP/SfwD/0n8A/9F+AP/SfwD/0n8A/9J/APzSfwBkAAAAAAAAAAAAAAAAAAAAAAAAAADSfwBQ0n8A/NF/AP/RfgD/0X4A/9F/AP/RfgD/0X4A/9F/AP/RfgD/0X4A/9F+AP/SfwD/6sSL//rz5//ktGv/0X4A/9F+AP/SfwD80n8ATgAAAAAAAAAAAAAAANJ/ABrSfwDu0n8A/9J/AP/SfwD/0n8A/9J/AP/SfwD/0n8A/9J/AP/SfwD/0n8A/9J/AP/eokf//v7+//bn0P/89+//2pcw/9J/AP/SfwD/0n8A7NJ/ABgAAAAAAAAAANJ/AKDRfgD/0X4A/9J/AP/RfgD/0X4A/9J/AP/RfgD/0X4A/9J/AP/RfgD/0n8A/9F+AP/x2LP/+/Tr/9SFDf/jr2H/7c2d/9F+AP/SfwD/0n8A/9J/AJwAAAAA0n8AHtJ/APrRfgD/0X4A/9F/AP/Ykif/3J08/9F/AP/RfgD/0X4A/9F/AP/RfgD/0X4A/9WIEv/9/Pn/68aN/9F+AP/Tggb/9+rW/9KAAv/RfgD/0X4A/9J/APjSfwAa0n8AdNJ/AP/SfwD/0n8A/9J/AP/jsWT/9ePI/9J/AP/SfwD/0n8A/9J/AP/SfwD/0n8A/+KuXv//////3J09/9J/AP/SfwD/68iS/9qYMf/SfwD/0n8A/9J/AP/SfwBw0n8AuNJ/AP/RfgD/0X4A/9J/AP/bmjb//v79/9aMGv/RfgD/0X4A/9J/AP/RfgD/0n8A/+/Uqv/8+PL/0oEE/9F+AP/SfwD/25o3/+W2bv/SfwD/0n8A/9F+AP/SfwC00n8A5NF/AP/RfgD/0X4A/9F/AP/ThAr//vz6/+SzZ//RfgD/0X4A/9F/AP/RfgD/0oAD//v27f/z3r3/0X4A/9F+AP/RfgD/0n8A/9eOHv/RfgD/0X4A/9F+AP/SfwDg0n8A+tJ/AP/SfwD/6L+B//Tgwv/04ML//fv4//ry5v/04ML/9ODC//Tgwv/04ML/9ePJ///////68+j/9ODC//Tgwv/04ML/9ODC//Tgwv/rx5D/0n8A/9J/AP/SfwD20n8A+tJ/AP/RfgD/7tCh//v06f/68uX//Pfv//7+/f/47Nr/+OzZ//jr1//36NL/+/Tq//7+/v/25cz/89+///Lat//w1q3/7tCi/+zKlf/irFv/0n8A/9F+AP/SfwD20n8A5tJ/AP/SfwD/0n8A/9J/AP/SfwD/47Fl//7+/v/XjR3/0n8A/9J/AP/SfwD/9ODD//rz5//SfwH/0n8A/9J/AP/SfwD/0n8A/9J/AP/SfwD/0n8A/9J/AP/SfwDg0n8AutF+AP/RfgD/0X4A/9F+AP/RfgD/148g//7+/v/ksmf/0X4A/9J+AP/Uhw///vz6/+7PoP/RfgD/0X4A/9F+AP/RfgD/0X4A/9F+AP/RfgD/0X4A/9F+AP/SfwC20n8AeNJ/AP/RfgD/0X4A/9J/AP/RfgD/0n8A//bn0P/y3Lr/0X4A/9J/AP/hqlb//////+CnUf/SfwD/0n8A/9F+AP/SfwD/0n8A/9F+AP/SfwD/0n8A/9F+AP/SfwB00n8AINJ/APzSfwD/0n8A/9J/AP/SfwD/0n8A/+a6df/+/fz/144f/9J/AP/w1Kr//Pfv/9ODCP/SfwD/0n8A/9J/AP/SfwD/0n8A/9J/AP/SfwD/0n8A/9J/APrSfwAeAAAAANJ/AKbRfgD/0X4A/9F+AP/RfgD/0X4A/9WJFP/9+fT/7MuX/9aKF//9+/f/68iT/9F+AP/RfgD/0X4A/9F+AP/RfgD/0X4A/9F+AP/RfgD/0X4A/9J/AKIAAAAAAAAAANJ/ACDSfwDy0X4A/9J/AP/RfgD/0X4A/9J/AP/ovn3//v79//jr2P/9+fT/144e/9F+AP/SfwD/0n8A/9F+AP/SfwD/0n8A/9F+AP/SfwD/0n8A8NJ/ABwAAAAAAAAAAAAAAADSfwBa0n8A/9J/AP/SfwD/0n8A/9J/AP/SgAP/7MqW//nv3//gqFP/0n8A/9J/AP/SfwD/0n8A/9J/AP/SfwD/0n8A/9J/AP/SfwD80n8AVgAAAAAAAAAAAAAAAAAAAAAAAAAA0n8ActJ/AP/RfgD/0X4A/9J+AP/RfgD/0X4A/9J+AP/RfgD/0X4A/9F+AP/RfgD/0X4A/9F+AP/RfgD/0X4A/9J/APzSfwBuAAAAAAAAAAAAAAAAAAAAAAAAAAAAAAAAAAAAANJ/AFrSfwDy0X4A/9J/AP/RfgD/0X4A/9J/AP/RfgD/0n8A/9F+AP/SfwD/0n8A/9F+AP/SfwD/0n8A8NJ/AFYAAAAAAAAAAAAAAAAAAAAAAAAAAAAAAAAAAAAAAAAAAAAAAADSfwAe0n8AptJ/APzSfwD/0n8A/9J/AP/SfwD/0n8A/9J/AP/SfwD/0n8A/9J/APrSfwCk0n8AHgAAAAAAAAAAAAAAAAAAAAAAAAAAAAAAAAAAAAAAAAAAAAAAAAAAAAAAAAAAAAAAANJ/ACDSfwB40n8AutJ/AOTSfwD60n8A+tJ/AOTSfwC40n8AdtJ/ACAAAAAAAAAAAAAAAAAAAAAAAAAAAAAAAAAAAAAA/4H/APwAPwD4AB8A8AAPAOAABwDAAAMAgAABAIAAAQCAAAEAAAAAAAAAAAAAAAAAAAAAAAAAAAAAAAAAgAABAIAAAQCAAAEAwAADAOAABwDwAA8A+AAfAPwAPwD/gf8AKAAAACAAAABAAAAAAQAgAAAAAAAAAAAAAAAAAAAAAAAAAAAAAAAAAAAAAAAAAAAAAAAAAAAAAAAAAAAAAAAAAAAAAAAAAAAAAAAAAAAAAADSfwAG0n8ASNJ/AIrSfwC80n8A3NJ/AOrSfwDq0n8A2tJ/ALrSfwCK0n8ASNJ/AAYAAAAAAAAAAAAAAAAAAAAAAAAAAAAAAAAAAAAAAAAAAAAAAAAAAAAAAAAAAAAAAAAAAAAAAAAAAAAAAAAAAAAAAAAAAAAAAADSfwAa0n8AjNJ/AOzSfwD/0n8A/9J/AP/SfwD/0n8A/9J/AP/SfwD/0n8A/9J/AP/SfwD/0n8A6tJ/AIjSfwAYAAAAAAAAAAAAAAAAAAAAAAAAAAAAAAAAAAAAAAAAAAAAAAAAAAAAAAAAAAAAAAAAAAAAAAAAAADSfwAE0n8AetJ/APTSfwD/0n8A/9J/AP/SfwD/0n8A/9J/AP/SfwD/0n8A/9J/AP/SfwD/0n8A/9J/AP/SfwD/0n8A/9J/APLSfwB20n8ABAAAAAAAAAAAAAAAAAAAAAAAAAAAAAAAAAAAAAAAAAAAAAAAAAAAAAAAAAAA0n8AGtJ/AMTSfwD/0n8A/9J/AP/SfwD/0n8A/9J/AP/SfwD/0n8A/9J/AP/SfwD/0n8A/9J/AP/SfwD/0n8A/9J/AP/SfwD/0n8A/9J/AP/SfwDC0n8AGAAAAAAAAAAAAAAAAAAAAAAAAAAAAAAAAAAAAAAAAAAAAAAAANJ/ACbSfwDg0n8A/9J/AP/SfwD/0n8A/9J/AP/SfwD/0n8A/9J/AP/SfwD/0n8A/9J/AP/SfwD/0n8A/9J/AP/SfwD/0n8A/9J/AP/SfwD/0n8A/9J/AP/SfwDe0n8AIgAAAAAAAAAAAAAAAAAAAAAAAAAAAAAAAAAAAADSfwAc0n8A4tJ/AP/SfwD/0n8A/9J/AP/SfwD/0n8A/9J/AP/SfwD/0n8A/9J/AP/SfwD/0n8A/9J/AP/SfwD/0n8A/9aLGP/qw4j/5rhx/9OCB//SfwD/0n8A/9J/AP/SfwDe0n8AGAAAAAAAAAAAAAAAAAAAAAAAAAAA0n8ABtJ/AMjSfwD/0n8A/9J/AP/SfwD/0n8A/9J/AP/SfwD/0n8A/9J/AP/SfwD/0n8A/9J/AP/SfwD/0n8A/9J/AP/Tgwn/9+rV////////////8dm0/9J/AP/SfwD/0n8A/9J/AP/SfwDE0n8ABAAAAAAAAAAAAAAAAAAAAADSfwCA0n8A/9J/AP/SfwD/0n8A/9J/AP/SfwD/0n8A/9J/AP/SfwD/0n8A/9J/AP/SfwD/0n8A/9J/AP/SfwD/0n8A/+a5df///////Pfw/+7RpP/+/v3/4alV/9J/AP/SfwD/0n8A/9J/AP/SfwB6AAAAAAAAAAAAAAAA0n8AHtJ/APbSfwD/0n8A/9J/AP/SfwD/0n8A/9J/AP/SfwD/0n8A/9J/AP/SfwD/0n8A/9J/AP/SfwD/0n8A/9J/AP/SfwH/+e/f///////jr2H/0n8A/+zKlv/04ML/0n8A/9J/AP/SfwD/0n8A/9J/APTSfwAaAAAAAAAAAADSfwCW0n8A/9J/AP/SfwD/0n8A/9J/AP/SfwD/0n8A/9J/AP/SfwD/0n8A/9J/AP/SfwD/0n8A/9J/AP/SfwD/0n8A/9ycOf//////+vLm/9KBBP/SfwD/148h//79+//WjBr/0n8A/9J/AP/SfwD/0n8A/9J/AJAAAAAA0n8ADNJ/APLSfwD/0n8A/9J/AP/SfwD/0n8A/+e8ef/y27j/0n8A/9J/AP/SfwD/0n8A/9J/AP/SfwD/0n8A/9J/AP/SfwD/68eR///////ryJH/0n8A/9J/AP/SfwD/8928/+OvYf/SfwD/0n8A/9J/AP/SfwD/0n8A7tJ/AAjSfwBU0n8A/9J/AP/SfwD/0n8A/9J/AP/SfwD/6L5+//7+/f/WjBr/0n8A/9J/AP/SfwD/0n8A/9J/AP/SfwD/0n8A/9J/AP/57+D//////96hRP/SfwD/0n8A/9J/AP/irl//7tCi/9J/AP/SfwD/0n8A/9J/AP/SfwD/0n8ATtJ/AJjSfwD/0n8A/9J/AP/SfwD/0n8A/9J/AP/gp1D//////+SzaP/SfwD/0n8A/9J/AP/SfwD/0n8A/9J/AP/SfwD/2ZUs///////9+/f/04MI/9J/AP/SfwD/0n8A/9SGDv/36NL/0n8A/9J/AP/SfwD/0n8A/9J/AP/SfwCS0n8AytJ/AP/SfwD/0n8A/9J/AP/SfwD/0n8A/9ePIf//////8tu3/9J/AP/SfwD/0n8A/9J/AP/SfwD/0n8A/9J/AP/muXT///////Tfwf/SfwD/0n8A/9J/AP/SfwD/0n8A/+a5df/Tgwj/0n8A/9J/AP/SfwD/0n8A/9J/AMTSfwDq0n8A/9J/AP/SfwD/0n8A/9KAA//SgAP/0oEE//v16//9+/j/1YcR/9KAA//SgAP/0oAD/9KAA//SgAP/0oAD//Lcuv//////68iS/9KAA//SgAP/0oAD/9KAA//SgAP/0oAD/9KAA//SfwD/0n8A/9J/AP/SfwD/0n8A5NJ/APrSfwD/0n8A/9J/AP/rx5D//v7+/////////////////////////////////////////////////////////////////////////////////////////////////////////////////+/Tqf/SfwD/0n8A/9J/AP/SfwD00n8A+tJ/AP/SfwD/0n8A//DWrv/////////////////////////////////////////////////////////////////////////////////+/v7//fv4//z37//68uX/+O3b//bmzv/04MH/47Bi/9J/AP/SfwD/0n8A/9J/APTSfwDs0n8A/9J/AP/SfwD/04MJ/9ubN//bmjf/2pcx/+S0af//////8928/9iQI//YkCL/148h/9eOHv/Wixn/7MqV///////x2bP/04QK/9KAAv/SfwD/0n8A/9J/AP/SfwD/0n8A/9J/AP/SfwD/0n8A/9J/AP/SfwD/0n8A5tJ/AMzSfwD/0n8A/9J/AP/SfwD/0n8A/9J/AP/SfwD/1YgT//79/P/89+//0oEE/9J/AP/SfwD/0n8A/9J/AP/36NP//////+S0af/SfwD/0n8A/9J/AP/SfwD/0n8A/9J/AP/SfwD/0n8A/9J/AP/SfwD/0n8A/9J/AP/SfwDG0n8AnNJ/AP/SfwD/0n8A/9J/AP/SfwD/0n8A/9J/AP/SfwD/9ePI///////dn0H/0n8A/9J/AP/SfwD/1o0c//7+/v/+/v7/148f/9J/AP/SfwD/0n8A/9J/AP/SfwD/0n8A/9J/AP/SfwD/0n8A/9J/AP/SfwD/0n8A/9J/AJbSfwBa0n8A/9J/AP/SfwD/0n8A/9J/AP/SfwD/0n8A/9J/AP/nvHn//////+zJlf/SfwD/0n8A/9J/AP/ksmb///////bnz//SfwD/0n8A/9J/AP/SfwD/0n8A/9J/AP/SfwD/0n8A/9J/AP/SfwD/0n8A/9J/AP/SfwD/0n8AVNJ/AA7SfwD00n8A/9J/AP/SfwD/0n8A/9J/AP/SfwD/0n8A/9iQI//+/v7/+/Xr/9OCBv/SfwD/0n8A//Lat///////57x6/9J/AP/SfwD/0n8A/9J/AP/SfwD/0n8A/9J/AP/SfwD/0n8A/9J/AP/SfwD/0n8A/9J/APLSfwAMAAAAANJ/AJzSfwD/0n8A/9J/AP/SfwD/0n8A/9J/AP/SfwD/0n8A//PfwP//////4q1d/9J/AP/Wihf//vz6//79/P/Xjh//0n8A/9J/AP/SfwD/0n8A/9J/AP/SfwD/0n8A/9J/AP/SfwD/0n8A/9J/AP/SfwD/0n8AlgAAAAAAAAAA0n8AJNJ/APjSfwD/0n8A/9J/AP/SfwD/0n8A/9J/AP/SfwD/36ZO///////47Nn/04IH/+i9ff//////8diy/9J/AP/SfwD/0n8A/9J/AP/SfwD/0n8A/9J/AP/SfwD/0n8A/9J/AP/SfwD/0n8A/9J/APjSfwAgAAAAAAAAAAAAAAAA0n8AitJ/AP/SfwD/0n8A/9J/AP/SfwD/0n8A/9J/AP/SfwD/9ODD///////04cT//Pjy//7+/f/bmTX/0n8A/9J/AP/SfwD/0n8A/9J/AP/SfwD/0n8A/9J/AP/SfwD/0n8A/9J/AP/SfwD/0n8AhAAAAAAAAAAAAAAAAAAAAADSfwAI0n8A0NJ/AP/SfwD/0n8A/9J/AP/SfwD/0n8A/9J/AP/XjyH/+vPn////////////6sSL/9J/AP/SfwD/0n8A/9J/AP/SfwD/0n8A/9J/AP/SfwD/0n8A/9J/AP/SfwD/0n8A/9J/AMzSfwAGAAAAAAAAAAAAAAAAAAAAAAAAAADSfwAi0n8A6NJ/AP/SfwD/0n8A/9J/AP/SfwD/0n8A/9J/AP/WjBv/6L+A/+OwYv/SfwH/0n8A/9J/AP/SfwD/0n8A/9J/AP/SfwD/0n8A/9J/AP/SfwD/0n8A/9J/AP/SfwDm0n8AIAAAAAAAAAAAAAAAAAAAAAAAAAAAAAAAAAAAAADSfwAu0n8A6NJ/AP/SfwD/0n8A/9J/AP/SfwD/0n8A/9J/AP/SfwD/0n8A/9J/AP/SfwD/0n8A/9J/AP/SfwD/0n8A/9J/AP/SfwD/0n8A/9J/AP/SfwD/0n8A5tJ/ACwAAAAAAAAAAAAAAAAAAAAAAAAAAAAAAAAAAAAAAAAAAAAAAADSfwAi0n8A0NJ/AP/SfwD/0n8A/9J/AP/SfwD/0n8A/9J/AP/SfwD/0n8A/9J/AP/SfwD/0n8A/9J/AP/SfwD/0n8A/9J/AP/SfwD/0n8A/9J/AM7SfwAgAAAAAAAAAAAAAAAAAAAAAAAAAAAAAAAAAAAAAAAAAAAAAAAAAAAAAAAAAADSfwAI0n8AitJ/APjSfwD/0n8A/9J/AP/SfwD/0n8A/9J/AP/SfwD/0n8A/9J/AP/SfwD/0n8A/9J/AP/SfwD/0n8A/9J/APjSfwCG0n8ACAAAAAAAAAAAAAAAAAAAAAAAAAAAAAAAAAAAAAAAAAAAAAAAAAAAAAAAAAAAAAAAAAAAAAAAAAAA0n8AJNJ/AJzSfwD00n8A/9J/AP/SfwD/0n8A/9J/AP/SfwD/0n8A/9J/AP/SfwD/0n8A/9J/APTSfwCY0n8AIgAAAAAAAAAAAAAAAAAAAAAAAAAAAAAAAAAAAAAAAAAAAAAAAAAAAAAAAAAAAAAAAAAAAAAAAAAAAAAAAAAAAAAAAAAAAAAAANJ/AA7SfwBY0n8AmtJ/AMrSfwDq0n8A+tJ/APrSfwDq0n8AytJ/AJrSfwBW0n8ADgAAAAAAAAAAAAAAAAAAAAAAAAAAAAAAAAAAAAAAAAAAAAAAAAAAAAD/8A///4AB//8AAP/8AAA/+AAAH/AAAA/gAAAHwAAAB8AAAAOAAAABgAAAAYAAAAEAAAAAAAAAAAAAAAAAAAAAAAAAAAAAAAAAAAAAAAAAAIAAAAGAAAABgAAAAcAAAAPAAAAD4AAAB/AAAA/4AAAf/AAAP/4AAH//gAH///AP/ygAAAAwAAAAYAAAAAEAIAAAAAAAAAAAAAAAAAAAAAAAAAAAAAAAAAAAAAAAAAAAAAAAAAAAAAAAAAAAAAAAAAAAAAAAAAAAAAAAAAAAAAAAAAAAAAAAAAAAAAAAAAAAAAAAAAAAAAAAAAAAANJ/AArSfwBE0n8AetJ/AKTSfwDE0n8A2tJ/AOTSfwDk0n8A2NJ/AMTSfwCi0n8AeNJ/AEDSfwAKAAAAAAAAAAAAAAAAAAAAAAAAAAAAAAAAAAAAAAAAAAAAAAAAAAAAAAAAAAAAAAAAAAAAAAAAAAAAAAAAAAAAAAAAAAAAAAAAAAAAAAAAAAAAAAAAAAAAAAAAAAAAAAAAAAAAAAAAAAAAAAAAAAAAAAAAAAAAAAAAAAAAANJ/AAjSfwBY0n8AstJ/APTSfwD/0n8A/9J/AP/SfwD/0n8A/9J/AP/SfwD/0n8A/9J/AP/SfwD/0n8A/9J/AP/SfwD00n8ArtJ/AFTTfwAGAAAAAAAAAAAAAAAAAAAAAAAAAAAAAAAAAAAAAAAAAAAAAAAAAAAAAAAAAAAAAAAAAAAAAAAAAAAAAAAAAAAAAAAAAAAAAAAAAAAAAAAAAAAAAAAAAAAAAAAAAAAAAAAAAAAAAAAAAADSfwAM0n8AeNJ/AObRfgD/0X4A/9F+AP/RfgD/0X4A/9F+AP/RfgD/0X4A/9F+AP/RfgD/0X4A/9F+AP/RfgD/0X4A/9F+AP/RfgD/0X4A/9F+AP/SfwDk0n8AdNJ/AAoAAAAAAAAAAAAAAAAAAAAAAAAAAAAAAAAAAAAAAAAAAAAAAAAAAAAAAAAAAAAAAAAAAAAAAAAAAAAAAAAAAAAAAAAAAAAAAAAAAAAAAAAAAAAAAAAAAAAA04AAAtJ/AGDSfwDm0n8A/9F+AP/RfgD/0n8A/9F+AP/RfgD/0n8A/9F+AP/RfgD/0n8A/9F+AP/RfgD/0n8A/9F+AP/RfgD/0n8A/9F+AP/RfgD/0n8A/9F+AP/RfgD/0n8A/9J/AOTSfwBa1IEAAAAAAAAAAAAAAAAAAAAAAAAAAAAAAAAAAAAAAAAAAAAAAAAAAAAAAAAAAAAAAAAAAAAAAAAAAAAAAAAAAAAAAAAAAAAAAAAAAAAAAADSfwAa0n8AuNJ/AP/SfwD/0n8A/9J/AP/SfwD/0n8A/9J/AP/SfwD/0n8A/9J/AP/SfwD/0n8A/9J/AP/SfwD/0n8A/9J/AP/SfwD/0n8A/9J/AP/SfwD/0n8A/9J/AP/SfwD/0n8A/9J/AP/SfwD/0n8AstJ/ABYAAAAAAAAAAAAAAAAAAAAAAAAAAAAAAAAAAAAAAAAAAAAAAAAAAAAAAAAAAAAAAAAAAAAAAAAAAAAAAAAAAAAAAAAAANJ/ADrSfwDm0X4A/9F+AP/RfgD/0X4A/9F+AP/RfgD/0X4A/9F+AP/RfgD/0X4A/9F+AP/RfgD/0X4A/9F+AP/RfgD/0X4A/9F+AP/RfgD/0X4A/9F+AP/RfgD/0X4A/9F+AP/RfgD/0X4A/9F+AP/RfgD/0X4A/9J/AOLSfwA2AAAAAAAAAAAAAAAAAAAAAAAAAAAAAAAAAAAAAAAAAAAAAAAAAAAAAAAAAAAAAAAAAAAAAAAAAAAAAAAA0n8AUtJ/APbRfgD/0n8A/9J/AP/RfgD/0n8A/9F+AP/RfgD/0n8A/9F+AP/RfgD/0n8A/9F+AP/RfgD/0n8A/9F+AP/RfgD/0n8A/9F+AP/RfgD/0n8A/9F+AP/RfgD/0n8A/9F+AP/RfgD/0n8A/9F+AP/RfgD/0n8A/9F+AP/SfwD00n8ASgAAAAAAAAAAAAAAAAAAAAAAAAAAAAAAAAAAAAAAAAAAAAAAAAAAAAAAAAAAAAAAAAAAAADSfwBS0n8A+tJ/AP/SfwD/0n8A/9J/AP/SfwD/0n8A/9J/AP/SfwD/0n8A/9J/AP/SfwD/0n8A/9J/AP/SfwD/0n8A/9J/AP/SfwD/0n8A/9J/AP/SfwD/0n8A/9J/AP/SfwD/0n8A/9J/AP/SfwD/0n8A/9J/AP/SfwD/0n8A/9J/AP/SfwD/0n8A+NJ/AEwAAAAAAAAAAAAAAAAAAAAAAAAAAAAAAAAAAAAAAAAAAAAAAAAAAAAAAAAAANJ/AD7SfwD20X4A/9F+AP/RfgD/0X4A/9F+AP/RfgD/0X4A/9F+AP/RfgD/0X4A/9F+AP/RfgD/0X4A/9F+AP/RfgD/0X4A/9F+AP/RfgD/0X4A/9F+AP/RfgD/0X4A/9F+AP/SgQX/6cKH//jt3P/04cP/36VN/9F+AP/RfgD/0X4A/9F+AP/RfgD/0X4A/9J/APTSfwA4AAAAAAAAAAAAAAAAAAAAAAAAAAAAAAAAAAAAAAAAAAAAAAAA0n8AHtJ/AOjRfgD/0n8A/9J/AP/RfgD/0n8A/9J/AP/RfgD/0n8A/9F+AP/RfgD/0n8A/9F+AP/RfgD/0n8A/9F+AP/RfgD/0n8A/9F+AP/RfgD/0n8A/9F+AP/RfgD/0n8A/9J/AP/u0KH///////7+/v/+/v7//v79/+OvYf/RfgD/0n8A/9F+AP/RfgD/0n8A/9F+AP/SfwDk0n8AGAAAAAAAAAAAAAAAAAAAAAAAAAAAAAAAAAAAAADTgAAC0n8AvtJ/AP/SfwD/0n8A/9J/AP/SfwD/0n8A/9J/AP/SfwD/0n8A/9J/AP/SfwD/0n8A/9J/AP/SfwD/0n8A/9J/AP/SfwD/0n8A/9J/AP/SfwD/0n8A/9J/AP/SfwD/0n8A/9+lTf/+/v7///////////////////////369f/XkCL/0n8A/9J/AP/SfwD/0n8A/9J/AP/SfwD/0n8AttOBAAIAAAAAAAAAAAAAAAAAAAAAAAAAAAAAAADSfwBq0X4A/9F/AP/RfgD/0X4A/9F+AP/RfgD/0X4A/9F+AP/RfgD/0X4A/9F+AP/RfgD/0X4A/9F+AP/RfgD/0X4A/9F+AP/RfgD/0X4A/9F+AP/RfgD/0X4A/9F+AP/RfgD/0n8B//bmzv/+/v7//v7+//nu3//jsWP/9eTK//7+/v/uz6D/0X4A/9F+AP/RfgD/0X4A/9F+AP/RfgD/0X8A/9J/AGAAAAAAAAAAAAAAAAAAAAAAAAAAANJ/ABLSfwDs0X4A/9J/AP/RfgD/0n8A/9J/AP/RfgD/0n8A/9J/AP/RfgD/0n8A/9F+AP/RfgD/0n8A/9F+AP/RfgD/0n8A/9F+AP/RfgD/0n8A/9F+AP/RfgD/0n8A/9F+AP/RfgD/3Jw7//7+/v/+/v7//v38/9uZNf/RfgD/1YoW//v27f/9+/f/1YkV/9F+AP/RfgD/0n8A/9F+AP/RfgD/0n8A/9J/AOjSfwAOAAAAAAAAAAAAAAAAAAAAANJ/AIbSfwD/0X4A/9J/AP/SfwD/0n8A/9J/AP/SfwD/0n8A/9J/AP/SfwD/0n8A/9J/AP/SfwD/0n8A/9J/AP/SfwD/0n8A/9J/AP/SfwD/0n8A/9J/AP/SfwD/0n8A/9J/AP/SfwD/7MmU////////////8dex/9J/AP/SfwD/0n8A/+i/gP//////5LNp/9J/AP/SfwD/0n8A/9J/AP/SfwD/0n8A/9J/AP/SfwB+AAAAAAAAAAAAAAAA0n8ADtJ/AO7RfwD/0X4A/9F/AP/RfgD/0X4A/9F+AP/RfgD/0X4A/9F+AP/RfgD/0X4A/9F+AP/RfgD/0X4A/9F+AP/RfgD/0X4A/9F+AP/RfgD/0X4A/9F+AP/RfgD/0X4A/9F+AP/SgQT/+vPo//7+/v/+/v7/3qNJ/9F+AP/RfgD/0X4A/9aLGf/+/Pr/8tu4/9F+AP/RfgD/0X4A/9F+AP/RfgD/0X4A/9F+AP/SfwDq0n8ACgAAAAAAAAAA0n8AaNJ/AP/SfwD/0X4A/9J/AP/RfgD/0n8A/9J/AP/RfgD/0n8A/+3Onv/47Nv/1osY/9F+AP/RfgD/0n8A/9F+AP/RfgD/0n8A/9F+AP/RfgD/0n8A/9F+AP/RfgD/0n8A/9F+AP/eokX///////7+/v/79Or/0oEE/9F+AP/RfgD/0n8A/9F+AP/x2LL//fr1/9OECv/RfgD/0n8A/9F+AP/RfgD/0n8A/9F+AP/RfgD/0n8AXgAAAAAAAAAA0n8AwtJ/AP/SfwD/0X4A/9J/AP/SfwD/0n8A/9J/AP/SfwD/0n8A//jt3f//////5LRq/9J/AP/SfwD/0n8A/9J/AP/SfwD/0n8A/9J/AP/SfwD/0n8A/9J/AP/SfwD/0n8A/9J/AP/sypb////////////tzp7/0n8A/9J/AP/SfwD/0n8A/9J/AP/gqVT//////96hRP/SfwD/0n8A/9J/AP/SfwD/0n8A/9J/AP/SfwD/0n8AugAAAADSfwAW0n8A/NF/AP/RfwD/0X4A/9F/AP/RfgD/0X4A/9F+AP/RfgD/0X4A//HYs//+/v7/8ty5/9F+AP/RfgD/0X4A/9F+AP/RfgD/0X4A/9F+AP/RfgD/0X4A/9F+AP/RfgD/0X4A/9J/Af/68eT//v7+//7+/v/gqVX/0X4A/9F+AP/RfgD/0X4A/9F+AP/Tgwj//Pbu/+nAg//RfgD/0X4A/9F+AP/RfgD/0X4A/9F+AP/RfgD/0n8A+NJ/ABDSfwBW0X4A/9J/AP/SfwD/0X4A/9J/AP/RfgD/0n8A/9J/AP/RfgD/0n8A/+nBg//+/v7//fv4/9SHEP/RfgD/0n8A/9F+AP/RfgD/0n8A/9F+AP/RfgD/0n8A/9F+AP/RfgD/0n8A/9qXMf/+/v7///////7+/f/ViBL/0n8A/9F+AP/RfgD/0n8A/9F+AP/RfgD/7c6e//Lcuf/RfgD/0n8A/9F+AP/RfgD/0n8A/9F+AP/RfgD/0n8A/9J/AE7SfwCO0n8A/9J/AP/SfwD/0X4A/9J/AP/SfwD/0n8A/9J/AP/SfwD/0n8A/+GqVv///////////+GrWP/SfwD/0n8A/9J/AP/SfwD/0n8A/9J/AP/SfwD/0n8A/9J/AP/SfwD/0n8A/+e7ef////////////bnz//SfwD/0n8A/9J/AP/SfwD/0n8A/9J/AP/SfwD/3Z4///359P/ThAr/0n8A/9J/AP/SfwD/0n8A/9J/AP/SfwD/0n8A/9J/AITSfwC60X4A/9F/AP/RfwD/0X4A/9F/AP/RfgD/0X4A/9F+AP/RfgD/0X4A/9iSJv/+/v7//v7+/+/TqP/RfgD/0X4A/9F+AP/RfgD/0X4A/9F+AP/RfgD/0X4A/9F+AP/RfgD/0X4A//PfwP/+/v7//v7+/+vIk//RfgD/0X4A/9F+AP/RfgD/0X4A/9F+AP/RfgD/0n8B/+a5dP/Tggf/0X4A/9F+AP/RfgD/0X4A/9F+AP/RfgD/0X4A/9J/ALDSfwDa0X4A/9J/AP/SfwD/0X4A/9J/AP/RfgD/0n8A/9J/AP/RfgD/0n8A/9J/Af/89u7///////z38P/Tggb/0n8A/9F+AP/RfgD/0n8A/9F+AP/RfgD/0n8A/9F+AP/RfgD/1IUN//37+P/+/v7//////+OxZP/RfgD/0n8A/9F+AP/RfgD/0n8A/9F+AP/RfgD/0n8A/9F+AP/RfgD/0n8A/9F+AP/RfgD/0n8A/9F+AP/RfgD/0n8A/9J/ANLSfwDw0n8A/9J/AP/SfwD/0X4A/9J/AP/Tgwj/5bdw/+nBhf/pwYX/6cGF/+nBhf/68eP////////////tzZ3/6cGF/+nBhf/pwYX/6cGF/+nBhf/pwYX/6cGF/+nBhf/pwYX/7s+g/////////////////+7RpP/pwYX/6cGF/+nBhf/pwYX/6cGF/+nBhf/pwYX/6cGF/+nBhf/pwYX/6cGD/9iSJ//SfwD/0n8A/9J/AP/SfwD/0n8A/9J/AObSfwD60X4A/9F/AP/RfwD/0X4A/9F/AP/qxYz//v7+//7+/v/+/v7//v7+//7+/v/+/v7//v7+//7+/v/+/v7//v7+//7+/v/+/v7//v7+//7+/v/+/v7//v7+//7+/v/+/v7//v7+//7+/v/+/v7//v7+//7+/v/+/v7//v7+//7+/v/+/v7//v7+//7+/v/+/v7//v7+//7+/v/+/v7//v7+/+zKlv/RfgD/0X4A/9F+AP/RfgD/0X4A/9J/APLSfwD80X4A/9J/AP/SfwD/0X4A/9J/AP/v0qX///////7+/v/+/v7///////7+/v/+/v7///////7+/v/+/v7///////7+/v/+/v7///////7+/v/+/v7///////7+/v/+/v7///////7+/v/+/v7///////7+/v/+/v7///////7+/v/+/v7///////7+/v/+/v7///////7+/v/+/v7//v79/+GrWP/RfgD/0n8A/9F+AP/RfgD/0n8A/9J/APLSfwDy0n8A/9J/AP/SfwD/0n4A/9J/AP/YkST/896+//fp0//36NL/9ufP//Xjx//038H//v7+///////9+/j/8dq1//HZtP/x2bT/8diz//HYsv/w1q//8NSq/+7Qo//w1q7/////////////////79Kl/+rFjP/pwYT/5718/+a5c//ktGv/47Bh/+GqV//fpUz/3Z9B/9uYM//Ykib/1YoW/9J/AP/SfwD/0n8A/9J/AP/SfwD/0n8A/9J/AOjSfwDc0X4A/9F+AP/RfwD/0X4A/9F+AP/RfgD/0X4A/9F+AP/RfgD/0X4A/9F+AP/SgAL/+/Tp//7+/v/+/fz/1ooX/9F+AP/RfgD/0X4A/9F+AP/RfgD/0X4A/9F+AP/jsGP//v7+//7+/v/8+PH/04IG/9F+AP/RfgD/0X4A/9F+AP/RfgD/0X4A/9F+AP/RfgD/0X4A/9F+AP/RfgD/0X4A/9F+AP/RfgD/0X4A/9F+AP/RfgD/0X4A/9J/ANTSfwC80X4A/9J/AP/SfwD/0X4A/9J/AP/RfgD/0n8A/9F+AP/RfgD/0n8A/9F+AP/RfgD/79Sp//7+/v/+/v7/4q1c/9F+AP/RfgD/0n8A/9F+AP/RfgD/0n8A/9F+AP/w1Kv///////7+/v/x17D/0n8A/9F+AP/RfgD/0n8A/9F+AP/RfgD/0n8A/9F+AP/RfgD/0n8A/9F+AP/RfgD/0n8A/9F+AP/RfgD/0n8A/9F+AP/RfgD/0n8A/9J/ALTSfwCS0n8A/9J/AP/SfwD/0n4A/9J/AP/SfwD/0n8A/9J/AP/SfwD/0n8A/9J/AP/SfwD/47Fk////////////79Kn/9J/AP/SfwD/0n8A/9J/AP/SfwD/0n8A/9KAA//89u7////////////ks2j/0n8A/9J/AP/SfwD/0n8A/9J/AP/SfwD/0n8A/9J/AP/SfwD/0n8A/9J/AP/SfwD/0n8A/9J/AP/SfwD/0n8A/9J/AP/SfwD/0n8A/9J/AIrSfwBc0X4A/9F+AP/RfwD/0X4A/9F+AP/RfgD/0X4A/9F+AP/RfgD/0X4A/9F+AP/RfgD/1o0c//7+/f/+/v7//Pbu/9OCBv/RfgD/0X4A/9F+AP/RfgD/0X4A/9ydPP/+/v7//v7+//7+/v/XjR3/0X4A/9F+AP/RfgD/0X4A/9F+AP/RfgD/0X4A/9F+AP/RfgD/0X4A/9F+AP/RfgD/0X4A/9F+AP/RfgD/0X4A/9F+AP/RfgD/0X4A/9J/AFLSfwAc0n8A/NJ/AP/SfwD/0X4A/9J/AP/RfgD/0n8A/9F+AP/RfgD/0n8A/9F+AP/RfgD/0n8A//Xky//+/v7//////9+kSv/RfgD/0n8A/9F+AP/RfgD/0n8A/+nChv/+/v7///////blzP/RfgD/0n8A/9F+AP/RfgD/0n8A/9F+AP/RfgD/0n8A/9F+AP/RfgD/0n8A/9F+AP/RfgD/0n8A/9F+AP/RfgD/0n8A/9F+AP/RfgD/0n8A+tJ/ABT/gAAA0n8AytJ/AP/SfwD/0n4A/9J/AP/SfwD/0n8A/9J/AP/SfwD/0n8A/9J/AP/SfwD/0n8A/+e7d////////////+7Qo//SfwD/0n8A/9J/AP/SfwD/0n8A//fp1P///////////+e8ef/SfwD/0n8A/9J/AP/SfwD/0n8A/9J/AP/SfwD/0n8A/9J/AP/SfwD/0n8A/9J/AP/SfwD/0n8A/9J/AP/SfwD/0n8A/9J/AP/SfwD/0n8AwgAAAAAAAAAA0n8AcNF+AP/RfwD/0X4A/9F+AP/RfgD/0X4A/9F+AP/RfgD/0X4A/9F+AP/RfgD/0X4A/9eOH//+/v3//v7+//359P/Uhg7/0X4A/9F+AP/RfgD/2ZMp//7+/v/+/v7//v79/9iQI//RfgD/0X4A/9F+AP/RfgD/0X4A/9F+AP/RfgD/0X4A/9F+AP/RfgD/0X4A/9F+AP/RfgD/0X4A/9F+AP/RfgD/0X4A/9F+AP/RfgD/0n8AaAAAAAAAAAAA0n8AFNJ/APTSfwD/0X4A/9J/AP/RfgD/0n8A/9F+AP/RfgD/0n8A/9F+AP/RfgD/0n8A/9F+AP/y3Lr///////7+/v/ltm7/0n8A/9F+AP/RfgD/6cCD//7+/v/+/v7/9OHD/9F+AP/RfgD/0n8A/9F+AP/RfgD/0n8A/9F+AP/RfgD/0n8A/9F+AP/RfgD/0n8A/9F+AP/RfgD/0n8A/9F+AP/RfgD/0n8A/9F+AP/SfwDw0n8ADgAAAAAAAAAAAAAAANJ/AJLSfwD/0n4A/9J/AP/SfwD/0n8A/9J/AP/SfwD/0n8A/9J/AP/SfwD/0n8A/9J/AP/gpk/////////////579//04IH/9J/AP/SgQT/+fDh////////////4q5e/9J/AP/SfwD/0n8A/9J/AP/SfwD/0n8A/9J/AP/SfwD/0n8A/9J/AP/SfwD/0n8A/9J/AP/SfwD/0n8A/9J/AP/SfwD/0n8A/9J/AP/SfwCIAAAAAAAAAAAAAAAAAAAAANJ/ABrSfwDy0X4A/9F+AP/RfgD/0X4A/9F+AP/RfgD/0X4A/9F+AP/RfgD/0X4A/9F+AP/SgAL/9+nU//7+/v/+/v7/57t4/9F+AP/hq1n//v7+//7+/v/68uf/04MI/9F+AP/RfgD/0X4A/9F+AP/RfgD/0X4A/9F+AP/RfgD/0X4A/9F+AP/RfgD/0X4A/9F+AP/RfgD/0X4A/9F+AP/RfgD/0X4A/9J/AO7SfwAUAAAAAAAAAAAAAAAAAAAAAAAAAADSfwB40X4A/9J/AP/RfgD/0n8A/9F+AP/RfgD/0n8A/9F+AP/RfgD/0n8A/9F+AP/RfgD/36ZO//7+/v/+/v7//vz6/+i/gP/58OL///////7+/v/lt3H/0n8A/9F+AP/RfgD/0n8A/9F+AP/RfgD/0n8A/9F+AP/RfgD/0n8A/9F+AP/RfgD/0n8A/9F+AP/RfgD/0n8A/9F+AP/RfgD/0n8A/9J/AG4AAAAAAAAAAAAAAAAAAAAAAAAAAAAAAADSfwAG0n8AzNJ/AP/SfwD/0n8A/9J/AP/SfwD/0n8A/9J/AP/SfwD/0n8A/9J/AP/SfwD/0n8A/+/Uqf////////////////////////////fq1v/Tggb/0n8A/9J/AP/SfwD/0n8A/9J/AP/SfwD/0n8A/9J/AP/SfwD/0n8A/9J/AP/SfwD/0n8A/9J/AP/SfwD/0n8A/9J/AP/SfwD/0n8AxNJ/AAQAAAAAAAAAAAAAAAAAAAAAAAAAAAAAAAAAAAAA0n8AKNJ/APDRfgD/0X4A/9F+AP/RfgD/0X4A/9F+AP/RfgD/0X4A/9F+AP/RfgD/0X4A/9SFDf/15Mr//v7+//7+/v/+/v7//Pfw/9qWL//RfgD/0X4A/9F+AP/RfgD/0X4A/9F+AP/RfgD/0X4A/9F+AP/RfgD/0X4A/9F+AP/RfgD/0X4A/9F+AP/RfgD/0X4A/9F+AP/SfwDs0n8AIgAAAAAAAAAAAAAAAAAAAAAAAAAAAAAAAAAAAAAAAAAAAAAAANJ/AE7SfwD80n8A/9F+AP/RfgD/0n8A/9F+AP/RfgD/0n8A/9F+AP/RfgD/0n8A/9F+AP/ThAr/6cGE//bmzv/x2LP/2ZUt/9F+AP/RfgD/0n8A/9F+AP/RfgD/0n8A/9F+AP/RfgD/0n8A/9F+AP/RfgD/0n8A/9F+AP/RfgD/0n8A/9F+AP/RfgD/0n8A/9J/APrSfwBGAAAAAAAAAAAAAAAAAAAAAAAAAAAAAAAAAAAAAAAAAAAAAAAAAAAAAAAAAADSfwBm0n8A/NJ/AP/SfwD/0n8A/9J/AP/SfwD/0n8A/9J/AP/SfwD/0n8A/9J/AP/SfwD/0n8A/9J/AP/SfwD/0n8A/9J/AP/SfwD/0n8A/9J/AP/SfwD/0n8A/9J/AP/SfwD/0n8A/9J/AP/SfwD/0n8A/9J/AP/SfwD/0n8A/9J/AP/SfwD/0n8A/NJ/AF4AAAAAAAAAAAAAAAAAAAAAAAAAAAAAAAAAAAAAAAAAAAAAAAAAAAAAAAAAAAAAAAAAAAAA0n8AZtJ/APzRfgD/0X4A/9F+AP/RfgD/0X4A/9F+AP/RfgD/0X4A/9F+AP/RfgD/0X4A/9F+AP/RfgD/0X4A/9F+AP/RfgD/0X4A/9F+AP/RfgD/0X4A/9F+AP/RfgD/0X4A/9F+AP/RfgD/0X4A/9F+AP/RfgD/0X4A/9F+AP/SfwD60n8AXgAAAAAAAAAAAAAAAAAAAAAAAAAAAAAAAAAAAAAAAAAAAAAAAAAAAAAAAAAAAAAAAAAAAAAAAAAAAAAAANJ/AE7SfwDw0n8A/9F+AP/RfgD/0n8A/9F+AP/RfgD/0n8A/9F+AP/RfgD/0n8A/9F+AP/RfgD/0n8A/9F+AP/RfwD/0n8A/9F/AP/RfwD/0n8A/9F/AP/RfwD/0n8A/9F/AP/RfwD/0n8A/9F/AP/RfwD/0n8A/9J/AO7SfwBIAAAAAAAAAAAAAAAAAAAAAAAAAAAAAAAAAAAAAAAAAAAAAAAAAAAAAAAAAAAAAAAAAAAAAAAAAAAAAAAAAAAAAAAAAADSfwAm0n8AytF+AP/RfgD/0n4A/9F+AP/RfgD/0n4A/9F+AP/RfgD/0n4A/9F+AP/RfgD/0n4A/9F+AP/RfgD/0X4A/9F+AP/RfgD/0X4A/9F+AP/RfgD/0X4A/9F+AP/RfgD/0X4A/9F+AP/RfgD/0n8AxtJ/ACIAAAAAAAAAAAAAAAAAAAAAAAAAAAAAAAAAAAAAAAAAAAAAAAAAAAAAAAAAAAAAAAAAAAAAAAAAAAAAAAAAAAAAAAAAAAAAAAAAAAAA0n8ABtJ/AHbSfwDy0n8A/9J/AP/SfwD/0n8A/9J/AP/SfwD/0n8A/9J/AP/SfwD/0n8A/9J/AP/SfwD/0n8A/9J/AP/SfwD/0n8A/9J/AP/SfwD/0n8A/9J/AP/SfwD/0n8A/9J/APDSfwBy0n8ABAAAAAAAAAAAAAAAAAAAAAAAAAAAAAAAAAAAAAAAAAAAAAAAAAAAAAAAAAAAAAAAAAAAAAAAAAAAAAAAAAAAAAAAAAAAAAAAAAAAAAAAAAAAAAAAAAAAAADSfwAY0n8AkNJ/APLRfgD/0n8A/9F+AP/RfgD/0n8A/9F+AP/RfgD/0n8A/9F+AP/RfgD/0n8A/9J/AP/RfgD/0n8A/9J/AP/RfgD/0n8A/9J/AP/SfwDw0n8AjNJ/ABYAAAAAAAAAAAAAAAAAAAAAAAAAAAAAAAAAAAAAAAAAAAAAAAAAAAAAAAAAAAAAAAAAAAAAAAAAAAAAAAAAAAAAAAAAAAAAAAAAAAAAAAAAAAAAAAAAAAAAAAAAAAAAAAAAAAAAAAAAANJ/ABLSfwBu0n8AytJ/APzRfgD/0n4A/9F+AP/RfgD/0n4A/9F+AP/RfgD/0n4A/9F+AP/RfgD/0n4A/9F+AP/SfwD80n8AxtJ/AGzSfwAQAAAAAAAAAAAAAAAAAAAAAAAAAAAAAAAAAAAAAAAAAAAAAAAAAAAAAAAAAAAAAAAAAAAAAAAAAAAAAAAAAAAAAAAAAAAAAAAAAAAAAAAAAAAAAAAAAAAAAAAAAAAAAAAAAAAAAAAAAAAAAAAAAAAAAAAAAAAAAAAAAAAAANJ/ABrSfwBa0n8AkNJ/ALzSfwDc0n8A8NJ/APrSfwD60n8A8NJ/ANrSfwC60n8AkNJ/AFjSfwAYAAAAAAAAAAAAAAAAAAAAAAAAAAAAAAAAAAAAAAAAAAAAAAAAAAAAAAAAAAAAAAAAAAAAAAAAAAAAAAAAAAAAAAAAAAD///AP//8AAP//AAD//wAA//wAAD//AAD/8AAAD/8AAP/AAAAD/wAA/4AAAAH/AAD/AAAAAP8AAP4AAAAAfwAA/AAAAAA/AAD4AAAAAB8AAPAAAAAADwAA8AAAAAAPAADgAAAAAAcAAMAAAAAABwAAwAAAAAADAADAAAAAAAMAAIAAAAAAAQAAgAAAAAABAACAAAAAAAEAAAAAAAAAAAAAAAAAAAAAAAAAAAAAAAAAAAAAAAAAAAAAAAAAAAAAAAAAAAAAAAAAAAAAAAAAAAAAAAAAAAAAAAAAAAAAAAAAAAAAAAAAAAAAgAAAAAABAACAAAAAAAEAAIAAAAAAAQAAwAAAAAADAADAAAAAAAMAAMAAAAAAAwAA4AAAAAAHAADwAAAAAA8AAPAAAAAADwAA+AAAAAAfAAD8AAAAAD8AAP4AAAAAfwAA/wAAAAD/AAD/gAAAAf8AAP/AAAAD/wAA//AAAA//AAD/+AAAH/8AAP//AAD//wAA///gB///AAAoAAAAQAAAAIAAAAABACAAAAAAAAAAAAAAAAAAAAAAAAAAAAAAAAAAAAAAAAAAAAAAAAAAAAAAAAAAAAAAAAAAAAAAAAAAAAAAAAAAAAAAAAAAAAAAAAAAAAAAAAAAAAAAAAAAAAAAAAAAAAAAAAAAAAAAAAAAAAAAAAAAAAAAAAAAAAAAAAAA04AABNJ/ADTSfwBk0n8AjNJ/AKzSfwDE0n8A1NJ/ANzSfwDc0n8A1NJ/AMLSfwCs0n8AjNJ/AGLSfwAy0oAABAAAAAAAAAAAAAAAAAAAAAAAAAAAAAAAAAAAAAAAAAAAAAAAAAAAAAAAAAAAAAAAAAAAAAAAAAAAAAAAAAAAAAAAAAAAAAAAAAAAAAAAAAAAAAAAAAAAAAAAAAAAAAAAAAAAAAAAAAAAAAAAAAAAAAAAAAAAAAAAAAAAAAAAAAAAAAAAAAAAAAAAAAAAAAAAAAAAAAAAAAAAAAAAAAAAAAAAAAAAAAAAAAAAAAAAAAAAAAAAANJ/ABrSfwBs0n8AuNJ/APTSfwD/0n8A/9J/AP/SfwD/0n8A/9J/AP/SfwD/0n8A/9J/AP/SfwD/0n8A/9J/AP/SfwD/0n8A/9J/APLSfwC00n8AatJ/ABgAAAAAAAAAAAAAAAAAAAAAAAAAAAAAAAAAAAAAAAAAAAAAAAAAAAAAAAAAAAAAAAAAAAAAAAAAAAAAAAAAAAAAAAAAAAAAAAAAAAAAAAAAAAAAAAAAAAAAAAAAAAAAAAAAAAAAAAAAAAAAAAAAAAAAAAAAAAAAAAAAAAAAAAAAAAAAAAAAAAAAAAAAAAAAAAAAAAAAAAAAAAAAAADTgAAC0n8AUtJ/ALjSfwD80n8A/9J/AP/SfwD/0n8A/9J/AP/SfwD/0n8A/9J/AP/SfwD/0n8A/9J/AP/SfwD/0n8A/9J/AP/SfwD/0n8A/9J/AP/SfwD/0n8A/9J/AP/SfwD60n8AtNJ/AEzVgAACAAAAAAAAAAAAAAAAAAAAAAAAAAAAAAAAAAAAAAAAAAAAAAAAAAAAAAAAAAAAAAAAAAAAAAAAAAAAAAAAAAAAAAAAAAAAAAAAAAAAAAAAAAAAAAAAAAAAAAAAAAAAAAAAAAAAAAAAAAAAAAAAAAAAAAAAAAAAAAAAAAAAAAAAAAAAAAAAAAAAANOAAATSfwBi0n8A3NJ/AP/SfwD/0n8A/9J/AP/SfwD/0n8A/9J/AP/SfwD/0n8A/9J/AP/SfwD/0n8A/9J/AP/SfwD/0n8A/9J/AP/SfwD/0n8A/9J/AP/SfwD/0n8A/9J/AP/SfwD/0n8A/9J/AP/SfwD/0n8A1tJ/AFzTgAACAAAAAAAAAAAAAAAAAAAAAAAAAAAAAAAAAAAAAAAAAAAAAAAAAAAAAAAAAAAAAAAAAAAAAAAAAAAAAAAAAAAAAAAAAAAAAAAAAAAAAAAAAAAAAAAAAAAAAAAAAAAAAAAAAAAAAAAAAAAAAAAAAAAAAAAAAAAAAAAAAAAAANJ/AEbSfwDU0n8A/9J/AP/SfwD/0n8A/9J/AP/SfwD/0n8A/9J/AP/SfwD/0n8A/9J/AP/SfwD/0n8A/9J/AP/SfwD/0n8A/9J/AP/SfwD/0n8A/9J/AP/SfwD/0n8A/9J/AP/SfwD/0n8A/9J/AP/SfwD/0n8A/9J/AP/SfwD/0n8AztJ/AD4AAAAAAAAAAAAAAAAAAAAAAAAAAAAAAAAAAAAAAAAAAAAAAAAAAAAAAAAAAAAAAAAAAAAAAAAAAAAAAAAAAAAAAAAAAAAAAAAAAAAAAAAAAAAAAAAAAAAAAAAAAAAAAAAAAAAAAAAAAAAAAAAAAAAA0n8AEtJ/AKLSfwD/0n8A/9J/AP/SfwD/0n8A/9J/AP/SfwD/0n8A/9J/AP/SfwD/0n8A/9J/AP/SfwD/0n8A/9J/AP/SfwD/0n8A/9J/AP/SfwD/0n8A/9J/AP/SfwD/0n8A/9J/AP/SfwD/0n8A/9J/AP/SfwD/0n8A/9J/AP/SfwD/0n8A/9J/AP/SfwD/0n8AmtJ/AA4AAAAAAAAAAAAAAAAAAAAAAAAAAAAAAAAAAAAAAAAAAAAAAAAAAAAAAAAAAAAAAAAAAAAAAAAAAAAAAAAAAAAAAAAAAAAAAAAAAAAAAAAAAAAAAAAAAAAAAAAAAAAAAAAAAAAA0n8APNJ/AOLSfwD/0n8A/9J/AP/SfwD/0n8A/9J/AP/SfwD/0n8A/9J/AP/SfwD/0n8A/9J/AP/SfwD/0n8A/9J/AP/SfwD/0n8A/9J/AP/SfwD/0n8A/9J/AP/SfwD/0n8A/9J/AP/SfwD/0n8A/9J/AP/SfwD/0n8A/9J/AP/SfwD/0n8A/9J/AP/SfwD/0n8A/9J/AP/SfwDc0n8ANAAAAAAAAAAAAAAAAAAAAAAAAAAAAAAAAAAAAAAAAAAAAAAAAAAAAAAAAAAAAAAAAAAAAAAAAAAAAAAAAAAAAAAAAAAAAAAAAAAAAAAAAAAAAAAAAAAAAAAAAAAA0n8AaNJ/APjSfwD/0n8A/9J/AP/SfwD/0n8A/9J/AP/SfwD/0n8A/9J/AP/SfwD/0n8A/9J/AP/SfwD/0n8A/9J/AP/SfwD/0n8A/9J/AP/SfwD/0n8A/9J/AP/SfwD/0n8A/9J/AP/SfwD/0n8A/9J/AP/SfwD/0n8A/9J/AP/SfwD/0n8A/9J/AP/SfwD/0n8A/9J/AP/SfwD/0n8A/9J/APbSfwBeAAAAAAAAAAAAAAAAAAAAAAAAAAAAAAAAAAAAAAAAAAAAAAAAAAAAAAAAAAAAAAAAAAAAAAAAAAAAAAAAAAAAAAAAAAAAAAAAAAAAAAAAAADWgAAA0n8AiNJ/AP/SfwD/0n8A/9J/AP/SfwD/0n8A/9J/AP/SfwD/0n8A/9J/AP/SfwD/0n8A/9J/AP/SfwD/0n8A/9J/AP/SfwD/0n8A/9J/AP/SfwD/0n8A/9J/AP/SfwD/0n8A/9J/AP/SfwD/0n8A/9J/AP/SfwD/0n8A/9J/AP/SfwD/0n8A/9J/AP/SfwD/0n8A/9J/AP/SfwD/0n8A/9J/AP/SfwD/0n8A/9J/AH7VgAAAAAAAAAAAAAAAAAAAAAAAAAAAAAAAAAAAAAAAAAAAAAAAAAAAAAAAAAAAAAAAAAAAAAAAAAAAAAAAAAAAAAAAAAAAAADUggAA0n8AlNJ/AP/SfwD/0n8A/9J/AP/SfwD/0n8A/9J/AP/SfwD/0n8A/9J/AP/SfwD/0n8A/9J/AP/SfwD/0n8A/9J/AP/SfwD/0n8A/9J/AP/SfwD/0n8A/9J/AP/SfwD/0n8A/9J/AP/SfwD/0n8A/9J/AP/SfwD/0n8A/9J/AP/SfwD/0n8A/9J/AP/SfwD/0n8A/9J/AP/SfwD/0n8A/9J/AP/SfwD/0n8A/9J/AP/SfwD/0n8Ait+AAAAAAAAAAAAAAAAAAAAAAAAAAAAAAAAAAAAAAAAAAAAAAAAAAAAAAAAAAAAAAAAAAAAAAAAAAAAAAAAAAAAAAAAA0n8AjNJ/AP/SfwD/0n8A/9J/AP/SfwD/0n8A/9J/AP/SfwD/0n8A/9J/AP/SfwD/0n8A/9J/AP/SfwD/0n8A/9J/AP/SfwD/0n8A/9J/AP/SfwD/0n8A/9J/AP/SfwD/0n8A/9J/AP/SfwD/0n8A/9J/AP/SfwD/0n8A/9J/AP/SfwD/0n8A/9ODCP/ZlSz/1YkU/9J/AP/SfwD/0n8A/9J/AP/SfwD/0n8A/9J/AP/SfwD/0n8A/9J/AP/SfwCAAAAAAAAAAAAAAAAAAAAAAAAAAAAAAAAAAAAAAAAAAAAAAAAAAAAAAAAAAAAAAAAAAAAAAAAAAAAAAAAA0n8AbtJ/AP/SfwD/0n8A/9J/AP/SfwD/0n8A/9J/AP/SfwD/0n8A/9J/AP/SfwD/0n8A/9J/AP/SfwD/0n8A/9J/AP/SfwD/0n8A/9J/AP/SfwD/0n8A/9J/AP/SfwD/0n8A/9J/AP/SfwD/0n8A/9J/AP/SfwD/0n8A/9J/AP/SfwD/0n8A/+KvYP/89u7///////7+/f/x2bT/144e/9J/AP/SfwD/0n8A/9J/AP/SfwD/0n8A/9J/AP/SfwD/0n8A/9J/AGIAAAAAAAAAAAAAAAAAAAAAAAAAAAAAAAAAAAAAAAAAAAAAAAAAAAAAAAAAAAAAAAAAAAAA0n8AQtJ/APrSfwD/0n8A/9J/AP/SfwD/0n8A/9J/AP/SfwD/0n8A/9J/AP/SfwD/0n8A/9J/AP/SfwD/0n8A/9J/AP/SfwD/0n8A/9J/AP/SfwD/0n8A/9J/AP/SfwD/0n8A/9J/AP/SfwD/0n8A/9J/AP/SfwD/0n8A/9J/AP/SfwD/0n8A/+OwYv/+/v7///////////////////////rx5f/XjyH/0n8A/9J/AP/SfwD/0n8A/9J/AP/SfwD/0n8A/9J/AP/SfwD40n8AOAAAAAAAAAAAAAAAAAAAAAAAAAAAAAAAAAAAAAAAAAAAAAAAAAAAAAAAAAAA0n8AFtJ/AObSfwD/0n8A/9J/AP/SfwD/0n8A/9J/AP/SfwD/0n8A/9J/AP/SfwD/0n8A/9J/AP/SfwD/0n8A/9J/AP/SfwD/0n8A/9J/AP/SfwD/0n8A/9J/AP/SfwD/0n8A/9J/AP/SfwD/0n8A/9J/AP/SfwD/0n8A/9J/AP/SfwD/0n8A/9iRJP/9+vb/////////////////////////////////9eXL/9KAA//SfwD/0n8A/9J/AP/SfwD/0n8A/9J/AP/SfwD/0n8A/9J/AODSfwAQAAAAAAAAAAAAAAAAAAAAAAAAAAAAAAAAAAAAAAAAAAAAAAAAAAAAANJ/AK7SfwD/0n8A/9J/AP/SfwD/0n8A/9J/AP/SfwD/0n8A/9J/AP/SfwD/0n8A/9J/AP/SfwD/0n8A/9J/AP/SfwD/0n8A/9J/AP/SfwD/0n8A/9J/AP/SfwD/0n8A/9J/AP/SfwD/0n8A/9J/AP/SfwD/0n8A/9J/AP/SfwD/0n8A/9J/AP/w1a3////////////////////////////////////////////ktGv/0n8A/9J/AP/SfwD/0n8A/9J/AP/SfwD/0n8A/9J/AP/SfwD/0n8AogAAAAAAAAAAAAAAAAAAAAAAAAAAAAAAAAAAAAAAAAAAAAAAANJ/AFLSfwD/0n8A/9J/AP/SfwD/0n8A/9J/AP/SfwD/0n8A/9J/AP/SfwD/0n8A/9J/AP/SfwD/0n8A/9J/AP/SfwD/0n8A/9J/AP/SfwD/0n8A/9J/AP/SfwD/0n8A/9J/AP/SfwD/0n8A/9J/AP/SfwD/0n8A/9J/AP/SfwD/0n8A/9J/AP/ZlCr//v79//////////////////Tixv/ali7/47Fk//37+P//////+vHk/9KBBf/SfwD/0n8A/9J/AP/SfwD/0n8A/9J/AP/SfwD/0n8A/9J/AP/SfwBGAAAAAAAAAAAAAAAAAAAAAAAAAAAAAAAAAAAAANJ/AAjSfwDe0n8A/9J/AP/SfwD/0n8A/9J/AP/SfwD/0n8A/9J/AP/SfwD/0n8A/9J/AP/SfwD/0n8A/9J/AP/SfwD/0n8A/9J/AP/SfwD/0n8A/9J/AP/SfwD/0n8A/9J/AP/SfwD/0n8A/9J/AP/SfwD/0n8A/9J/AP/SfwD/0n8A/9J/AP/SfwD/7MmU//////////////////z37//Wixj/0n8A/9J/AP/muXX////////////hqlf/0n8A/9J/AP/SfwD/0n8A/9J/AP/SfwD/0n8A/9J/AP/SfwD/0n8A1tOAAAYAAAAAAAAAAAAAAAAAAAAAAAAAAAAAAADSfwBy0n8A/9J/AP/SfwD/0n8A/9J/AP/SfwD/0n8A/9J/AP/SfwD/0n8A/9J/AP/SfwD/0n8A/9J/AP/SfwD/0n8A/9J/AP/SfwD/0n8A/9J/AP/SfwD/0n8A/9J/AP/SfwD/0n8A/9J/AP/SfwD/0n8A/9J/AP/SfwD/0n8A/9J/AP/SfwD/0oEE//v06//////////////////nvXz/0n8A/9J/AP/SfwD/04IG//nv4f//////8tq2/9J/AP/SfwD/0n8A/9J/AP/SfwD/0n8A/9J/AP/SfwD/0n8A/9J/AP/SfwBmAAAAAAAAAAAAAAAAAAAAAAAAAADSfwAI0n8A6NJ/AP/SfwD/0n8A/9J/AP/SfwD/0n8A/9J/AP/SfwD/0n8A/9J/AP/SfwD/0n8A/9J/AP/SfwD/0n8A/9J/AP/SfwD/0n8A/9J/AP/SfwD/0n8A/9J/AP/SfwD/0n8A/9J/AP/SfwD/0n8A/9J/AP/SfwD/0n8A/9J/AP/SfwD/0n8A/96iR//////////////////9+vf/1YgT/9J/AP/SfwD/0n8A/9J/AP/muXP///////78+v/UhxH/0n8A/9J/AP/SfwD/0n8A/9J/AP/SfwD/0n8A/9J/AP/SfwD/0n8A4NOAAAQAAAAAAAAAAAAAAAAAAAAA0n8AZtJ/AP/SfwD/0n8A/9J/AP/SfwD/0n8A/9J/AP/SfwD/0n8A/9J/AP/SfwD/0n8A/9J/AP/SfwD/0n8A/9J/AP/SfwD/0n8A/9J/AP/SfwD/0n8A/9J/AP/SfwD/0n8A/9J/AP/SfwD/0n8A/9J/AP/SfwD/0n8A/9J/AP/SfwD/0n8A/9J/AP/uz6D/////////////////79Km/9J/AP/SfwD/0n8A/9J/AP/SfwD/1YgT//379///////4atZ/9J/AP/SfwD/0n8A/9J/AP/SfwD/0n8A/9J/AP/SfwD/0n8A/9J/AP/SfwBaAAAAAAAAAAAAAAAAAAAAANJ/AM7SfwD/0n8A/9J/AP/SfwD/0n8A/9J/AP/SfwD/0n8A/9J/AP/SfwD/0n8A/9KBBf/x17D/+e/f/96iRv/SfwD/0n8A/9J/AP/SfwD/0n8A/9J/AP/SfwD/0n8A/9J/AP/SfwD/0n8A/9J/AP/SfwD/0n8A/9J/AP/SfwD/0n8A/9J/AP/Tgwj//Pfx/////////////////9+lTf/SfwD/0n8A/9J/AP/SfwD/0n8A/9J/AP/v06j//////+7On//SfwD/0n8A/9J/AP/SfwD/0n8A/9J/AP/SfwD/0n8A/9J/AP/SfwD/0n8AwgAAAAAAAAAAAAAAANJ/AC7SfwD/0n8A/9J/AP/SfwD/0n8A/9J/AP/SfwD/0n8A/9J/AP/SfwD/0n8A/9J/AP/alzH////////////y3Lv/0n8A/9J/AP/SfwD/0n8A/9J/AP/SfwD/0n8A/9J/AP/SfwD/0n8A/9J/AP/SfwD/0n8A/9J/AP/SfwD/0n8A/9J/AP/SfwD/36VM//////////////////z48v/Tggf/0n8A/9J/AP/SfwD/0n8A/9J/AP/SfwD/36RK///////68eT/0n8A/9J/AP/SfwD/0n8A/9J/AP/SfwD/0n8A/9J/AP/SfwD/0n8A/9J/AP/SfwAkAAAAAAAAAADSfwCE0n8A/9J/AP/SfwD/0n8A/9J/AP/SfwD/0n8A/9J/AP/SfwD/0n8A/9J/AP/SfwD/1YkV/////////////vz6/9SHEP/SfwD/0n8A/9J/AP/SfwD/0n8A/9J/AP/SfwD/0n8A/9J/AP/SfwD/0n8A/9J/AP/SfwD/0n8A/9J/AP/SfwD/0n8A/+3Mm//////////////////w1q3/0n8A/9J/AP/SfwD/0n8A/9J/AP/SfwD/0n8A/9KBBP/68+j//////9iSJv/SfwD/0n8A/9J/AP/SfwD/0n8A/9J/AP/SfwD/0n8A/9J/AP/SfwD/0n8AeAAAAAAAAAAA0n8A0NJ/AP/SfwD/0n8A/9J/AP/SfwD/0n8A/9J/AP/SfwD/0n8A/9J/AP/SfwD/0n8A/9J/AP/68ub////////////hrFr/0n8A/9J/AP/SfwD/0n8A/9J/AP/SfwD/0n8A/9J/AP/SfwD/0n8A/9J/AP/SfwD/0n8A/9J/AP/SfwD/0n8A/9KAAv/68+f/////////////////47Jl/9J/AP/SfwD/0n8A/9J/AP/SfwD/0n8A/9J/AP/SfwD/68eQ///////jsWP/0n8A/9J/AP/SfwD/0n8A/9J/AP/SfwD/0n8A/9J/AP/SfwD/0n8A/9J/AMQAAAAA0n8AFtJ/AP/SfwD/0n8A/9J/AP/SfwD/0n8A/9J/AP/SfwD/0n8A/9J/AP/SfwD/0n8A/9J/AP/SfwD/8tu3////////////79Sp/9J/AP/SfwD/0n8A/9J/AP/SfwD/0n8A/9J/AP/SfwD/0n8A/9J/AP/SfwD/0n8A/9J/AP/SfwD/0n8A/9J/AP/bmTX//////////////////////9ePIf/SfwD/0n8A/9J/AP/SfwD/0n8A/9J/AP/SfwD/0n8A/9ubOP//////7MuX/9J/AP/SfwD/0n8A/9J/AP/SfwD/0n8A/9J/AP/SfwD/0n8A/9J/AP/SfwD60n8ADNJ/AE7SfwD/0n8A/9J/AP/SfwD/0n8A/9J/AP/SfwD/0n8A/9J/AP/SfwD/0n8A/9J/AP/SfwD/0n8A/+rEiv////////////z48f/Tggf/0n8A/9J/AP/SfwD/0n8A/9J/AP/SfwD/0n8A/9J/AP/SfwD/0n8A/9J/AP/SfwD/0n8A/9J/AP/SfwD/6L59//////////////////nv3//SfwD/0n8A/9J/AP/SfwD/0n8A/9J/AP/SfwD/0n8A/9J/AP/SfwD/+Oza//jr2P/SfwD/0n8A/9J/AP/SfwD/0n8A/9J/AP/SfwD/0n8A/9J/AP/SfwD/0n8A/9J/AELSfwCA0n8A/9J/AP/SfwD/0n8A/9J/AP/SfwD/0n8A/9J/AP/SfwD/0n8A/9J/AP/SfwD/0n8A/9J/AP/irVv/////////////////3qNJ/9J/AP/SfwD/0n8A/9J/AP/SfwD/0n8A/9J/AP/SfwD/0n8A/9J/AP/SfwD/0n8A/9J/AP/SfwD/0n8A//Tixv/////////////////uz6H/0n8A/9J/AP/SfwD/0n8A/9J/AP/SfwD/0n8A/9J/AP/SfwD/0n8A/+a5dP/+/v7/144e/9J/AP/SfwD/0n8A/9J/AP/SfwD/0n8A/9J/AP/SfwD/0n8A/9J/AP/SfwB00n8AqNJ/AP/SfwD/0n8A/9J/AP/SfwD/0n8A/9J/AP/SfwD/0n8A/9J/AP/SfwD/0n8A/9J/AP/SfwD/2ZQr/////////////////+zLmP/SfwD/0n8A/9J/AP/SfwD/0n8A/9J/AP/SfwD/0n8A/9J/AP/SfwD/0n8A/9J/AP/SfwD/0n8A/9SHEP/+/fv/////////////////47Fl/9J/AP/SfwD/0n8A/9J/AP/SfwD/0n8A/9J/AP/SfwD/0n8A/9J/AP/Tgwj/4atY/9J/Af/SfwD/0n8A/9J/AP/SfwD/0n8A/9J/AP/SfwD/0n8A/9J/AP/SfwD/0n8AntJ/AMrSfwD/0n8A/9J/AP/SfwD/0n8A/9J/AP/SfwD/0n8A/9J/AP/SfwD/0n8A/9J/AP/SfwD/0n8A/9KAA//8+PL////////////68uX/0n8B/9J/AP/SfwD/0n8A/9J/AP/SfwD/0n8A/9J/AP/SfwD/0n8A/9J/AP/SfwD/0n8A/9J/AP/gqFL//////////////////////9uaNv/SfwD/0n8A/9J/AP/SfwD/0n8A/9J/AP/SfwD/0n8A/9J/AP/SfwD/0n8A/9J/AP/SfwD/0n8A/9J/AP/SfwD/0n8A/9J/AP/SfwD/0n8A/9J/AP/SfwD/0n8A/9J/AL7SfwDi0n8A/9J/AP/SfwD/0n8A/9J/AP/SfwD/0n8A/9J/AP/SfwD/0oEF/9OCB//Tggf/04IH/9OCB//Tggf/896+/////////////////9ydPP/Tggf/04IH/9OCB//Tggf/04IH/9OCB//Tggf/04IH/9OCB//Tggf/04IH/9OCB//Tggf/7cya//////////////////79+//Vihb/04IH/9OCB//Tggf/04IH/9OCB//Tggf/04IH/9OCB//Tggf/04IH/9OCB//Tggf/04IH/9OCB//SgAP/0n8A/9J/AP/SfwD/0n8A/9J/AP/SfwD/0n8A/9J/AP/SfwDW0n8A8tJ/AP/SfwD/0n8A/9J/AP/SfwD/0n8A/9J/AP/UhQ3/8tu3//7+/v///////////////////////////////////////////////////////////////////////////////////////////////////////////////////////////////////////////////////////////////////////////////////////////////////////////////////////////////////////fr2/9ubOP/SfwD/0n8A/9J/AP/SfwD/0n8A/9J/AP/SfwD/0n8A5tJ/APrSfwD/0n8A/9J/AP/SfwD/0n8A/9J/AP/SfwD/5718///////////////////////////////////////////////////////////////////////////////////////////////////////////////////////////////////////////////////////////////////////////////////////////////////////////////////////////////////////////////////////munb/0n8A/9J/AP/SfwD/0n8A/9J/AP/SfwD/0n8A/9J/AO7SfwD80n8A/9J/AP/SfwD/0n8A/9J/AP/SfwD/0n8A/+zJlP/////////////////////////////////////////////////////////////////////////////////////////////////////////////////////////////////////////////////////////////////////////////////////////////////////////////////////////////////////////////////+/v7/3J09/9J/AP/SfwD/0n8A/9J/AP/SfwD/0n8A/9J/AP/SfwDw0n8A9NJ/AP/SfwD/0n8A/9J/AP/SfwD/0n8A/9J/AP/amDL//fr1///////////////////////////////////////////////////////////////////////////////////////////////////////////////////////////////////////////////////////////////////////+/v7//fr2//v27f/68eX/+O3c//fo0v/148f/8929//HYsv/v0aX/7MuX/+rEiv/ovn3/36ZP/9J/AP/SfwD/0n8A/9J/AP/SfwD/0n8A/9J/AP/SfwD/0n8A6NJ/AOTSfwD/0n8A/9J/AP/SfwD/0n8A/9J/AP/SfwD/0n8A/9iSJv/ltm//5bdw/+W2b//ltWz/5LJn/+KuXv/gp1H/9ufP/////////////////+e7d//eo0f/3qJH/96iRv/eoUX/3aFE/92gQ//dn0D/3Jw7/9uaNv/ali3/2ZMo//359P/////////////////rx5H/1osY/9SHEP/Tgwj/0n8B/9J/AP/SfwD/0n8A/9J/AP/SfwD/0n8A/9J/AP/SfwD/0n8A/9J/AP/SfwD/0n8A/9J/AP/SfwD/0n8A/9J/AP/SfwD/0n8A/9J/AP/SfwD/0n8A/9J/ANjSfwDO0n8A/9J/AP/SfwD/0n8A/9J/AP/SfwD/0n8A/9J/AP/SfwD/0n8A/9J/AP/SfwD/0n8A/9J/AP/SfwD/0n8A/+nChv/////////////////ovX3/0n8A/9J/AP/SfwD/0n8A/9J/AP/SfwD/0n8A/9J/AP/SfwD/0n8A/9ycO///////////////////////3Z4//9J/AP/SfwD/0n8A/9J/AP/SfwD/0n8A/9J/AP/SfwD/0n8A/9J/AP/SfwD/0n8A/9J/AP/SfwD/0n8A/9J/AP/SfwD/0n8A/9J/AP/SfwD/0n8A/9J/AP/SfwD/0n8A/9J/AP/SfwDC0n8ArtJ/AP/SfwD/0n8A/9J/AP/SfwD/0n8A/9J/AP/SfwD/0n8A/9J/AP/SfwD/0n8A/9J/AP/SfwD/0n8A/9J/AP/doUT/////////////////9OHE/9J/AP/SfwD/0n8A/9J/AP/SfwD/0n8A/9J/AP/SfwD/0n8A/9J/AP/pwIP//////////////////Pjx/9KBBf/SfwD/0n8A/9J/AP/SfwD/0n8A/9J/AP/SfwD/0n8A/9J/AP/SfwD/0n8A/9J/AP/SfwD/0n8A/9J/AP/SfwD/0n8A/9J/AP/SfwD/0n8A/9J/AP/SfwD/0n8A/9J/AP/SfwD/0n8AotJ/AITSfwD/0n8A/9J/AP/SfwD/0n8A/9J/AP/SfwD/0n8A/9J/AP/SfwD/0n8A/9J/AP/SfwD/0n8A/9J/AP/SfwD/04MI//369f////////////79+//ViBL/0n8A/9J/AP/SfwD/0n8A/9J/AP/SfwD/0n8A/9J/AP/SfwD/9eTK//////////////////DXr//SfwD/0n8A/9J/AP/SfwD/0n8A/9J/AP/SfwD/0n8A/9J/AP/SfwD/0n8A/9J/AP/SfwD/0n8A/9J/AP/SfwD/0n8A/9J/AP/SfwD/0n8A/9J/AP/SfwD/0n8A/9J/AP/SfwD/0n8A/9J/AHrSfwBW0n8A/9J/AP/SfwD/0n8A/9J/AP/SfwD/0n8A/9J/AP/SfwD/0n8A/9J/AP/SfwD/0n8A/9J/AP/SfwD/0n8A/9J/AP/y2rb/////////////////4qxb/9J/AP/SfwD/0n8A/9J/AP/SfwD/0n8A/9J/AP/SfwD/1YkV//7+/f/////////////////jsWX/0n8A/9J/AP/SfwD/0n8A/9J/AP/SfwD/0n8A/9J/AP/SfwD/0n8A/9J/AP/SfwD/0n8A/9J/AP/SfwD/0n8A/9J/AP/SfwD/0n8A/9J/AP/SfwD/0n8A/9J/AP/SfwD/0n8A/9J/AP/SfwBK0n8AHNJ/AP/SfwD/0n8A/9J/AP/SfwD/0n8A/9J/AP/SfwD/0n8A/9J/AP/SfwD/0n8A/9J/AP/SfwD/0n8A/9J/AP/SfwD/5LVr//////////////////DUq//SfwD/0n8A/9J/AP/SfwD/0n8A/9J/AP/SfwD/0n8A/+KtXP/////////////////+/v3/1owa/9J/AP/SfwD/0n8A/9J/AP/SfwD/0n8A/9J/AP/SfwD/0n8A/9J/AP/SfwD/0n8A/9J/AP/SfwD/0n8A/9J/AP/SfwD/0n8A/9J/AP/SfwD/0n8A/9J/AP/SfwD/0n8A/9J/AP/SfwD80n8AEgAAAADSfwDY0n8A/9J/AP/SfwD/0n8A/9J/AP/SfwD/0n8A/9J/AP/SfwD/0n8A/9J/AP/SfwD/0n8A/9J/AP/SfwD/0n8A/9eOHv/+/v7////////////9+fT/04QK/9J/AP/SfwD/0n8A/9J/AP/SfwD/0n8A/9J/AP/v0qb/////////////////9ePJ/9J/AP/SfwD/0n8A/9J/AP/SfwD/0n8A/9J/AP/SfwD/0n8A/9J/AP/SfwD/0n8A/9J/AP/SfwD/0n8A/9J/AP/SfwD/0n8A/9J/AP/SfwD/0n8A/9J/AP/SfwD/0n8A/9J/AP/SfwD/0n8AzAAAAAAAAAAA0n8AjtJ/AP/SfwD/0n8A/9J/AP/SfwD/0n8A/9J/AP/SfwD/0n8A/9J/AP/SfwD/0n8A/9J/AP/SfwD/0n8A/9J/AP/SfwD/9eTK/////////////////+GqV//SfwD/0n8A/9J/AP/SfwD/0n8A/9J/AP/SgQT//Pbu/////////////////+e6d//SfwD/0n8A/9J/AP/SfwD/0n8A/9J/AP/SfwD/0n8A/9J/AP/SfwD/0n8A/9J/AP/SfwD/0n8A/9J/AP/SfwD/0n8A/9J/AP/SfwD/0n8A/9J/AP/SfwD/0n8A/9J/AP/SfwD/0n8A/9J/AIIAAAAAAAAAANJ/ADrSfwD/0n8A/9J/AP/SfwD/0n8A/9J/AP/SfwD/0n8A/9J/AP/SfwD/0n8A/9J/AP/SfwD/0n8A/9J/AP/SfwD/0n8A/+a5c//////////////////x2bP/0n8A/9J/AP/SfwD/0n8A/9J/AP/SfwD/3qFE//////////////////7+/v/YkCP/0n8A/9J/AP/SfwD/0n8A/9J/AP/SfwD/0n8A/9J/AP/SfwD/0n8A/9J/AP/SfwD/0n8A/9J/AP/SfwD/0n8A/9J/AP/SfwD/0n8A/9J/AP/SfwD/0n8A/9J/AP/SfwD/0n8A/9J/AP/SfwAuAAAAAAAAAADVgAAC0n8A2tJ/AP/SfwD/0n8A/9J/AP/SfwD/0n8A/9J/AP/SfwD/0n8A/9J/AP/SfwD/0n8A/9J/AP/SfwD/0n8A/9J/AP/WjBv//v38/////////////v37/9aMGv/SfwD/0n8A/9J/AP/SfwD/0n8A/+3Mmv/////////////////148j/0n8A/9J/AP/SfwD/0n8A/9J/AP/SfwD/0n8A/9J/AP/SfwD/0n8A/9J/AP/SfwD/0n8A/9J/AP/SfwD/0n8A/9J/AP/SfwD/0n8A/9J/AP/SfwD/0n8A/9J/AP/SfwD/0n8A/9J/AP/SfwDO/4AAAAAAAAAAAAAAAAAAANJ/AHTSfwD/0n8A/9J/AP/SfwD/0n8A/9J/AP/SfwD/0n8A/9J/AP/SfwD/0n8A/9J/AP/SfwD/0n8A/9J/AP/SfwD/0n8A//Hatf/////////////////ov4D/0n8A/9J/AP/SfwD/0n8A/9OCBv/79u3/////////////////5LVr/9J/AP/SfwD/0n8A/9J/AP/SfwD/0n8A/9J/AP/SfwD/0n8A/9J/AP/SfwD/0n8A/9J/AP/SfwD/0n8A/9J/AP/SfwD/0n8A/9J/AP/SfwD/0n8A/9J/AP/SfwD/0n8A/9J/AP/SfwD/0n8AaAAAAAAAAAAAAAAAAAAAAADSfwAQ0n8A8NJ/AP/SfwD/0n8A/9J/AP/SfwD/0n8A/9J/AP/SfwD/0n8A/9J/AP/SfwD/0n8A/9J/AP/SfwD/0n8A/9J/AP/fpUz/////////////////+/Tp/9OECv/SfwD/0n8A/9J/AP/hqVX//////////////////fr2/9WHEf/SfwD/0n8A/9J/AP/SfwD/0n8A/9J/AP/SfwD/0n8A/9J/AP/SfwD/0n8A/9J/AP/SfwD/0n8A/9J/AP/SfwD/0n8A/9J/AP/SfwD/0n8A/9J/AP/SfwD/0n8A/9J/AP/SfwD/0n8A6tN/AAoAAAAAAAAAAAAAAAAAAAAAAAAAANJ/AILSfwD/0n8A/9J/AP/SfwD/0n8A/9J/AP/SfwD/0n8A/9J/AP/SfwD/0n8A/9J/AP/SfwD/0n8A/9J/AP/SfwD/0oAC//jr2P/////////////////munb/0n8A/9J/AP/SfwD/896+/////////////////+3Onf/SfwD/0n8A/9J/AP/SfwD/0n8A/9J/AP/SfwD/0n8A/9J/AP/SfwD/0n8A/9J/AP/SfwD/0n8A/9J/AP/SfwD/0n8A/9J/AP/SfwD/0n8A/9J/AP/SfwD/0n8A/9J/AP/SfwD/0n8A/9J/AHYAAAAAAAAAAAAAAAAAAAAAAAAAAAAAAADSfwAQ0n8A6tJ/AP/SfwD/0n8A/9J/AP/SfwD/0n8A/9J/AP/SfwD/0n8A/9J/AP/SfwD/0n8A/9J/AP/SfwD/0n8A/9J/AP/ir1///////////////////Pjx/9eOH//SfwD/25o3//7+/v////////////7+/v/alS3/0n8A/9J/AP/SfwD/0n8A/9J/AP/SfwD/0n8A/9J/AP/SfwD/0n8A/9J/AP/SfwD/0n8A/9J/AP/SfwD/0n8A/9J/AP/SfwD/0n8A/9J/AP/SfwD/0n8A/9J/AP/SfwD/0n8A/9J/AOLSfwAKAAAAAAAAAAAAAAAAAAAAAAAAAAAAAAAAAAAAANJ/AGbSfwD/0n8A/9J/AP/SfwD/0n8A/9J/AP/SfwD/0n8A/9J/AP/SfwD/0n8A/9J/AP/SfwD/0n8A/9J/AP/SfwD/0oAD//fo0v/////////////////26NH/3aBC//blzP/////////////////w1q7/0n8A/9J/AP/SfwD/0n8A/9J/AP/SfwD/0n8A/9J/AP/SfwD/0n8A/9J/AP/SfwD/0n8A/9J/AP/SfwD/0n8A/9J/AP/SfwD/0n8A/9J/AP/SfwD/0n8A/9J/AP/SfwD/0n8A/9J/AP/SfwBaAAAAAAAAAAAAAAAAAAAAAAAAAAAAAAAAAAAAAAAAAADSgAAC0n8AwtJ/AP/SfwD/0n8A/9J/AP/SfwD/0n8A/9J/AP/SfwD/0n8A/9J/AP/SfwD/0n8A/9J/AP/SfwD/0n8A/9J/AP/cnT3//v79///////////////////////////////////////9+/n/2JIn/9J/AP/SfwD/0n8A/9J/AP/SfwD/0n8A/9J/AP/SfwD/0n8A/9J/AP/SfwD/0n8A/9J/AP/SfwD/0n8A/9J/AP/SfwD/0n8A/9J/AP/SfwD/0n8A/9J/AP/SfwD/0n8A/9J/AP/SfwC21YAAAAAAAAAAAAAAAAAAAAAAAAAAAAAAAAAAAAAAAAAAAAAAAAAAANJ/ACLSfwDw0n8A/9J/AP/SfwD/0n8A/9J/AP/SfwD/0n8A/9J/AP/SfwD/0n8A/9J/AP/SfwD/0n8A/9J/AP/SfwD/0n8A/+nBhf//////////////////////////////////////5719/9J/AP/SfwD/0n8A/9J/AP/SfwD/0n8A/9J/AP/SfwD/0n8A/9J/AP/SfwD/0n8A/9J/AP/SfwD/0n8A/9J/AP/SfwD/0n8A/9J/AP/SfwD/0n8A/9J/AP/SfwD/0n8A/9J/AP/SfwDs0n8AHAAAAAAAAAAAAAAAAAAAAAAAAAAAAAAAAAAAAAAAAAAAAAAAAAAAAAAAAAAA0n8AWNJ/AP/SfwD/0n8A/9J/AP/SfwD/0n8A/9J/AP/SfwD/0n8A/9J/AP/SfwD/0n8A/9J/AP/SfwD/0n8A/9J/AP/SgAL/7s+h////////////////////////////8Nav/9KAAv/SfwD/0n8A/9J/AP/SfwD/0n8A/9J/AP/SfwD/0n8A/9J/AP/SfwD/0n8A/9J/AP/SfwD/0n8A/9J/AP/SfwD/0n8A/9J/AP/SfwD/0n8A/9J/AP/SfwD/0n8A/9J/AP/SfwD80n8ATAAAAAAAAAAAAAAAAAAAAAAAAAAAAAAAAAAAAAAAAAAAAAAAAAAAAAAAAAAAAAAAAAAAAADSfwCI0n8A/9J/AP/SfwD/0n8A/9J/AP/SfwD/0n8A/9J/AP/SfwD/0n8A/9J/AP/SfwD/0n8A/9J/AP/SfwD/0n8A/9J/Af/ktWv/+vLl///////9+vb/6sSK/9KBBf/SfwD/0n8A/9J/AP/SfwD/0n8A/9J/AP/SfwD/0n8A/9J/AP/SfwD/0n8A/9J/AP/SfwD/0n8A/9J/AP/SfwD/0n8A/9J/AP/SfwD/0n8A/9J/AP/SfwD/0n8A/9J/AP/SfwD/0n8AfAAAAAAAAAAAAAAAAAAAAAAAAAAAAAAAAAAAAAAAAAAAAAAAAAAAAAAAAAAAAAAAAAAAAAAAAAAA04EAAtJ/AKbSfwD/0n8A/9J/AP/SfwD/0n8A/9J/AP/SfwD/0n8A/9J/AP/SfwD/0n8A/9J/AP/SfwD/0n8A/9J/AP/SfwD/0n8A/9J/Af/WjBr/04MI/9J/AP/SfwD/0n8A/9J/AP/SfwD/0n8A/9J/AP/SfwD/0n8A/9J/AP/SfwD/0n8A/9J/AP/SfwD/0n8A/9J/AP/SfwD/0n8A/9J/AP/SfwD/0n8A/9J/AP/SfwD/0n8A/9J/AP/SfwD/0n8AnNODAAAAAAAAAAAAAAAAAAAAAAAAAAAAAAAAAAAAAAAAAAAAAAAAAAAAAAAAAAAAAAAAAAAAAAAAAAAAAAAAAADTgAAG0n8AsNJ/AP/SfwD/0n8A/9J/AP/SfwD/0n8A/9J/AP/SfwD/0n8A/9J/AP/SfwD/0n8A/9J/AP/SfwD/0n8A/9J/AP/SfwD/0n8A/9J/AP/SfwD/0n8A/9J/AP/SfwD/0n8A/9J/AP/SfwD/0n8A/9J/AP/SfwD/0n8A/9J/AP/SfwD/0n8A/9J/AP/SfwD/0n8A/9J/AP/SfwD/0n8A/9J/AP/SfwD/0n8A/9J/AP/SfwD/0n8AptSAAAIAAAAAAAAAAAAAAAAAAAAAAAAAAAAAAAAAAAAAAAAAAAAAAAAAAAAAAAAAAAAAAAAAAAAAAAAAAAAAAAAAAAAAAAAAANOAAAbSfwCm0n8A/9J/AP/SfwD/0n8A/9J/AP/SfwD/0n8A/9J/AP/SfwD/0n8A/9J/AP/SfwD/0n8A/9J/AP/SfwD/0n8A/9J/AP/SfwD/0n8A/9J/AP/SfwD/0n8A/9J/AP/SfwD/0n8A/9J/AP/SfwD/0n8A/9J/AP/SfwD/0n8A/9J/AP/SfwD/0n8A/9J/AP/SfwD/0n8A/9J/AP/SfwD/0n8A/9J/AP/SfwD/0n8AnNKAAAQAAAAAAAAAAAAAAAAAAAAAAAAAAAAAAAAAAAAAAAAAAAAAAAAAAAAAAAAAAAAAAAAAAAAAAAAAAAAAAAAAAAAAAAAAAAAAAAAAAAAA1IAAAtJ/AIjSfwD/0n8A/9J/AP/SfwD/0n8A/9J/AP/SfwD/0n8A/9J/AP/SfwD/0n8A/9J/AP/SfwD/0n8A/9J/AP/SfwD/0n8A/9J/AP/SfwD/0n8A/9J/AP/SfwD/0n8A/9J/AP/SfwD/0n8A/9J/AP/SfwD/0n8A/9J/AP/SfwD/0n8A/9J/AP/SfwD/0n8A/9J/AP/SfwD/0n8A/9J/AP/SfwD80n8AftKAAAAAAAAAAAAAAAAAAAAAAAAAAAAAAAAAAAAAAAAAAAAAAAAAAAAAAAAAAAAAAAAAAAAAAAAAAAAAAAAAAAAAAAAAAAAAAAAAAAAAAAAAAAAAAAAAAAAAAAAA0n8AVtJ/APDSfwD/0n8A/9J/AP/SfwD/0n8A/9J/AP/SfwD/0n8A/9J/AP/SfwD/0n8A/9J/AP/SfwD/0n8A/9J/AP/SfwD/0n8A/9J/AP/SfwD/0n8A/9J/AP/SfwD/0n8A/9J/AP/SfwD/0n8A/9J/AP/SfwD/0n8A/9J/AP/SfwD/0n8A/9J/AP/SfwD/0n8A/9J/AP/SfwDs0n8ATgAAAAAAAAAAAAAAAAAAAAAAAAAAAAAAAAAAAAAAAAAAAAAAAAAAAAAAAAAAAAAAAAAAAAAAAAAAAAAAAAAAAAAAAAAAAAAAAAAAAAAAAAAAAAAAAAAAAAAAAAAAAAAAAAAAAADSfwAi0n8AwNJ/AP/SfwD/0n8A/9J/AP/SfwD/0n8A/9J/AP/SfwD/0n8A/9J/AP/SfwD/0n8A/9J/AP/SfwD/0n8A/9J/AP/SfwD/0n8A/9J/AP/SfwD/0n8A/9J/AP/SfwD/0n8A/9J/AP/SfwD/0n8A/9J/AP/SfwD/0n8A/9J/AP/SfwD/0n8A/9J/AP/SfwC60n8AHAAAAAAAAAAAAAAAAAAAAAAAAAAAAAAAAAAAAAAAAAAAAAAAAAAAAAAAAAAAAAAAAAAAAAAAAAAAAAAAAAAAAAAAAAAAAAAAAAAAAAAAAAAAAAAAAAAAAAAAAAAAAAAAAAAAAAAAAAAAAAAAANWAAALSfwBk0n8A6NJ/AP/SfwD/0n8A/9J/AP/SfwD/0n8A/9J/AP/SfwD/0n8A/9J/AP/SfwD/0n8A/9J/AP/SfwD/0n8A/9J/AP/SfwD/0n8A/9J/AP/SfwD/0n8A/9J/AP/SfwD/0n8A/9J/AP/SfwD/0n8A/9J/AP/SfwD/0n8A/9J/AOTSfwBe14AAAAAAAAAAAAAAAAAAAAAAAAAAAAAAAAAAAAAAAAAAAAAAAAAAAAAAAAAAAAAAAAAAAAAAAAAAAAAAAAAAAAAAAAAAAAAAAAAAAAAAAAAAAAAAAAAAAAAAAAAAAAAAAAAAAAAAAAAAAAAAAAAAAAAAAAAAAAAAAAAAANJ/AA7SfwCA0n8A8NJ/AP/SfwD/0n8A/9J/AP/SfwD/0n8A/9J/AP/SfwD/0n8A/9J/AP/SfwD/0n8A/9J/AP/SfwD/0n8A/9J/AP/SfwD/0n8A/9J/AP/SfwD/0n8A/9J/AP/SfwD/0n8A/9J/AP/SfwD/0n8A7NJ/AHrTfwAMAAAAAAAAAAAAAAAAAAAAAAAAAAAAAAAAAAAAAAAAAAAAAAAAAAAAAAAAAAAAAAAAAAAAAAAAAAAAAAAAAAAAAAAAAAAAAAAAAAAAAAAAAAAAAAAAAAAAAAAAAAAAAAAAAAAAAAAAAAAAAAAAAAAAAAAAAAAAAAAAAAAAAAAAAAAAAAAAAAAAANJ/AA7SfwBy0n8A2NJ/AP/SfwD/0n8A/9J/AP/SfwD/0n8A/9J/AP/SfwD/0n8A/9J/AP/SfwD/0n8A/9J/AP/SfwD/0n8A/9J/AP/SfwD/0n8A/9J/AP/SfwD/0n8A/9J/AP/SfwDU0n8AbNN/AAwAAAAAAAAAAAAAAAAAAAAAAAAAAAAAAAAAAAAAAAAAAAAAAAAAAAAAAAAAAAAAAAAAAAAAAAAAAAAAAAAAAAAAAAAAAAAAAAAAAAAAAAAAAAAAAAAAAAAAAAAAAAAAAAAAAAAAAAAAAAAAAAAAAAAAAAAAAAAAAAAAAAAAAAAAAAAAAAAAAAAAAAAAAAAAAAAAAAAAAAAAANaAAADSfwA40n8AjNJ/ANbSfwD/0n8A/9J/AP/SfwD/0n8A/9J/AP/SfwD/0n8A/9J/AP/SfwD/0n8A/9J/AP/SfwD/0n8A/9J/AP/SfwD/0n8A1NJ/AIjSfwA014YAAAAAAAAAAAAAAAAAAAAAAAAAAAAAAAAAAAAAAAAAAAAAAAAAAAAAAAAAAAAAAAAAAAAAAAAAAAAAAAAAAAAAAAAAAAAAAAAAAAAAAAAAAAAAAAAAAAAAAAAAAAAAAAAAAAAAAAAAAAAAAAAAAAAAAAAAAAAAAAAAAAAAAAAAAAAAAAAAAAAAAAAAAAAAAAAAAAAAAAAAAAAAAAAAAAAAAAAAAAAAAAAAAAAAAAAAAAAA0n8AGtJ/AFTSfwCE0n8ArNJ/AMzSfwDk0n8A9NJ/APrSfwD60n8A9NJ/AOLSfwDK0n8AqtJ/AILSfwBS0n8AGAAAAAAAAAAAAAAAAAAAAAAAAAAAAAAAAAAAAAAAAAAAAAAAAAAAAAAAAAAAAAAAAAAAAAAAAAAAAAAAAAAAAAAAAAAAAAAAAAAAAAAAAAAAAAAAAAAAAAAAAAAAAAAAAP///+AH///////+AAB///////AAAA//////wAAAA/////8AAAAA/////AAAAAA////4AAAAAB////AAAAAAD///wAAAAAAH//+AAAAAAAH//wAAAAAAAP//AAAAAAAA//4AAAAAAAB//AAAAAAAAD/4AAAAAAAAH/gAAAAAAAAf8AAAAAAAAA/wAAAAAAAAD+AAAAAAAAAH4AAAAAAAAAfAAAAAAAAAA8AAAAAAAAADgAAAAAAAAAOAAAAAAAAAAYAAAAAAAAABgAAAAAAAAAEAAAAAAAAAAQAAAAAAAAAAAAAAAAAAAAAAAAAAAAAAAAAAAAAAAAAAAAAAAAAAAAAAAAAAAAAAAAAAAAAAAAAAAAAAAAAAAAAAAAAAAAAAAAAAAAAAAAAAAAAAAAAAAAGAAAAAAAAAAYAAAAAAAAABgAAAAAAAAAGAAAAAAAAAAcAAAAAAAAADwAAAAAAAAAPgAAAAAAAAB+AAAAAAAAAH4AAAAAAAAA/wAAAAAAAAD/gAAAAAAAAf+AAAAAAAAB/8AAAAAAAAP/4AAAAAAAB//gAAAAAAAP//AAAAAAAA//+AAAAAAAH//8AAAAAAA///4AAAAAAP///4AAAAAB////wAAAAAP////wAAAAD/////gAAAA//////wAAAP//////wAAD///////8AD////;" parent="1" vertex="1">
          <mxGeometry x="628" y="230" width="64" height="64" as="geometry"/>
        </mxCell>
        <mxCell id="rfqRg02I_RsMfSukm1y0-15" style="edgeStyle=orthogonalEdgeStyle;rounded=0;orthogonalLoop=1;jettySize=auto;html=1;exitX=1;exitY=0.5;exitDx=0;exitDy=0;entryX=0;entryY=0.5;entryDx=0;entryDy=0;" parent="1" source="rfqRg02I_RsMfSukm1y0-6" target="rfqRg02I_RsMfSukm1y0-3" edge="1">
          <mxGeometry relative="1" as="geometry">
            <Array as="points">
              <mxPoint x="468" y="370"/>
              <mxPoint x="468" y="262"/>
            </Array>
          </mxGeometry>
        </mxCell>
        <mxCell id="rfqRg02I_RsMfSukm1y0-20" value="Real-Time" style="text;html=1;resizable=0;points=[];align=center;verticalAlign=middle;labelBackgroundColor=#ffffff;" parent="rfqRg02I_RsMfSukm1y0-15" vertex="1" connectable="0">
          <mxGeometry x="0.1957" y="-1" relative="1" as="geometry">
            <mxPoint x="43" y="-1" as="offset"/>
          </mxGeometry>
        </mxCell>
        <mxCell id="rfqRg02I_RsMfSukm1y0-16" style="edgeStyle=orthogonalEdgeStyle;rounded=0;orthogonalLoop=1;jettySize=auto;html=1;exitX=1;exitY=0.5;exitDx=0;exitDy=0;" parent="1" source="rfqRg02I_RsMfSukm1y0-6" target="rfqRg02I_RsMfSukm1y0-13" edge="1">
          <mxGeometry relative="1" as="geometry">
            <Array as="points">
              <mxPoint x="468" y="370"/>
              <mxPoint x="468" y="452"/>
            </Array>
          </mxGeometry>
        </mxCell>
        <mxCell id="rfqRg02I_RsMfSukm1y0-22" value="Twice A Day" style="text;html=1;resizable=0;points=[];align=center;verticalAlign=middle;labelBackgroundColor=#ffffff;" parent="rfqRg02I_RsMfSukm1y0-16" vertex="1" connectable="0">
          <mxGeometry x="0.4739" y="1" relative="1" as="geometry">
            <mxPoint x="20" y="0.5" as="offset"/>
          </mxGeometry>
        </mxCell>
        <mxCell id="rfqRg02I_RsMfSukm1y0-17" style="edgeStyle=orthogonalEdgeStyle;rounded=0;orthogonalLoop=1;jettySize=auto;html=1;exitX=1;exitY=0.5;exitDx=0;exitDy=0;entryX=0;entryY=0.5;entryDx=0;entryDy=0;" parent="1" source="rfqRg02I_RsMfSukm1y0-6" target="rfqRg02I_RsMfSukm1y0-14" edge="1">
          <mxGeometry relative="1" as="geometry"/>
        </mxCell>
        <mxCell id="rfqRg02I_RsMfSukm1y0-19" value="Sync" style="text;html=1;resizable=0;points=[];align=center;verticalAlign=middle;labelBackgroundColor=#ffffff;" parent="rfqRg02I_RsMfSukm1y0-17" vertex="1" connectable="0">
          <mxGeometry x="-0.7105" y="2" relative="1" as="geometry">
            <mxPoint as="offset"/>
          </mxGeometry>
        </mxCell>
        <mxCell id="rfqRg02I_RsMfSukm1y0-21" value="Real-Time" style="text;html=1;resizable=0;points=[];align=center;verticalAlign=middle;labelBackgroundColor=#ffffff;" parent="rfqRg02I_RsMfSukm1y0-17" vertex="1" connectable="0">
          <mxGeometry x="0.5263" y="1" relative="1" as="geometry">
            <mxPoint x="-3" y="0.5" as="offset"/>
          </mxGeometry>
        </mxCell>
        <mxCell id="rfqRg02I_RsMfSukm1y0-6" value="" style="shape=image;verticalLabelPosition=bottom;labelBackgroundColor=#ffffff;verticalAlign=top;aspect=fixed;imageAspect=0;image=data:image/vnd.microsoft.icon,AAABAAUAEBAAAAEAIAAoBAAAVgAAABgYAAABACAAKAkAAH4EAAAgIAAAAQAgACgQAACmDQAAMDAAAAEAIAAoJAAAzh0AAEBAAAABACAAKEAAAPZBAAAoAAAAEAAAACAAAAABACAAAAAAAAAEAAAAAAAAAAAAAAAAAAAAAAAAAAAAAAAAAAAAAAAAAAAAAAAAAAAiKxQ8ZoU7uoKpS+2KtE/8f6VJ52F9OK4uORtOAQEBAQAAAAAAAAAAAAAAAAAAAAAAAAAAAAAAABwkETIDAwIEJTAWQ4qyT/pylUHOZoU7unSXRNSLtFD9jLZQ/2mIPL0OEgkZAAAAAAAAAAAAAAAAAAAAACEqFDmMtlD/NkUgYAEBAQEMDQkQAAAAAAAAAAAAAAAAExgLIVlyM5+LtVD+eZ1H2w0RCBcAAAAAAAAAAAAAAAAHCAQLRlsofg4SCRkAAAAAAAAAAAAAAAAAAAAAAAAAAAAAAAAAAAAAO00ia4u1UP5mhDm4AAAAAAAAAAAAAAAAAAAAAAAAAAAAAAAAAAAAAAAAAAAAAAAAAAAAAAAAAAAAAAAAAAAAAAAAAABWcDKbjLZQ/ygzGEYAAAAAT2ctkFJqL5VSai+VUmovlVJqL5VSai+VUmovlVJqL5VSai+VCg0GEgAAAAAAAAAADxMJGomyT/pfeTaqAAAAAIu1UP6MtlD/jLZQ/4y2UP+MtlD/jLZQ/4y2UP+MtlD/jLZQ/xUbDCUAAAAAAAAAAAAAAABrij7BgKZK6gAAAAAQFQkcEhcKIBIXCiASFwogEhcKIBIXCiASFwogEhcKIBEWCh8BAQEBAAAAAAAAAAAAAAAAIy0UPy88G1MAAAAAAAAAAAAAAAAAAAAAAAAAAAAAAAAAAAAAAAAAAAAAAAAAAAAAAAAAAAAAAAAAAAAAAAAAAAAAAAAAAAAAAAAAAD1OJGw3RyBjAAAAAAAAAAAAAAAACg0GEVBoLpFQaC6SUGguklBoLpJQaC6SUGguklBoLpJQaC6STmUtjQAAAAB0lkPRf6VJ5wQFAgcAAAAAAAAAABQaDCSMtlD/jLZQ/4y2UP+MtlD/jLZQ/4y2UP+MtlD/jLZQ/4u1UP4AAAAAPk8kboy2UP9AVCV0AAAAAAAAAAACAgECFBkMIxQZDCMUGQwjFBkMIxQZDCMUGQwjFBkMIxQZDCMRFgofAAAAAAUGAwh3mUXXiLFO+Ck1GEkAAAAAAAAAAAAAAAAAAAAAAAAAAAAAAAAAAAAADxMJGhkhDy0AAAAAAAAAAAAAAAAAAAAAGSAOLIKpS+2Jsk/6TWIwhAsOBxMAAAAAAAAAAAAAAAAEBAIFAAAAAGF+OLGCqErsAAAAAAAAAAAAAAAAAAAAAAAAAAAYHw4qc5ZC0oy2UP+IsU74dJNHyGOBObVylEHPeZtG2QICAQIgKBI3MD0bVQAAAAAAAAAAAAAAAAAAAAAAAAAAAAAAAAMEAgU2RSBgZoU7uoKpS+2KtE/8f6VJ6GiCQrAGCQQMAAAAAAAAAAAAAAAAAAAAACgAAAAYAAAAMAAAAAEAIAAAAAAAAAkAAAAAAAAAAAAAAAAAAAAAAAAAAAAAAAAAAAAAAAAAAAAAAAAAAAAAAAAAAAAAAQEBASs4GU1YcDKddZhE1IWtTPOKtE/8gqlL7W6PQMhOZS2MICgTNwEBAQEAAAAAAAAAAAAAAAAAAAAAAAAAAAAAAAAAAAAAAAAAAAAAAAAAAAAAAAAAAAAAAAAAAAAACQsFDoavTfWMtlD/jLZQ/4y2UP+MtlD/jLZQ/4y2UP+MtlD/jLZQ/22NP8QkLBQ5AAAAAAAAAAAAAAAAAAAAAAAAAAAAAAAAAAAAAAAAAAAAAAAAJjAWQyApEzkAAAAAAAAAAFp0M6KKsk75dpZDyll1M6JTay+WXXk1qHaZQ9aLtFD9jLZQ/4y2UP+Ks0/7SF0pgQICAQMAAAAAAAAAAAAAAAAAAAAAAAAAAAAAAAAlLxdAi7VQ/oqzT/sZHw8qAAAAAA0PCRIPEQkWAAAAAAAAAAAAAAAAAAAAAAAAAAAXHQ0oU2wwlomyTvmMtlD/jLZQ/1hwNJ0CAgECAAAAAAAAAAAAAAAAAAAAAAAAAAAiKxU7i7RQ/YmyTvkWHA0mAAAAAAAAAAAAAAAAAAAAAAAAAAAAAAAAAAAAAAAAAAAAAAAAAAAAAB8nEzV6n0bfjLZQ/4y2UP9HXCmAAAAAAAAAAAAAAAAAAAAAAAAAAAAAAAAAHicSNhoiEC4AAAAAAAAAAAAAAAAAAAAAAAAAAAAAAAAAAAAAAAAAAAAAAAAAAAAAAAAAAAAAAAAQFQoceZ5G3Yy2UP+Ks0/7ICoSOAAAAAAAAAAAAAAAAAAAAAAAAAAAAAAAAAAAAAAAAAAAAAAAAAAAAAAAAAAAAAAAAAAAAAAAAAAAAAAAAAAAAAAAAAAAAAAAAAAAAAAAAAAAHiURMIixTviMtlD/b45BxQEBAQEAAAAAAAAAAAAAAAAAAAAAAAAAAAAAAAAAAAAAAAAAAAAAAAAAAAAAAAAAAAAAAAAAAAAAAAAAAAAAAAAAAAAAAAAAAAAAAAAAAAAAAAAAAE1jLIqMtlD/jLZQ/yApEzkAAAAAdJdD1HugRuB7oEbge6BG4HugRuB7oEbge6BG4HugRuB7oEbge6BG4HugRuB7oEbge6BG4HSXRNQEBQIHAAAAAAAAAAAAAAAAAAAAAA8TCRqJsk75jLZQ/1JpL5IAAAAAjLZQ/4y2UP+MtlD/jLZQ/4y2UP+MtlD/jLZQ/4y2UP+MtlD/jLZQ/4y2UP+MtlD/jLZQ/4qzT/sGCQQMAAAAAAAAAAAAAAAAAAAAAAAAAABsij3AjLZQ/3WXQtMAAAAAWnMzo2B8Nq9gfDavYHw2r2B8Nq9gfDavYHw2r2B8Nq9gfDavYHw2r2B8Nq9gfDavYHw2r1p1M6QDAwIEAAAAAAAAAAAAAAAAAAAAAAAAAABKYSuHjLZQ/4CmSekAAAAAAAAAAAAAAAAAAAAAAAAAAAAAAAAAAAAAAAAAAAAAAAAAAAAAAAAAAAAAAAAAAAAAAAAAAAAAAAAAAAAAAAAAAAAAAAAAAAAAAAAAAAAAAAAGCAQKDREIFwMDAgQAAAAAAAAAAAAAAAAAAAAAAAAAAAAAAAAAAAAAAAAAAAAAAAAAAAAAAAAAAAAAAAAAAAAAAAAAAAAAAAAAAAAAAAAAAAAAAAAAAAAAAAAAAAAAAAAAAAAAAAAAAAAAAAAAAAAAAAAAAAAAAAABAQEBAAAAAAAAAAAAAAAAAAAAAAAAAAAAAAAAAAAAAAAAAAAAAAAAAAAAAAAAAAAAAAAAAAAAAAAAAAAAAAAAAAAAAAAAAAAAAAAAAAAAAAAAAAAAAAAAT2YujnWYRNRDViZ4AAAAAAAAAAAAAAAAAAAAAAAAAAAEBQIGcpRBz3icRdt4nEXbeJxF23icRdt4nEXbeJxF23icRdt4nEXbeJxF23icRdt4nEXbeJxF23GTQc4AAAAAc5REzYy2UP92mUXXAgIBAgAAAAAAAAAAAAAAAAAAAAAHCAQLibJP+oy2UP+MtlD/jLZQ/4y2UP+MtlD/jLZQ/4y2UP+MtlD/jLZQ/4y2UP+MtlD/jLZQ/4u1UP4AAAAAQVQmdYy2UP+MtlD/LToaUAAAAAAAAAAAAAAAAAAAAAADAwIEX3o3qWOBObVjgTm1Y4E5tWOBObVjgTm1Y4E5tWOBObVjgTm1Y4E5tWOBObVjgTm1Y4E5tVx4NKgAAAAACw4HEoSrS/CMtlD/ep9G3QkMBQ8AAAAAAAAAAAAAAAAAAAAAAAAAAAAAAAAAAAAAAAAAAAAAAAAAAAAAAAAAAAAAAAAAAAAAAAAAAAAAAAAAAAAAAAAAAAAAAAAAAAAAAAAAAEBSJXGMtlD/jLZQ/2OCOrUEBQIHAAAAAAAAAAAAAAAAAAAAAAAAAAAAAAAAAAAAAAAAAAAAAAAAAAAAAAAAAAAAAAAAAgIBAgAAAAAAAAAAAAAAAAAAAAAAAAAAAAAAAAICAQNmhTq5jLZQ/4y2UP9piDy9DxMKGAAAAAAAAAAAAAAAAAAAAAAAAAAAAAAAAAAAAAAAAAAAAAAAAAAAAAAzQx5dgKZK6kdcKYAAAAAAAAAAAAAAAAAAAAAAAAAAAAAAAAAKDQYRb5BAyoy2UP+MtlD/gqhK60BSJHILDgYSAAAAAAAAAAAAAAAAAAAAAAAAAAAHCQQLAAAAAAAAAABjgDm0jLZQ/3qdRtwAAAAAAAAAAAAAAAAAAAAAAAAAAAAAAAAAAAAACQsFDmB9OK6MtlD/jLZQ/4y2UP+Hr032b41DwV90NZlOZS2OWXIzoHeXSc+ErEzxDA8HFAAAAAAlLRU6Y4I6tTA/HFQAAAAAAAAAAAAAAAAAAAAAAAAAAAAAAAAAAAAAAAAAAAICAQI0Qh1cfaBK3oy2UP+MtlD/jLZQ/4y2UP+MtlD/jLZQ/4y2UP+MtlD/OksjZwAAAAAAAAAAAAAAAAAAAAAAAAAAAAAAAAAAAAAAAAAAAAAAAAAAAAAAAAAAAAAAAAAAAAAAAAAAAwQCBSs4GU5YcjSedZhE1IWtTPOKtE/8g6pL73KSQ8tPZy6PFhwNJwAAAAAAAAAAAAAAAAAAAAAAAAAAAAAAAAAAAAAoAAAAIAAAAEAAAAABACAAAAAAAAAQAAAAAAAAAAAAAAAAAAAAAAAAAAAAAAAAAAAAAAAAAAAAAAAAAAAAAAAAAAAAAAAAAAAAAAAAAAAAAAYJBAwuOxlSVGwwl3GSQsuBqErribJO+YixTvh9okfjaYY8u0pfKoQgKRM4AgICAwAAAAAAAAAAAAAAAAAAAAAAAAAAAAAAAAAAAAAAAAAAAAAAAAAAAAAAAAAAAAAAAAAAAAAAAAAAAAAAAAAAAAAAAAAAAAAAAAAAAAACAgECfaNH44y2UP+MtlD/jLZQ/4y2UP+MtlD/jLZQ/4y2UP+MtlD/jLZQ/4y2UP92mUPTNkYgYAQEAwUAAAAAAAAAAAAAAAAAAAAAAAAAAAAAAAAAAAAAAAAAAAAAAAAAAAAAAAAAAAAAAAAAAAAAAAAAAAAAAAAAAAAAAAAAAAAAAABmhTu6jLZQ/4y2UP+MtlD/jLZQ/4y2UP+MtlD/jLZQ/4y2UP+MtlD/jLZQ/4y2UP+MtlD/c5RCzRwkETEAAAAAAAAAAAAAAAAAAAAAAAAAAAAAAAAAAAAAAAAAAAAAAAAAAAAAAAAAAAICAQIwPx1XP1EkcAkLBQ8AAAAAAAAAAC48G1OMtlD/g6lL6mSDObJLYiyIQFMldEJVJndQaS+Ra4o8woevTfaMtlD/jLZQ/4y2UP+MtlD/h69N9jdHIGIAAAAAAAAAAAAAAAAAAAAAAAAAAAAAAAAAAAAAAAAAAAAAAAAAAAAANUQhXIu1UP6MtlD/YHs4qQAAAAAAAAAAAwMCBCYtGzkICQcJAAAAAAAAAAAAAAAAAAAAAAAAAAAAAAAADBAHFT9RJG98oUfijLZQ/4y2UP+MtlD/i7RQ/UFSJ3EAAAAAAAAAAAAAAAAAAAAAAAAAAAAAAAAAAAAAAAAAAAAAAABPZDCJjLZQ/4y2UP92mUPWAAAAAAAAAAAAAAAAAAAAAAAAAAAAAAAAAAAAAAAAAAAAAAAAAAAAAAAAAAAAAAAAAAAAAAYJBAxRZy+QirRP/Iy2UP+MtlD/i7RQ/TNCHVsAAAAAAAAAAAAAAAAAAAAAAAAAAAAAAAAAAAAAAAAAABgfDit/o0jliLFO+DlJIWYAAAAAAAAAAAAAAAAAAAAAAAAAAAAAAAAAAAAAAAAAAAAAAAAAAAAAAAAAAAAAAAAAAAAAAAAAAAAAAAAyQBxZiLFO+Iy2UP+MtlD/hq5N9BcdDSkAAAAAAAAAAAAAAAAAAAAAAAAAAAAAAAAAAAAAAAAAAAYHBAkKDQYRAAAAAAAAAAAAAAAAAAAAAAAAAAAAAAAAAAAAAAAAAAAAAAAAAAAAAAAAAAAAAAAAAAAAAAAAAAAAAAAAAAAAAAAAAAAyQBxZirRP/Iy2UP+MtlD/a408wgEBAQEAAAAAAAAAAAAAAAAAAAAAAAAAAAAAAAAAAAAAAAAAAAAAAAAAAAAAAAAAAAAAAAAAAAAAAAAAAAAAAAAAAAAAAAAAAAAAAAAAAAAAAAAAAAAAAAAAAAAAAAAAAAAAAAAAAAAAAAAAAAAAAABQZS6IjLZQ/4y2UP+MtlD/MDweUwAAAAAAAAAAAAAAAAAAAAAAAAAAAAAAAAAAAAAAAAAAAAAAAAAAAAAAAAAAAAAAAAAAAAAAAAAAAAAAAAAAAAAAAAAAAAAAAAAAAAAAAAAAAAAAAAAAAAAAAAAAAAAAAAAAAAAAAAAAAAAAAAYHBAl4m0XajLZQ/4y2UP9sjT7FAQEBAQAAAAAAAAAAERYKHhkgDiwZIA4sGSAOLBkgDiwZIA4sGSAOLBkgDiwZIA4sGSAOLBkgDiwZIA4sGSAOLBkgDiwZIA4sGSAOLBkgDiwXHQwpAgIBAgAAAAAAAAAAAAAAAAAAAAAAAAAAAAAAADREHl6MtlD/jLZQ/4u0UP0cIxAvAAAAAAAAAACIsU74jLZQ/4y2UP+MtlD/jLZQ/4y2UP+MtlD/jLZQ/4y2UP+MtlD/jLZQ/4y2UP+MtlD/jLZQ/4y2UP+MtlD/jLZQ/4y2UP8mMhZFAAAAAAAAAAAAAAAAAAAAAAAAAAAAAAAABgcDCYCmSuqMtlD/jLZQ/0ZbKH4AAAAAAAAAAIy2UP+MtlD/jLZQ/4y2UP+MtlD/jLZQ/4y2UP+MtlD/jLZQ/4y2UP+MtlD/jLZQ/4y2UP+MtlD/jLZQ/4y2UP+MtlD/jLZQ/ys4GU0AAAAAAAAAAAAAAAAAAAAAAAAAAAAAAAAAAAAAXHY1ooy2UP+MtlD/aYg8vQAAAAAAAAAAibJP+oy2UP+MtlD/jLZQ/4y2UP+MtlD/jLZQ/4y2UP+MtlD/jLZQ/4y2UP+MtlD/jLZQ/4y2UP+MtlD/jLZQ/4y2UP+MtlD/KDQXSAAAAAAAAAAAAAAAAAAAAAAAAAAAAAAAAAAAAAA4SSBljLZQ/4y2UP+CqErsAAAAAAAAAAAbIhAvIy4UPyMuFD8jLhQ/Iy4UPyMuFD8jLhQ/Iy4UPyMuFD8jLhQ/Iy4UPyMuFD8jLhQ/Iy4UPyMuFD8jLhQ/Iy4UPyIsFD0DBAIFAAAAAAAAAAAAAAAAAAAAAAAAAAAAAAAAAAAAABcdDSlylULRaIc8vFBnLpAAAAAAAAAAAAAAAAAAAAAAAAAAAAAAAAAAAAAAAAAAAAAAAAAAAAAAAAAAAAAAAAAAAAAAAAAAAAAAAAAAAAAAAAAAAAAAAAAAAAAAAAAAAAAAAAAAAAAAAAAAAAAAAAAAAAAAAAAAAAAAAAAAAAAAAAAAAAAAAAAAAAAAAAAAAAAAAAAAAAAAAAAAAAAAAAAAAAAAAAAAAAAAAAAAAAAAAAAAAAAAAAAAAAAAAAAAAAAAAAAAAAAAAAAAAAAAAAAAAAAAAAAAAAAAAAAAAAAAAAAAAAAAAAAAAAAAAAAAAAAAAAAAAAAAAAAAAAAAAAAAAAAAAAAAAAAAAAAAAAAAAAAAAAAAAAAAAAAAAAAAAAAAAAAAAAAAAAAAAAAAAAAAAAAAAAAAAAAAAAAAAAAAAAAAAAAAAAAAAAAAAAAAAAAAAAAAAAAAAAAAAAAAAAAAAAAAAAAAAAAAAAAAAAAAAAAAAAAAAAAAAAAAAAAAAAAAAAAAAAAAAAAAAAAAAAAAAAAAAAAAAAAAAAAHCAQKHCYRNAMDAgQAAAAAAAAAAAAAAAAAAAAAAAAAAAAAAAAAAAAAAQEBARMZCyIVGwwlFRsMJRUbDCUVGwwlFRsMJRUbDCUVGwwlFRsMJRUbDCUVGwwlFRsMJRUbDCUVGwwlFRsMJRUbDCUVGwwlDhIIGQAAAAAAAAAAYX05sIevTfaMtlD/LzwbUwAAAAAAAAAAAAAAAAAAAAAAAAAAAAAAAAAAAAAlLxVCjLZQ/4y2UP+MtlD/jLZQ/4y2UP+MtlD/jLZQ/4y2UP+MtlD/jLZQ/4y2UP+MtlD/jLZQ/4y2UP+MtlD/jLZQ/4y2UP+Gr031AAAAAAAAAABwkUHLjLZQ/4y2UP9bdzWmAAAAAAAAAAAAAAAAAAAAAAAAAAAAAAAAAAAAACk1GEqMtlD/jLZQ/4y2UP+MtlD/jLZQ/4y2UP+MtlD/jLZQ/4y2UP+MtlD/jLZQ/4y2UP+MtlD/jLZQ/4y2UP+MtlD/jLZQ/4u1UP4AAAAAAAAAAEZaK3uMtlD/jLZQ/4evTfYPFAkbAAAAAAAAAAAAAAAAAAAAAAAAAAAAAAAAJzMXR4y2UP+MtlD/jLZQ/4y2UP+MtlD/jLZQ/4y2UP+MtlD/jLZQ/4y2UP+MtlD/jLZQ/4y2UP+MtlD/jLZQ/4y2UP+MtlD/ibJP+gAAAAAAAAAAEhYLH4ixTviMtlD/jLZQ/1RtMJcAAAAAAAAAAAAAAAAAAAAAAAAAAAAAAAAFBQIGJjEWRCczF0cnMxdHJzMXRyczF0cnMxdHJzMXRyczF0cnMxdHJzMXRyczF0cnMxdHJzMXRyczF0cnMxdHJzMXRyczF0ceJhE1AAAAAAAAAAAAAAAAWXQ0oYy2UP+MtlD/irNP+yQuFT8AAAAAAAAAAAAAAAAAAAAAAAAAAAAAAAAAAAAAAAAAAAAAAAAAAAAAAAAAAAAAAAAAAAAAAAAAAAAAAAAAAAAAAAAAAAAAAAAAAAAAAAAAAAAAAAAAAAAAAAAAAAAAAAAAAAAAAAAAAAAAAAASGAofhq1N84y2UP+MtlD/f6NJ5RMYCyEAAAAAAAAAAAAAAAAAAAAAAAAAAAAAAAAAAAAAAAAAAAAAAAAAAAAAAAAAAAAAAAAAAAAAAAAAAAAAAAAAAAAAAAAAAAAAAAAAAAAAAAAAAAAAAAAAAAAAAAAAAAAAAAAAAAAAAAAAAAAAAAA8TiNsjLZQ/4y2UP+MtlD/eZ1F3BUbDCUAAAAAAAAAAAAAAAAAAAAAAAAAAAAAAAAAAAAAAAAAAAAAAAAAAAAAAAAAAAAAAAAAAAAAAAAAAAEBAQE7TCNpT2ctkBMZCyIAAAAAAAAAAAAAAAAAAAAAAAAAAAAAAAAAAAAAAAAAAAICAQJcdzWljLZQ/4y2UP+MtlD/gqhK7DZDJVUBAQEBAAAAAAAAAAAAAAAAAAAAAAAAAAAAAAAAAAAAAAAAAAAAAAAAAAAAAAAAAAAAAAAALz0aVIy2UP+MtlD/cJJBywAAAAAAAAAAAAAAAAAAAAAAAAAAAAAAAAAAAAAAAAAAAAAAAAUGAwhjgjm1jLZQ/4y2UP+MtlD/jLZQ/2aGPLsnMhdFBAUCBQAAAAAAAAAAAAAAAAAAAAAAAAAAAAAAAAkKBg0FBQIHAAAAAAAAAAA+UCRwjLZQ/4y2UP+ApUrnAAAAAAAAAAAAAAAAAAAAAAAAAAAAAAAAAAAAAAAAAAAAAAAAAAAAAAUGAwhZcjOgjLZQ/4y2UP+MtlD/jLZQ/4y2UP9+o0jjZHtBpk9fLHw6SyJpPE4jbUtiK4dmgzu4h61P8k5lLYwAAAAAAAAAAAsPBxRzkkHIg6pL7jlLIWIAAAAAAAAAAAAAAAAAAAAAAAAAAAAAAAAAAAAAAAAAAAAAAAAAAAAAAAAAAAEBAQE2RR9ggqhK7Iy2UP+MtlD/jLZQ/4y2UP+MtlD/jLZQ/4y2UP+MtlD/jLZQ/4y2UP+MtlD/gKVM5QUFBAcAAAAAAAAAAAEBAQEDAwIEAAAAAAAAAAAAAAAAAAAAAAAAAAAAAAAAAAAAAAAAAAAAAAAAAAAAAAAAAAAAAAAAAAAAAAAAAAANEAcWT2QwiIKoS+yMtlD/jLZQ/4y2UP+MtlD/jLZQ/4y2UP+MtlD/jLZQ/4y2UP+MtlD/GyMQMAAAAAAAAAAAAAAAAAAAAAAAAAAAAAAAAAAAAAAAAAAAAAAAAAAAAAAAAAAAAAAAAAAAAAAAAAAAAAAAAAAAAAAAAAAAAAAAAAAAAAAAAAAABgkEDC47GVJUbDGYcJJCy4KoSuyKs0/7iLFO+H2jSORqiTy/Vmg8hyIrFDsCAgECAAAAAAAAAAAAAAAAAAAAAAAAAAAAAAAAAAAAAAAAAAAAAAAAAAAAACgAAAAwAAAAYAAAAAEAIAAAAAAAACQAAAAAAAAAAAAAAAAAAAAAAAAAAAAAAAAAAAAAAAAAAAAAAAAAAAAAAAAAAAAAAAAAAAAAAAAAAAAAAAAAAAAAAAAAAAAAAAAAAAAAAAAAAAAAAAAAAAUGAwgfKBI3P1IjcV98OahwkkHLgKZJ6YavTfWJsk/6hKxM8XicRdtpiDy9T2YtjjJAHFgPFAkbAAAAAAAAAAAAAAAAAAAAAAAAAAAAAAAAAAAAAAAAAAAAAAAAAAAAAAAAAAAAAAAAAAAAAAAAAAAAAAAAAAAAAAAAAAAAAAAAAAAAAAAAAAAAAAAAAAAAAAAAAAAAAAAAAAAAAAAAAAAAAAAAAAAAAAAAAAAAAAAAAAAAAAAAAAAOEwkZTmUtjXmeRt2LtVD+jLZQ/4y2UP+MtlD/jLZQ/4y2UP+MtlD/jLZQ/4y2UP+MtlD/jLZQ/4y2UP+Grk30bItAvzlDI1wHCgQLAAAAAAAAAAAAAAAAAAAAAAAAAAAAAAAAAAAAAAAAAAAAAAAAAAAAAAAAAAAAAAAAAAAAAAAAAAAAAAAAAAAAAAAAAAAAAAAAAAAAAAAAAAAAAAAAAAAAAAAAAAAAAAAAAAAAAAAAAAAAAAAAAAAAAAAAAABGVyl5jLZQ/4y2UP+MtlD/jLZQ/4y2UP+MtlD/jLZQ/4y2UP+MtlD/jLZQ/4y2UP+MtlD/jLZQ/4y2UP+MtlD/jLZQ/4y2UP9/o0nlQFAlbgkKBQwAAAAAAAAAAAAAAAAAAAAAAAAAAAAAAAAAAAAAAAAAAAAAAAAAAAAAAAAAAAAAAAAAAAAAAAAAAAAAAAAAAAAAAAAAAAAAAAAAAAAAAAAAAAAAAAAAAAAAAAAAAAAAAAAAAAAAAAAAAAAAAAAeJhE0irNP+4y2UP+MtlD/jLZQ/4y2UP+MtlD/jLZQ/4y2UP+MtlD/jLZQ/4y2UP+MtlD/jLZQ/4y2UP+MtlD/jLZQ/4y2UP+MtlD/jLZQ/3ubRtkoMhdFAQEBAQAAAAAAAAAAAAAAAAAAAAAAAAAAAAAAAAAAAAAAAAAAAAAAAAAAAAAAAAAAAAAAAAAAAAAAAAAAAAAAAAAAAAAAAAAAAAAAAAAAAAAAAAAAAAAAAAAAAAAAAAAAAAAAAAAAAAACAgECb5FByYy2UP+MtlD/jLZQ/4y2UP+MtlD/jLZQ/4y2UP+MtlD/jLZQ/4y2UP+MtlD/jLZQ/4y2UP+MtlD/jLZQ/4y2UP+MtlD/jLZQ/4y2UP+Ks0/7UGcujwUFAgcAAAAAAAAAAAAAAAAAAAAAAAAAAAAAAAAAAAAAAAAAAAAAAAAAAAAAAAAAAAAAAAAAAAAAAAAAAAAAAAAAAAAAAwMCBDtLImlmhTu6WHAznRMZDCIAAAAAAAAAAAAAAAAAAAAAN0cgY4y2UP+Ks0/7eptF1FdzMZk5SiFmJzQXRRsjEDAaIQ4uHicSNi47G1JEVyd5Y385soKoSuuMtlD/jLZQ/4y2UP+MtlD/jLZQ/4y2UP+MtlD/jLZQ/2qJPb8NEAgWAAAAAAAAAAAAAAAAAAAAAAAAAAAAAAAAAAAAAAAAAAAAAAAAAAAAAAAAAAAAAAAAAAAAAAAAAAAAAAAAPlAkbou1UP6MtlD/jLZQ/3aZQ9YHCAQLAAAAAAAAAAAAAAAABQcDCT9KLWAgJhcwBAUCBQAAAAAAAAAAAAAAAAAAAAAAAAAAAAAAAAAAAAAAAAAAAAAAAAoNBhEvPRpUbIw9w4u0UP2MtlD/jLZQ/4y2UP+MtlD/jLZQ/4y2UP9xkkHNDhIJGQAAAAAAAAAAAAAAAAAAAAAAAAAAAAAAAAAAAAAAAAAAAAAAAAAAAAAAAAAAAAAAAAAAAAACAgECdpZKzIy2UP+MtlD/jLZQ/4y2UP8qMxxDAAAAAAAAAAAAAAAAAAAAAAAAAAAAAAAAAAAAAAAAAAAAAAAAAAAAAAAAAAAAAAAAAAAAAAAAAAAAAAAAAAAAAAAAAAAAAAAAAQEBASYxFkRxkkHNjLZQ/4y2UP+MtlD/jLZQ/4y2UP+MtlD/eZlM0AsOBxMAAAAAAAAAAAAAAAAAAAAAAAAAAAAAAAAAAAAAAAAAAAAAAAAAAAAAAAAAAAAAAAABAQEBc5JIx4y2UP+MtlD/jLZQ/4u1UP4jLhQ/AAAAAAAAAAAAAAAAAAAAAAAAAAAAAAAAAAAAAAAAAAAAAAAAAAAAAAAAAAAAAAAAAAAAAAAAAAAAAAAAAAAAAAAAAAAAAAAAAAAAAAAAAAAFBgMITGAshomyTvmMtlD/jLZQ/4y2UP+MtlD/jLZQ/2SBObQEBQIGAAAAAAAAAAAAAAAAAAAAAAAAAAAAAAAAAAAAAAAAAAAAAAAAAAAAAAAAAAAAAAAANUUfX4u0UP2MtlD/jLZQ/3CRQMoEBQIHAAAAAAAAAAAAAAAAAAAAAAAAAAAAAAAAAAAAAAAAAAAAAAAAAAAAAAAAAAAAAAAAAAAAAAAAAAAAAAAAAAAAAAAAAAAAAAAAAAAAAAAAAAAAAAAAAAAAAC46GVGFrUzyjLZQ/4y2UP+MtlD/jLZQ/4y2UP9HXCmAAAAAAAAAAAAAAAAAAAAAAAAAAAAAAAAAAAAAAAAAAAAAAAAAAAAAAAAAAAAAAAAAAQEBAS05GU9YcjOfSl4sgQwPBxQAAAAAAAAAAAAAAAAAAAAAAAAAAAAAAAAAAAAAAAAAAAAAAAAAAAAAAAAAAAAAAAAAAAAAAAAAAAAAAAAAAAAAAAAAAAAAAAAAAAAAAAAAAAAAAAAAAAAAAAAAAAAAAAAjLhU/hKtL8Iy2UP+MtlD/jLZQ/4y2UP+Hr032ISsTOQAAAAAAAAAAAAAAAAAAAAAAAAAAAAAAAAAAAAAAAAAAAAAAAAAAAAAAAAAAAAAAAAAAAAAAAAAAAAAAAAAAAAAAAAAAAAAAAAAAAAAAAAAAAAAAAAAAAAAAAAAAAAAAAAAAAAAAAAAAAAAAAAAAAAAAAAAAAAAAAAAAAAAAAAAAAAAAAAAAAAAAAAAAAAAAAAAAAAAAAAAAAAAAAAAAAAAAAAAAKzgZTomyTvmMtlD/jLZQ/4y2UP+MtlD/b5A/yQICAQMAAAAAAAAAAAAAAAAAAAAAAAAAAAAAAAAAAAAAAAAAAAAAAAAAAAAAAAAAAAAAAAAAAAAAAAAAAAAAAAAAAAAAAAAAAAAAAAAAAAAAAAAAAAAAAAAAAAAAAAAAAAAAAAAAAAAAAAAAAAAAAAAAAAAAAAAAAAAAAAAAAAAAAAAAAAAAAAAAAAAAAAAAAAAAAAAAAAAAAAAAAAAAAAAAAAAAAAAAAEZZKHmMtlD/jLZQ/4y2UP+MtlD/i7VQ/jdEI1sAAAAAAAAAAAAAAAAAAAAAAAAAAAAAAAAAAAAAAAAAAAAAAAAAAAAAAAAAAAAAAAAAAAAAAAAAAAAAAAAAAAAAAAAAAAAAAAAAAAAAAAAAAAAAAAAAAAAAAAAAAAAAAAAAAAAAAAAAAAAAAAAAAAAAAAAAAAAAAAAAAAAAAAAAAAAAAAAAAAAAAAAAAAAAAAAAAAAAAAAAAAAAAAAAAAAAAAAAAAMEAgRujz7HjLZQ/4y2UP+MtlD/jLZQ/3OWQtIEBQIGAAAAAAAAAAAAAAAAAAAAAAAAAAAAAAAAAAAAAAAAAAAAAAAAAAAAAAAAAAAAAAAAAAAAAAAAAAAAAAAAAAAAAAAAAAAAAAAAAAAAAAAAAAAAAAAAAAAAAAAAAAAAAAAAAAAAAAAAAAAAAAAAAAAAAAAAAAAAAAAAAAAAAAAAAAAAAAAAAAAAAAAAAAAAAAAAAAAAAAAAAAAAAAAAAAAAAAAAAAAfJxI2ibJO+Yy2UP+MtlD/jLZQ/4y2UP8oNBdHAAAAAAAAAAAAAAAAAAAAAAAAAAAAAAAAAAAAAAAAAAAAAAAAAAAAAAAAAAAAAAAAAAAAAAAAAAAAAAAAAAAAAAAAAAAAAAAAAAAAAAAAAAAAAAAAAAAAAAAAAAAAAAAAAAAAAAAAAAAAAAAAAAAAAAAAAAAAAAAAAAAAAAAAAAAAAAAAAAAAAAAAAAAAAAAAAAAAAAAAAAAAAAAAAAAAAAAAAAABAQEBXno1q4y2UP+MtlD/jLZQ/4y2UP9gfTiuAAAAAAAAAAAAAAAAAAAAAFFqL5Nqij3Baoo9wWqKPcFqij3Baoo9wWqKPcFqij3Baoo9wWqKPcFqij3Baoo9wWqKPcFqij3Baoo9wWqKPcFqij3Baoo9wWqKPcFqij3Baoo9wWqKPcFqij3Baoo9wWqKPcFqij3BZoU6uxsiES8AAAAAAAAAAAAAAAAAAAAAAAAAAAAAAAAAAAAAAAAAAAAAAAAAAAAAISoTOou1UP6MtlD/jLZQ/4y2UP+GrUzwDRAIFAAAAAAAAAAAAAAAAIu1UP6MtlD/jLZQ/4y2UP+MtlD/jLZQ/4y2UP+MtlD/jLZQ/4y2UP+MtlD/jLZQ/4y2UP+MtlD/jLZQ/4y2UP+MtlD/jLZQ/4y2UP+MtlD/jLZQ/4y2UP+MtlD/jLZQ/4y2UP+MtlD/jLZQ/z9SJHIAAAAAAAAAAAAAAAAAAAAAAAAAAAAAAAAAAAAAAAAAAAAAAAAAAAAAAwQCBXKUQdCMtlD/jLZQ/4y2UP+MtlD/LToaUAAAAAAAAAAAAAAAAIy2UP+MtlD/jLZQ/4y2UP+MtlD/jLZQ/4y2UP+MtlD/jLZQ/4y2UP+MtlD/jLZQ/4y2UP+MtlD/jLZQ/4y2UP+MtlD/jLZQ/4y2UP+MtlD/jLZQ/4y2UP+MtlD/jLZQ/4y2UP+MtlD/jLZQ/z5TJHMAAAAAAAAAAAAAAAAAAAAAAAAAAAAAAAAAAAAAAAAAAAAAAAAAAAAAAAAAAE9jLYWMtlD/jLZQ/4y2UP+MtlD/T2YujgAAAAAAAAAAAAAAAIy2UP+MtlD/jLZQ/4y2UP+MtlD/jLZQ/4y2UP+MtlD/jLZQ/4y2UP+MtlD/jLZQ/4y2UP+MtlD/jLZQ/4y2UP+MtlD/jLZQ/4y2UP+MtlD/jLZQ/4y2UP+MtlD/jLZQ/4y2UP+MtlD/jLZQ/z5TJHMAAAAAAAAAAAAAAAAAAAAAAAAAAAAAAAAAAAAAAAAAAAAAAAAAAAAAAAAAACQuFUCLtVD+jLZQ/4y2UP+MtlD/bIw9wwAAAAAAAAAAAAAAAIavTfWMtlD/jLZQ/4y2UP+MtlD/jLZQ/4y2UP+MtlD/jLZQ/4y2UP+MtlD/jLZQ/4y2UP+MtlD/jLZQ/4y2UP+MtlD/jLZQ/4y2UP+MtlD/jLZQ/4y2UP+MtlD/jLZQ/4y2UP+MtlD/jLZQ/zpMIWkAAAAAAAAAAAAAAAAAAAAAAAAAAAAAAAAAAAAAAAAAAAAAAAAAAAAAAAAAAAsOBxOJsk75jLZQ/4y2UP+MtlD/gahK6wAAAAAAAAAAAAAAACEqEzo0RB5fNEQeXzREHl80RB5fNEQeXzREHl80RB5fNEQeXzREHl80RB5fNEQeXzREHl80RB5fNEQeXzREHl80RB5fNEQeXzREHl80RB5fNEQeXzREHl80RB5fNEQeXzREHl80RB5fMUAcWQYJBAwAAAAAAAAAAAAAAAAAAAAAAAAAAAAAAAAAAAAAAAAAAAAAAAAAAAAAAAAAAAAAAAB3mkXYjLZQ/4y2UP+Jsk75a4o+wgAAAAAAAAAAAAAAAAAAAAAAAAAAAAAAAAAAAAAAAAAAAAAAAAAAAAAAAAAAAAAAAAAAAAAAAAAAAAAAAAAAAAAAAAAAAAAAAAAAAAAAAAAAAAAAAAAAAAAAAAAAAAAAAAAAAAAAAAAAAAAAAAAAAAAAAAAAAAAAAAAAAAAAAAAAAAAAAAAAAAAAAAAAAAAAAAAAAAAAAAAAAAAAAAAAAAAAAAAAAAAAAAAAAAATGAshIisTPBMYCyEICQUMAwMCBAAAAAAAAAAAAAAAAAAAAAAAAAAAAAAAAAAAAAAAAAAAAAAAAAAAAAAAAAAAAAAAAAAAAAAAAAAAAAAAAAAAAAAAAAAAAAAAAAAAAAAAAAAAAAAAAAAAAAAAAAAAAAAAAAAAAAAAAAAAAAAAAAAAAAAAAAAAAAAAAAAAAAAAAAAAAAAAAAAAAAAAAAAAAAAAAAAAAAAAAAAAAAAAAAAAAAAAAAAAAAAAAAAAAAAAAAAAAAAAAAAAAAAAAAAAAAAAAAAAAAAAAAAAAAAAAAAAAAAAAAAAAAAAAAAAAAAAAAAAAAAAAAAAAAAAAAAAAAAAAAAAAAAAAAAAAAAAAAAAAAAAAAAAAAAAAAAAAAAAAAAAAAAAAAAAAAAAAAAAAAAAAAAAAAAAAAAAAAAAAAAAAAAAAAAAAAAAAAAAAAAAAAAAAAAAAAAAAAAAAAAAAAAAAAAAAAAAAAAAAAAAAAAAAAAAAAAAAAAAAAAAAAAAAAAAAAAAAAAAAAAAAAAAAAAAAAAAAAAAAAAAAAAAAAAAAAAAAAAAAAAAAAAAAAAAAAAAAAAAAAAAAAAAAAAAAAAAAAAAAAAAAAAAAAAAAAAAAAAAAAAAAAAAAAAAAAAAAAAAAAAAAAAAAAAAAAAAAAAAAAAAAAAAAAAAAAAAAAAAAAAAAAAAAAAAAAAAAAAAAAAAAAAAAAAAAAAAAAAAAAAAAAAAAAAAAAAAAAAAAAAAAAAAAAAAAAAAAAAAAAAAAAAAAAAAAAAAAAAAAAAAAAAAAAAAAAAAAAAAAAAAAAAAAAAAAAAAAAAAAAAAAAAAAAAAAAAAAAAAAAAAAAAAAAAAAAAAAAAAAAAAAAAAAAAAAAAAAAAAAAAAAAAAAAAAAAAAAAAAAAAAAAAAAAAAAAAAAAAAAAAAAAAAAAAAAAAAAAAAAAAAAAAAAAAAAAAAAAAAAAAAAAAAAAAAAAAAAAAAAAAAAAAAAAAAAAAAAAAAAAAAAAAAAAAAAAAAAAAAAAAAAAAAAAAAAAAAAAAAAAAAAAAAAAAAAAAAAAAAAAAAAAAAAAAAAAAAAAICAQICAgECAAAAAAAAAAAAAAAAAAAAAAAAAAAAAAAAAAAAAAAAAAAAAAAAAAAAAAAAAAAAAAAAAAAAAAAAAAAAAAAAAAAAAAAAAAAAAAAAAAAAAAAAAAAAAAAAAAAAAAAAAAAAAAAAAAAAAAAAAAAAAAAAAAAAAAAAAAAAAAAAAAAAAAAAAAAAAAAAAAAAAAAAAAAAAAAAAAAAAAAAAAAAAAAAAAAAAAAAAAAAAAAAAAAAAAwPBxQvPBxUU2gxkG+QQMlWcDKcAAAAAAAAAAAAAAAAAAAAAAAAAAAAAAAAAAAAAAAAAAAAAAAAAAAAAAAAAAAAAAAAFx0MKWF+OLFlgzq3ZYM6t2WDOrdlgzq3ZYM6t2WDOrdlgzq3ZYM6t2WDOrdlgzq3ZYM6t2WDOrdlgzq3ZYM6t2WDOrdlgzq3ZYM6t2WDOrdlgzq3ZYM6t2WDOrdlgzq3ZYM6t2WDOrdlgzq3S2IsiAAAAAAAAAAAAAAAAHaZRNWMtlD/jLZQ/4y2UP+Jsk75DRIJGAAAAAAAAAAAAAAAAAAAAAAAAAAAAAAAAAAAAAAAAAAAAAAAAAAAAAAAAAAAPk8kb4y2UP+MtlD/jLZQ/4y2UP+MtlD/jLZQ/4y2UP+MtlD/jLZQ/4y2UP+MtlD/jLZQ/4y2UP+MtlD/jLZQ/4y2UP+MtlD/jLZQ/4y2UP+MtlD/jLZQ/4y2UP+MtlD/jLZQ/4y2UP+MtlD/irRP/AAAAAAAAAAAAAAAAGyMPcOMtlD/jLZQ/4y2UP+MtlD/NkcgYgAAAAAAAAAAAAAAAAAAAAAAAAAAAAAAAAAAAAAAAAAAAAAAAAAAAAAAAAAAPlAjcIy2UP+MtlD/jLZQ/4y2UP+MtlD/jLZQ/4y2UP+MtlD/jLZQ/4y2UP+MtlD/jLZQ/4y2UP+MtlD/jLZQ/4y2UP+MtlD/jLZQ/4y2UP+MtlD/jLZQ/4y2UP+MtlD/jLZQ/4y2UP+MtlD/i7RQ/QAAAAAAAAAAAAAAAEhaL3iMtlD/jLZQ/4y2UP+MtlD/a4o+wgICAQMAAAAAAAAAAAAAAAAAAAAAAAAAAAAAAAAAAAAAAAAAAAAAAAAAAAAAPlAjcIy2UP+MtlD/jLZQ/4y2UP+MtlD/jLZQ/4y2UP+MtlD/jLZQ/4y2UP+MtlD/jLZQ/4y2UP+MtlD/jLZQ/4y2UP+MtlD/jLZQ/4y2UP+MtlD/jLZQ/4y2UP+MtlD/jLZQ/4y2UP+MtlD/i7RQ/QAAAAAAAAAAAAAAABcdDSmIsU74jLZQ/4y2UP+MtlD/i7RQ/SEqEzoAAAAAAAAAAAAAAAAAAAAAAAAAAAAAAAAAAAAAAAAAAAAAAAAAAAAAOUohaIy2UP+MtlD/jLZQ/4y2UP+MtlD/jLZQ/4y2UP+MtlD/jLZQ/4y2UP+MtlD/jLZQ/4y2UP+MtlD/jLZQ/4y2UP+MtlD/jLZQ/4y2UP+MtlD/jLZQ/4y2UP+MtlD/jLZQ/4y2UP+MtlD/hq9N9QAAAAAAAAAAAAAAAAEBAQFsiT+/jLZQ/4y2UP+MtlD/jLZQ/2aFO7oCAgEDAAAAAAAAAAAAAAAAAAAAAAAAAAAAAAAAAAAAAAAAAAAAAAAACwsFDjdIIGQ6TCJqOkwiajpMImo6TCJqOkwiajpMImo6TCJqOkwiajpMImo6TCJqOkwiajpMImo6TCJqOkwiajpMImo6TCJqOkwiajpMImo6TCJqOkwiajpMImo6TCJqOkwiajpMImo6TCJqJTAWQwAAAAAAAAAAAAAAAAAAAAAsOBtOjLZQ/4y2UP+MtlD/jLZQ/4u0UP00RRxZAAAAAAAAAAAAAAAAAAAAAAAAAAAAAAAAAAAAAAAAAAAAAAAAAAAAAAAAAAAAAAAAAAAAAAAAAAAAAAAAAAAAAAAAAAAAAAAAAAAAAAAAAAAAAAAAAAAAAAAAAAAAAAAAAAAAAAAAAAAAAAAAAAAAAAAAAAAAAAAAAAAAAAAAAAAAAAAAAAAAAAAAAAAAAAAAAAAAAAAAAAAAAAAAAAAAAAAAAAAEBQIGcZNBzYy2UP+MtlD/jLZQ/4y2UP+Bp0npEBQJGwAAAAAAAAAAAAAAAAAAAAAAAAAAAAAAAAAAAAAAAAAAAAAAAAAAAAAAAAAAAAAAAAAAAAAAAAAAAAAAAAAAAAAAAAAAAAAAAAAAAAAAAAAAAAAAAAAAAAAAAAAAAAAAAAAAAAAAAAAAAAAAAAAAAAAAAAAAAAAAAAAAAAAAAAAAAAAAAAAAAAAAAAAAAAAAAAAAAAAAAAAAAAAAAAAAAAAAAAAAJzMWRIq0T/yMtlD/jLZQ/4y2UP+MtlD/bI0/xAgLBQ4AAAAAAAAAAAAAAAAAAAAAAAAAAAAAAAAAAAAAAAAAAAAAAAAAAAAAAAAAAAAAAAAAAAAAAAAAAAAAAAAAAAAAAAAAAAAAAAAAAAAAAAAAAAAAAAAAAAAAAAAAAAAAAAAAAAAAAAAAAAAAAAAAAAAAAAAAAAAAAAAAAAAAAAAAAAAAAAAAAAAAAAAAAAAAAAAAAAAAAAAAAAAAAAAAAAAAAQEBAV93N6aMtlD/jLZQ/4y2UP+MtlD/jLZQ/2F8OK8FBwMJAAAAAAAAAAAAAAAAAAAAAAAAAAAAAAAAAAAAAAAAAAAAAAAAAAAAAAAAAAAAAAAAAAAAAAAAAAAAAAAAAAAAAAAAAAAAAAAAAAAAAAAAAAAAAAAAAAAAAAAAAAAAAAAAAgIBAgQFAgYAAAAAAAAAAAAAAAAAAAAAAAAAAAAAAAAAAAAAAAAAAAAAAAAAAAAAAAAAAAAAAAAAAAAAAAAAAA0QBxZ7n0bfjLZQ/4y2UP+MtlD/jLZQ/4y2UP9lgzq3Cw4GEgAAAAAAAAAAAAAAAAAAAAAAAAAAAAAAAAAAAAAAAAAAAAAAAAAAAAAAAAAAAAAAAAAAAAAAAAAAAAAAAAAAAAAAAAAAAAAAAAAAAAAAAAAAAAAAAAAAAAAbIhAvaog9vnugRuBWbjKbCQwFEAAAAAAAAAAAAAAAAAAAAAAAAAAAAAAAAAAAAAAAAAAAAAAAAAAAAAAAAAAAAAAAAAAAAAAjLBM7hq9N9Yy2UP+MtlD/jLZQ/4y2UP+MtlD/dZdE1CQqGzQAAAAAAAAAAAAAAAAAAAAAAAAAAAAAAAAAAAAAAAAAAAAAAAAAAAAAAAAAAAAAAAAAAAAAAAAAAAAAAAAAAAAAAAAAAAAAAAAAAAAAAAAAAAYHAwl5nkbdjLZQ/4y2UP+MtlD/Vm8ymgAAAAAAAAAAAAAAAAAAAAAAAAAAAAAAAAAAAAAAAAAAAAAAAAAAAAAAAAAAAAAAAAAAAAAAAAAAM0IdXImyT/qMtlD/jLZQ/4y2UP+MtlD/jLZQ/4evTfZMZiuECgwGEAAAAAAAAAAAAAAAAAAAAAAAAAAAAAAAAAAAAAAAAAAAAAAAAAAAAAAAAAAAAAAAAAAAAAAAAAAAAAAAAAAAAAAAAAAAAAAAABwmETSMtlD/jLZQ/4y2UP+MtlD/f6VJ5gEBAQEAAAAAAAAAAAAAAAAAAAAAAAAAAAAAAAAAAAAAAAAAAAAAAAAAAAAAAAAAAAAAAAAAAAAAAAAAADhIIGSJsk75jLZQ/4y2UP+MtlD/jLZQ/4y2UP+MtlD/f6VK6EldK4IVGwwjAgIBAgAAAAAAAAAAAAAAAAAAAAAAAAAAAAAAAAAAAAAAAAAAAAAAAAgJBgsTGAsgAAAAAAAAAAAAAAAAAAAAABMZCyKKtE/8jLZQ/4y2UP+MtlD/dZdC0wAAAAAAAAAAAAAAAAAAAAAAAAAAAAAAAAAAAAAAAAAAAAAAAAAAAAAAAAAAAAAAAAAAAAAAAAAAAAAAAAEBAQEyQBxUhq9N9Yy2UP+MtlD/jLZQ/4y2UP+MtlD/jLZQ/4y2UP+IsE73b5BAx1ZpPIg0QB1UHCQQMhIXCyAPFAkbFRwNJiYxFkI6TCJqWnM0o4GlTuOJsk/6IywUPQAAAAAAAAAAAAAAAAICAQJWcDKdi7VQ/oy2UP+Jsk75M0MdVwAAAAAAAAAAAAAAAAAAAAAAAAAAAAAAAAAAAAAAAAAAAAAAAAAAAAAAAAAAAAAAAAAAAAAAAAAAAAAAAAAAAAAAAAAAHiYSM3aZRNWMtlD/jLZQ/4y2UP+MtlD/jLZQ/4y2UP+MtlD/jLZQ/4y2UP+MtlD/jLZQ/4y2UP+MtlD/jLZQ/4y2UP+MtlD/jLZQ/4y2UP+MtlD/WnM2ngAAAAAAAAAAAAAAAAAAAAADAwIEMj4dUkJWJngeJxI0AAAAAAAAAAAAAAAAAAAAAAAAAAAAAAAAAAAAAAAAAAAAAAAAAAAAAAAAAAAAAAAAAAAAAAAAAAAAAAAAAAAAAAAAAAAAAAAAAAAAAAkMBRBQZi2OiLFO+Iy2UP+MtlD/jLZQ/4y2UP+MtlD/jLZQ/4y2UP+MtlD/jLZQ/4y2UP+MtlD/jLZQ/4y2UP+MtlD/jLZQ/4y2UP+MtlD/gqhM6goMBxAAAAAAAAAAAAAAAAAAAAAAAAAAAAAAAAAAAAAAAAAAAAAAAAAAAAAAAAAAAAAAAAAAAAAAAAAAAAAAAAAAAAAAAAAAAAAAAAAAAAAAAAAAAAAAAAAAAAAAAAAAAAAAAAAAAAAAAAAAAAAAAAAAAAAAGyQQMWeARKyKtE/8jLZQ/4y2UP+MtlD/jLZQ/4y2UP+MtlD/jLZQ/4y2UP+MtlD/jLZQ/4y2UP+MtlD/jLZQ/4y2UP+MtlD/jLZQ/ys4Gk4AAAAAAAAAAAAAAAAAAAAAAAAAAAAAAAAAAAAAAAAAAAAAAAAAAAAAAAAAAAAAAAAAAAAAAAAAAAAAAAAAAAAAAAAAAAAAAAAAAAAAAAAAAAAAAAAAAAAAAAAAAAAAAAAAAAAAAAAAAAAAAAAAAAAAAAAAAAEBAQEYHw8qT2cuj3meRt6LtFD9jLZQ/4y2UP+MtlD/jLZQ/4y2UP+MtlD/jLZQ/4y2UP+MtlD/jLZQ/4y2UP+Hr032bYw/whUaDCMAAAAAAAAAAAAAAAAAAAAAAAAAAAAAAAAAAAAAAAAAAAAAAAAAAAAAAAAAAAAAAAAAAAAAAAAAAAAAAAAAAAAAAAAAAAAAAAAAAAAAAAAAAAAAAAAAAAAAAAAAAAAAAAAAAAAAAAAAAAAAAAAAAAAAAAAAAAAAAAAAAAAAAAAAAAUGAwggKRI4QFMmc198OahxkkHMgKZJ6YevTfaKtE/8ha1M8nqfRt9qiTy/UWovlEBKMVsTGAwgAQEBAQAAAAAAAAAAAAAAAAAAAAAAAAAAAAAAAAAAAAAAAAAAAAAAAAAAAAAAAAAAAAAAAAAAAAAAAAAAAAAAAAAAAAAoAAAAQAAAAIAAAAABACAAAAAAAABAAAAAAAAAAAAAAAAAAAAAAAAAAAAAAAAAAAAAAAAAAAAAAAAAAAAAAAAAAAAAAAAAAAAAAAAAAAAAAAAAAAAAAAAAAAAAAAAAAAAAAAAAAAAAAAAAAAAAAAAAAAAAAAAAAAAAAAAAAAAAAAAAAAAAAAAACw4GEiErEzo+UCNvWXQ1nWaFPLt4m0Xag6pL74auTfSIsU74ha1M83qfRt9ujz/JX3k2qkVZJ3wsOBlNExgLIQEBAQEAAAAAAAAAAAAAAAAAAAAAAAAAAAAAAAAAAAAAAAAAAAAAAAAAAAAAAAAAAAAAAAAAAAAAAAAAAAAAAAAAAAAAAAAAAAAAAAAAAAAAAAAAAAAAAAAAAAAAAAAAAAAAAAAAAAAAAAAAAAAAAAAAAAAAAAAAAAAAAAAAAAAAAAAAAAAAAAAAAAAAAAAAAAAAAAAAAAAAAAAAAAAAAAAAAAAAAAAAAAAAAAAAAAAAAQEBAQ8TCRozQh1bY4A5sn+lSeiJsk/6jLZQ/4y2UP+MtlD/jLZQ/4y2UP+MtlD/jLZQ/4y2UP+MtlD/jLZQ/4y2UP+MtlD/i7VQ/oSrS/Bujz7HR10rfhwhEi0DBAIFAAAAAAAAAAAAAAAAAAAAAAAAAAAAAAAAAAAAAAAAAAAAAAAAAAAAAAAAAAAAAAAAAAAAAAAAAAAAAAAAAAAAAAAAAAAAAAAAAAAAAAAAAAAAAAAAAAAAAAAAAAAAAAAAAAAAAAAAAAAAAAAAAAAAAAAAAAAAAAAAAAAAAAAAAAAAAAAAAAAAAAAAAAAAAAAAAAAAAAAAAAAAAAAAAAAAADlKI2WApkrqjLZQ/4y2UP+MtlD/jLZQ/4y2UP+MtlD/jLZQ/4y2UP+MtlD/jLZQ/4y2UP+MtlD/jLZQ/4y2UP+MtlD/jLZQ/4y2UP+MtlD/jLZQ/4y2UP+IsE73ZoY8uzRHHFkFBQIHAAAAAAAAAAAAAAAAAAAAAAAAAAAAAAAAAAAAAAAAAAAAAAAAAAAAAAAAAAAAAAAAAAAAAAAAAAAAAAAAAAAAAAAAAAAAAAAAAAAAAAAAAAAAAAAAAAAAAAAAAAAAAAAAAAAAAAAAAAAAAAAAAAAAAAAAAAAAAAAAAAAAAAAAAAAAAAAAAAAAAAAAAAAAAAAAAAAAAAEBAQFfezerjLZQ/4y2UP+MtlD/jLZQ/4y2UP+MtlD/jLZQ/4y2UP+MtlD/jLZQ/4y2UP+MtlD/jLZQ/4y2UP+MtlD/jLZQ/4y2UP+MtlD/jLZQ/4y2UP+MtlD/jLZQ/4y2UP+MtlD/d5lF1ThEIlwFBwIHAAAAAAAAAAAAAAAAAAAAAAAAAAAAAAAAAAAAAAAAAAAAAAAAAAAAAAAAAAAAAAAAAAAAAAAAAAAAAAAAAAAAAAAAAAAAAAAAAAAAAAAAAAAAAAAAAAAAAAAAAAAAAAAAAAAAAAAAAAAAAAAAAAAAAAAAAAAAAAAAAAAAAAAAAAAAAAAAAAAAAAAAAAAAAAAAM0EeWou0UP2MtlD/jLZQ/4y2UP+MtlD/jLZQ/4y2UP+MtlD/jLZQ/4y2UP+MtlD/jLZQ/4y2UP+MtlD/jLZQ/4y2UP+MtlD/jLZQ/4y2UP+MtlD/jLZQ/4y2UP+MtlD/jLZQ/4y2UP+KtE/8c5JByCApEzgBAQEBAAAAAAAAAAAAAAAAAAAAAAAAAAAAAAAAAAAAAAAAAAAAAAAAAAAAAAAAAAAAAAAAAAAAAAAAAAAAAAAAAAAAAAAAAAAAAAAAAAAAAAAAAAAAAAAAAAAAAAAAAAAAAAAAAAAAAAAAAAAAAAAAAAAAAAAAAAAAAAAAAAAAAAAAAAAAAAAAAAAAAAgLBQ59okfjjLZQ/4y2UP+MtlD/jLZQ/4y2UP+MtlD/jLZQ/4y2UP+MtlD/jLZQ/4y2UP+MtlD/jLZQ/4y2UP+MtlD/jLZQ/4y2UP+MtlD/jLZQ/4y2UP+MtlD/jLZQ/4y2UP+MtlD/jLZQ/4y2UP+FrUzzS2ErhgYJBAwAAAAAAAAAAAAAAAAAAAAAAAAAAAAAAAAAAAAAAAAAAAAAAAAAAAAAAAAAAAAAAAAAAAAAAAAAAAAAAAAAAAAAAAAAAAAAAAAAAAAAAAAAAAAAAAAAAAAAAAAAAAAAAAACAgECCAsFDgICAQIAAAAAAAAAAAAAAAAAAAAAAAAAAAAAAAAAAAAATGQtiYy2UP+MtlD/jLZQ/4y2UP+MtlD/jLZQ/4y2UP+Jsk/6gKZJ6XicRdt5nkbdfKBH4YWtTPKMtlD/jLZQ/4y2UP+MtlD/jLZQ/4y2UP+MtlD/jLZQ/4y2UP+MtlD/jLZQ/4y2UP+MtlD/jLZQ/4y2UP9sjD7EExYLHwAAAAAAAAAAAAAAAAAAAAAAAAAAAAAAAAAAAAAAAAAAAAAAAAAAAAAAAAAAAAAAAAAAAAAAAAAAAAAAAAAAAAAAAAAAAAAAAAAAAAAAAAAAAAAAAAICAQM2RB9fd5tF2YSrS/B2mUTWMUAdWAICAQIAAAAAAAAAAAAAAAAAAAAAAAAAABgfDiuFrUzzjLZQ/4myTvl8nEbUU2owlTpRIGIbIxAwCg4GEggKBQ0GCAQKBggECgcIBAsJDAYPExkMISg0F0hHWymAaIY6u4OqS+6MtlD/jLZQ/4y2UP+MtlD/jLZQ/4y2UP+MtlD/jLZQ/4y2UP+MtlD/jLZQ/3yhR+AlLxVBAAAAAAAAAAAAAAAAAAAAAAAAAAAAAAAAAAAAAAAAAAAAAAAAAAAAAAAAAAAAAAAAAAAAAAAAAAAAAAAAAAAAAAAAAAAAAAAAAAAAAAAAAAA0RB5eibJP+oy2UP+MtlD/jLZQ/4myTvkvPBtTAAAAAAAAAAAAAAAAAAAAAAAAAAACAgECQkw0XEpbKn4mLB02CAkECgAAAAAAAAAAAAAAAAAAAAAAAAAAAAAAAAAAAAAAAAAAAAAAAAAAAAAAAAAAAAAAAAEBAQETGAsgOEkhZG+QQMmKs0/7jLZQ/4y2UP+MtlD/jLZQ/4y2UP+MtlD/jLZQ/4y2UP+MtlD/gqhK7Cg0F0gAAAAAAAAAAAAAAAAAAAAAAAAAAAAAAAAAAAAAAAAAAAAAAAAAAAAAAAAAAAAAAAAAAAAAAAAAAAAAAAAAAAAAAAAAAAAAAAAEBAMEeJpJ1Yy2UP+MtlD/jLZQ/4y2UP+MtlD/c5NIygICAgMAAAAAAAAAAAAAAAAAAAAAAAAAAAAAAAAAAAAAAAAAAAAAAAAAAAAAAAAAAAAAAAAAAAAAAAAAAAAAAAAAAAAAAAAAAAAAAAAAAAAAAAAAAAAAAAAAAAAAAAAAAAAAAAACAgIDJzMXRWiGPLyMtlD/jLZQ/4y2UP+MtlD/jLZQ/4y2UP+MtlD/jLZQ/4y2UP+FrUzzLjggSQAAAAAAAAAAAAAAAAAAAAAAAAAAAAAAAAAAAAAAAAAAAAAAAAAAAAAAAAAAAAAAAAAAAAAAAAAAAAAAAAAAAAAAAAAADRAIFoKoSuyMtlD/jLZQ/4y2UP+MtlD/jLZQ/32jSOQKDQYSAAAAAAAAAAAAAAAAAAAAAAAAAAAAAAAAAAAAAAAAAAAAAAAAAAAAAAAAAAAAAAAAAAAAAAAAAAAAAAAAAAAAAAAAAAAAAAAAAAAAAAAAAAAAAAAAAAAAAAAAAAAAAAAAAAAAAAAAAAADBAIFLz0aVHmeRt2MtlD/jLZQ/4y2UP+MtlD/jLZQ/4y2UP+MtlD/jLZQ/4KpS+0hKhM6AAAAAAAAAAAAAAAAAAAAAAAAAAAAAAAAAAAAAAAAAAAAAAAAAAAAAAAAAAAAAAAAAAAAAAAAAAAAAAAAAAAAAAYHBQh+oUzejLZQ/4y2UP+MtlD/jLZQ/4y2UP91l0PUBAUCBgAAAAAAAAAAAAAAAAAAAAAAAAAAAAAAAAAAAAAAAAAAAAAAAAAAAAAAAAAAAAAAAAAAAAAAAAAAAAAAAAAAAAAAAAAAAAAAAAAAAAAAAAAAAAAAAAAAAAAAAAAAAAAAAAAAAAAAAAAAAAAAAAAAAAAQFQocYHk4qIq0T/yMtlD/jLZQ/4y2UP+MtlD/jLZQ/4y2UP+MtlD/eZ5G3BQaDCIAAAAAAAAAAAAAAAAAAAAAAAAAAAAAAAAAAAAAAAAAAAAAAAAAAAAAAAAAAAAAAAAAAAAAAAAAAAAAAAAAAAAARloofYy2UP+MtlD/jLZQ/4y2UP+MtlD/P1ElcAAAAAAAAAAAAAAAAAAAAAAAAAAAAAAAAAAAAAAAAAAAAAAAAAAAAAAAAAAAAAAAAAAAAAAAAAAAAAAAAAAAAAAAAAAAAAAAAAAAAAAAAAAAAAAAAAAAAAAAAAAAAAAAAAAAAAAAAAAAAAAAAAAAAAAAAAAAAAAAAAMDAgRCViZ3irRP/Iy2UP+MtlD/jLZQ/4y2UP+MtlD/jLZQ/4y2UP9qiz3DAwQCBQAAAAAAAAAAAAAAAAAAAAAAAAAAAAAAAAAAAAAAAAAAAAAAAAAAAAAAAAAAAAAAAAAAAAAAAAAAAAAAAAUGAwhOZC2KhKtL8Iy2UP+DqkvuSV0rggQFAgYAAAAAAAAAAAAAAAAAAAAAAAAAAAAAAAAAAAAAAAAAAAAAAAAAAAAAAAAAAAAAAAAAAAAAAAAAAAAAAAAAAAAAAAAAAAAAAAAAAAAAAAAAAAAAAAAAAAAAAAAAAAAAAAAAAAAAAAAAAAAAAAAAAAAAAAAAAAAAAAAAAAAAAQEBATRCHluFrUzzjLZQ/4y2UP+MtlD/jLZQ/4y2UP+MtlD/jLZQ/0VZKHwBAQEBAAAAAAAAAAAAAAAAAAAAAAAAAAAAAAAAAAAAAAAAAAAAAAAAAAAAAAAAAAAAAAAAAAAAAAAAAAAAAAAAAQEBARAUChwbIxAwERQKGwEBAQEAAAAAAAAAAAAAAAAAAAAAAAAAAAAAAAAAAAAAAAAAAAAAAAAAAAAAAAAAAAAAAAAAAAAAAAAAAAAAAAAAAAAAAAAAAAAAAAAAAAAAAAAAAAAAAAAAAAAAAAAAAAAAAAAAAAAAAAAAAAAAAAAAAAAAAAAAAAAAAAAAAAAAAAAAAAAAAAABAQEBM0MeXYiwTveMtlD/jLZQ/4y2UP+MtlD/jLZQ/4y2UP+FrUzyIS0SOAAAAAAAAAAAAAAAAAAAAAAAAAAAAAAAAAAAAAAAAAAAAAAAAAAAAAAAAAAAAAAAAAAAAAAAAAAAAAAAAAAAAAAAAAAAAAAAAAAAAAAAAAAAAAAAAAAAAAAAAAAAAAAAAAAAAAAAAAAAAAAAAAAAAAAAAAAAAAAAAAAAAAAAAAAAAAAAAAAAAAAAAAAAAAAAAAAAAAAAAAAAAAAAAAAAAAAAAAAAAAAAAAAAAAAAAAAAAAAAAAAAAAAAAAAAAAAAAAAAAAAAAAAAAAAAAAAAAAAAAAAAAAAAAAEBAQE+UCRvi7VQ/oy2UP+MtlD/jLZQ/4y2UP+MtlD/jLZQ/2mHPLwDAwIEAAAAAAAAAAAAAAAAAAAAAAAAAAAAAAAAAAAAAAAAAAAAAAAAAAAAAAAAAAAAAAAAAAAAAAAAAAAAAAAAAAAAAAAAAAAAAAAAAAAAAAAAAAAAAAAAAAAAAAAAAAAAAAAAAAAAAAAAAAAAAAAAAAAAAAAAAAAAAAAAAAAAAAAAAAAAAAAAAAAAAAAAAAAAAAAAAAAAAAAAAAAAAAAAAAAAAAAAAAAAAAAAAAAAAAAAAAAAAAAAAAAAAAAAAAAAAAAAAAAAAAAAAAAAAAAAAAAAAAAAAAAAAAAAAAAAAFdwMp2MtlD/jLZQ/4y2UP+MtlD/jLZQ/4y2UP+KtE/8NEAhVgAAAAAAAAAAAAAAAAAAAAAAAAAAAAAAAAAAAAAAAAAAAAAAAAAAAAAAAAAAAAAAAAAAAAAAAAAAAAAAAAAAAAAAAAAAAAAAAAAAAAAAAAAAAAAAAAAAAAAAAAAAAAAAAAAAAAAAAAAAAAAAAAAAAAAAAAAAAAAAAAAAAAAAAAAAAAAAAAAAAAAAAAAAAAAAAAAAAAAAAAAAAAAAAAAAAAAAAAAAAAAAAAAAAAAAAAAAAAAAAAAAAAAAAAAAAAAAAAAAAAAAAAAAAAAAAAAAAAAAAAAAAAAAAAAAAAAOEAgSeJhE0Yy2UP+MtlD/jLZQ/4y2UP+MtlD/jLZQ/3ibStUEBAIFAAAAAAAAAAAAAAAAAAAAAAAAAAAAAAAAAAAAAAAAAAAAAAAAAAAAAAAAAAAAAAAAAAAAAAAAAAAAAAAAAAAAAAAAAAAAAAAAAAAAAAAAAAAAAAAAAAAAAAAAAAAAAAAAAAAAAAAAAAAAAAAAAAAAAAAAAAAAAAAAAAAAAAAAAAAAAAAAAAAAAAAAAAAAAAAAAAAAAAAAAAAAAAAAAAAAAAAAAAAAAAAAAAAAAAAAAAAAAAAAAAAAAAAAAAAAAAAAAAAAAAAAAAAAAAAAAAAAAAAAAAAAAAAAAAAAACkzGEaJsk/6jLZQ/4y2UP+MtlD/jLZQ/4y2UP+MtlD/KjcZTAAAAAAAAAAAAAAAAAAAAAAAAAAAAAAAAAAAAAAAAAAAAAAAAAAAAAAAAAAAAAAAAAAAAAAAAAAAAAAAAAAAAAAAAAAAAAAAAAAAAAAAAAAAAAAAAAAAAAAAAAAAAAAAAAAAAAAAAAAAAAAAAAAAAAAAAAAAAAAAAAAAAAAAAAAAAAAAAAAAAAAAAAAAAAAAAAAAAAAAAAAAAAAAAAAAAAAAAAAAAAAAAAAAAAAAAAAAAAAAAAAAAAAAAAAAAAAAAAAAAAAAAAAAAAAAAAAAAAAAAAAAAAAAAAAAAAACAgECWXMzoYy2UP+MtlD/jLZQ/4y2UP+MtlD/jLZQ/2aEO7gDAwIEAAAAAAAAAAAAAAAAAAAAAAAAAAAAAAAAAAAAAAAAAAAAAAAAAAAAAAAAAAAAAAAAAAAAAAAAAAAAAAAAAAAAAAAAAAAAAAAAAAAAAAAAAAAAAAAAAAAAAAAAAAAAAAAAAAAAAAAAAAAAAAAAAAAAAAAAAAAAAAAAAAAAAAAAAAAAAAAAAAAAAAAAAAAAAAAAAAAAAAAAAAAAAAAAAAAAAAAAAAAAAAAAAAAAAAAAAAAAAAAAAAAAAAAAAAAAAAAAAAAAAAAAAAAAAAAAAAAAAAAAAAAAAAAAAAAAABcdDSiIsE73jLZQ/4y2UP+MtlD/jLZQ/4y2UP+IsU74GiEOLgAAAAAAAAAAAAAAAAAAAAATGQsiMD4bVjA+HFcwPhxXMD4cVzA+HFcwPhxXMD4cVzA+HFcwPhxXMD4cVzA+HFcwPhxXMD4cVzA+HFcwPhxXMD4cVzA+HFcwPhxXMD4cVzA+HFcwPhxXMD4cVzA+HFcwPhxXMD4cVzA+HFcwPhxXMD4cVzA+HFcwPhxXMD4cVzA+HFcwPhxXMD4cVzA+HFccJBIyAQEBAQAAAAAAAAAAAAAAAAAAAAAAAAAAAAAAAAAAAAAAAAAAAAAAAAAAAAAAAAAAAAAAAAAAAAAAAAAAWnYzpIy2UP+MtlD/jLZQ/4y2UP+MtlD/jLZQ/1BhLIAAAAAAAAAAAAAAAAAAAAAAfKFH4oy2UP+MtlD/jLZQ/4y2UP+MtlD/jLZQ/4y2UP+MtlD/jLZQ/4y2UP+MtlD/jLZQ/4y2UP+MtlD/jLZQ/4y2UP+MtlD/jLZQ/4y2UP+MtlD/jLZQ/4y2UP+MtlD/jLZQ/4y2UP+MtlD/jLZQ/4y2UP+MtlD/jLZQ/4y2UP+MtlD/jLZQ/4y2UP+MtlD/iLFO+BIXCyAAAAAAAAAAAAAAAAAAAAAAAAAAAAAAAAAAAAAAAAAAAAAAAAAAAAAAAAAAAAAAAAAAAAAAAAAAACUuFUCJsk/6jLZQ/4y2UP+MtlD/jLZQ/4y2UP9ylULRAgIBAwAAAAAAAAAAAAAAAIy2UP+MtlD/jLZQ/4y2UP+MtlD/jLZQ/4y2UP+MtlD/jLZQ/4y2UP+MtlD/jLZQ/4y2UP+MtlD/jLZQ/4y2UP+MtlD/jLZQ/4y2UP+MtlD/jLZQ/4y2UP+MtlD/jLZQ/4y2UP+MtlD/jLZQ/4y2UP+MtlD/jLZQ/4y2UP+MtlD/jLZQ/4y2UP+MtlD/jLZQ/4y2UP8eJxE2AAAAAAAAAAAAAAAAAAAAAAAAAAAAAAAAAAAAAAAAAAAAAAAAAAAAAAAAAAAAAAAAAAAAAAAAAAAEBQIHcpRB0Iy2UP+MtlD/jLZQ/4y2UP+MtlD/ha1M8xgdDSkAAAAAAAAAAAAAAACMtlD/jLZQ/4y2UP+MtlD/jLZQ/4y2UP+MtlD/jLZQ/4y2UP+MtlD/jLZQ/4y2UP+MtlD/jLZQ/4y2UP+MtlD/jLZQ/4y2UP+MtlD/jLZQ/4y2UP+MtlD/jLZQ/4y2UP+MtlD/jLZQ/4y2UP+MtlD/jLZQ/4y2UP+MtlD/jLZQ/4y2UP+MtlD/jLZQ/4y2UP+MtlD/HicRNgAAAAAAAAAAAAAAAAAAAAAAAAAAAAAAAAAAAAAAAAAAAAAAAAAAAAAAAAAAAAAAAAAAAAAAAAAAAAAAAFVoL4iMtlD/jLZQ/4y2UP+MtlD/jLZQ/4y2UP8zQx9dAAAAAAAAAAAAAAAAjLZQ/4y2UP+MtlD/jLZQ/4y2UP+MtlD/jLZQ/4y2UP+MtlD/jLZQ/4y2UP+MtlD/jLZQ/4y2UP+MtlD/jLZQ/4y2UP+MtlD/jLZQ/4y2UP+MtlD/jLZQ/4y2UP+MtlD/jLZQ/4y2UP+MtlD/jLZQ/4y2UP+MtlD/jLZQ/4y2UP+MtlD/jLZQ/4y2UP+MtlD/jLZQ/x4nETYAAAAAAAAAAAAAAAAAAAAAAAAAAAAAAAAAAAAAAAAAAAAAAAAAAAAAAAAAAAAAAAAAAAAAAAAAAAAAAAAjLhU/jLZQ/4y2UP+MtlD/jLZQ/4y2UP+MtlD/U2swlQAAAAAAAAAAAAAAAIy2UP+MtlD/jLZQ/4y2UP+MtlD/jLZQ/4y2UP+MtlD/jLZQ/4y2UP+MtlD/jLZQ/4y2UP+MtlD/jLZQ/4y2UP+MtlD/jLZQ/4y2UP+MtlD/jLZQ/4y2UP+MtlD/jLZQ/4y2UP+MtlD/jLZQ/4y2UP+MtlD/jLZQ/4y2UP+MtlD/jLZQ/4y2UP+MtlD/jLZQ/4y2UP8eJxE2AAAAAAAAAAAAAAAAAAAAAAAAAAAAAAAAAAAAAAAAAAAAAAAAAAAAAAAAAAAAAAAAAAAAAAAAAAAAAAAADA8HFICmSuqMtlD/jLZQ/4y2UP+MtlD/jLZQ/2yNPsUAAAAAAAAAAAAAAACCqErsjLZQ/4y2UP+MtlD/jLZQ/4y2UP+MtlD/jLZQ/4y2UP+MtlD/jLZQ/4y2UP+MtlD/jLZQ/4y2UP+MtlD/jLZQ/4y2UP+MtlD/jLZQ/4y2UP+MtlD/jLZQ/4y2UP+MtlD/jLZQ/4y2UP+MtlD/jLZQ/4y2UP+MtlD/jLZQ/4y2UP+MtlD/jLZQ/4y2UP+Ks0/7Fh0NJwAAAAAAAAAAAAAAAAAAAAAAAAAAAAAAAAAAAAAAAAAAAAAAAAAAAAAAAAAAAAAAAAAAAAAAAAAAAAAAAAQFAgZwkUDKjLZQ/4y2UP+MtlD/jLZQ/4y2UP+BqErrAAAAAAAAAAAAAAAAIy0VPkVaKH1GWyh/Rlsof0ZbKH9GWyh/Rlsof0ZbKH9GWyh/Rlsof0ZbKH9GWyh/Rlsof0ZbKH9GWyh/Rlsof0ZbKH9GWyh/Rlsof0ZbKH9GWyh/Rlsof0ZbKH9GWyh/Rlsof0ZbKH9GWyh/Rlsof0ZbKH9GWyh/Rlsof0ZbKH9GWyh/Rlsof0ZbKH9FWyh+MD4bVgICAQIAAAAAAAAAAAAAAAAAAAAAAAAAAAAAAAAAAAAAAAAAAAAAAAAAAAAAAAAAAAAAAAAAAAAAAAAAAAAAAAAAAAAAWHIyoIy2UP+MtlD/jLZQ/4y2UP+MtlD/eJ1G2wAAAAAAAAAAAAAAAAAAAAAAAAAAAAAAAAAAAAAAAAAAAAAAAAAAAAAAAAAAAAAAAAAAAAAAAAAAAAAAAAAAAAAAAAAAAAAAAAAAAAAAAAAAAAAAAAAAAAAAAAAAAAAAAAAAAAAAAAAAAAAAAAAAAAAAAAAAAAAAAAAAAAAAAAAAAAAAAAAAAAAAAAAAAAAAAAAAAAAAAAAAAAAAAAAAAAAAAAAAAAAAAAAAAAAAAAAAAAAAAAAAAAAAAAAAAAAAAAAAAAAAAAAAAAAAAAAAAAAAAAAAAAAAAAAAAAAAAAAAAAAAABkgDyxeejWrV3Iyn0pgKoU8TCNpKzgZTg0RCBcAAAAAAAAAAAAAAAAAAAAAAAAAAAAAAAAAAAAAAAAAAAAAAAAAAAAAAAAAAAAAAAAAAAAAAAAAAAAAAAAAAAAAAAAAAAAAAAAAAAAAAAAAAAAAAAAAAAAAAAAAAAAAAAAAAAAAAAAAAAAAAAAAAAAAAAAAAAAAAAAAAAAAAAAAAAAAAAAAAAAAAAAAAAAAAAAAAAAAAAAAAAAAAAAAAAAAAAAAAAAAAAAAAAAAAAAAAAAAAAAAAAAAAAAAAAAAAAAAAAAAAAAAAAAAAAAAAAAAAAAAAAAAAAAAAAAAAAAAAAAAAAAAAAAAAAAAAAAAAAAAAAAAAAAAAAAAAAAAAAAAAAAAAAAAAAAAAAAAAAAAAAAAAAAAAAAAAAAAAAAAAAAAAAAAAAAAAAAAAAAAAAAAAAAAAAAAAAAAAAAAAAAAAAAAAAAAAAAAAAAAAAAAAAAAAAAAAAAAAAAAAAAAAAAAAAAAAAAAAAAAAAAAAAAAAAAAAAAAAAAAAAAAAAAAAAAAAAAAAAAAAAAAAAAAAAAAAAAAAAAAAAAAAAAAAAAAAAAAAAAAAAAAAAAAAAAAAAAAAAAAAAAAAAAAAAAAAAAAAAAAAAAAAAAAAAAAAAAAAAAAAAAAAAAAAAAAAAAAAAAAAAAAAAAAAAAAAAAAAAAAAAAAAAAAAAAAAAAAAAAAAAAAAAAAAAAAAAAAAAAAAAAAAAAAAAAAAAAAAAAAAAAAAAAAAAAAAAAAAAAAAAAAAAAAAAAAAAAAAAAAAAAAAAAAAAAAAAAAAAAAAAAAAAAAAAAAAAAAAAAAAAAAAAAAAAAAAAAAAAAAAAAAAAAAAAAAAAAAAAAAAAAAAAAAAAAAAAAAAAAAAAAAAAAAAAAAAAAAAAAAAAAAAAAAAAAAAAAAAAAAAAAAAAAAAAAAAAAAAAAAAAAAAAAAAAAAAAAAAAAAAAAAAAAAAAAAAAAAAAAAAAAAAAAAAAAAAAAAAAAAAAAAAAAAAAAAAAAAAAAAAAAAAAAAAAAAAAAAAAAAAAAAAAAAAAAAAAAAAAAAAAAAAAAAAAAAAAAAAAAAAAAAAAAAAAAAAAAAAAAAAAAAAAAAAAAAAAAAAAAAAAAAAAAAAAAAAAAAAAAAAAAAAAAAAAAAAAAAAAAAAAAAAAAAAAAAAAAAAAAAAAAAAAAAAAAAAAAAAAAAAAAAAAAAAAAAAAAAAAAAAAAAAAAAAAAAAAAAAAAAAAAAAAAAAAAAAAAAAAAAAAAAAAAAAAAAAAAAAAAAAAAAAAAAAAAAAAAAAAAAAAAAAAAAAAAAAAAAAAAAAAAAAAAAAAAAAAAAAAAAAAAAAAAAAAAAAAAAAAAAAAAAAAAAAAAAAAAAAAAAAAAAAAAAAAAAAAAAAAAAAAAAAAAAAAAAAAAAAAAAAAAAAAAAAAAAAAAAAAAAAAAAAAAAAAAAAAAAAAAAAAAAAAAAAAAAAAAAAAAAAAAAAAAAAAAAAAAAAAAAAAAAAAAAAAAAAAAAAAAAAAAAAAAAAAAAAAAAAAAAAAAAAAAAAAAAAAAAAAAAAAAAAAAAAAAAAAAAAAAAAAAAAAAAAAAAAAAAAAAAAAAAAAAAAAAAAAAAAAAAAAAAAAAAAAAAAAAAAAAAAAAAAAAAAAAAAAAAAAAAAAAAAAAAAAAAAAAAAAAAAAAAAAAAAAAAAAAAAAAAAAAAAAAAAAAAAAAAAAAAAAAAAAAAAAAAAAAAAAAAAAAAAAAAAAAAAAAAAAAAAAAAAAAAAAAAAAAAAAAAAAAAAAAAAAAAAAAAAAAAAAAAAAAAAAAAAAAAAAAAAAAAAAAAAAAAAAAAAAAAAAAAAAAAAAAAAAAAAAAAAAAAAAAAAAAAAAAAAAAAAAAAAAAAAAAAAAAAAAAAAAAAAAAAAAAAAAAAAAAAAAAAAAAAAAAAAAAAAAAAAAAAAAAAAAAAAAAAAAAAAAAAAAAAAAAAAAAAAAAAAAAAAAAAAAAAAAAAAAAAAAAAAAAAAAAAAAAAAAAAAAAAAAAAAAAAAAAAAAAAAAAAAAAAAAAAAAAAAAAAAAAAAAAAAAAAAAAAAAAAAAAAAAAAAAAAAAAAAAAAAAAAAAAAAAAAAAAAAAAAAAAAAAAAAAAAAAAAAAAAAAAAAAAAAAAAAAAAAAAAAAAAAAAAAAAAAAAAAAAAAAAAAAAAAAAAAAAAAAAAAAAAAAAAAAAAAAAAAAAAAAAAAAAAAAAAAAAAAAAAAAAAAAAAAAAAAAAAAAAAAAAAAAAAAAAAAAAAAAAAAAAAAAAAAAAAAAAAAAAAAAAAAAAAAAAAAAAAAAAAAAAAAAAAAAAAAAAAAAAAAAAAAAAAAAAAAAAAAAAAAAAAAAAAAAAAAAAAAAAAAAAAAAAAAAAAAAAAAAAAAAAAAAAAAAAAAAAAAAAAAAAAAAAAAAEBAQEFBQIGExYMHjA/HVdEWCh6DRIIGAAAAAAAAAAAAAAAAAAAAAAAAAAAAAAAAAAAAAAAAAAAAAAAAAAAAAAAAAAAAAAAAAAAAAAAAAAAAAAAAAAAAAAAAAAAFhwNJyk1GEopNRhKKTUYSik1GEopNRhKKTUYSik1GEopNRhKKTUYSik1GEopNRhKKTUYSik1GEopNRhKKTUYSik1GEopNRhKKTUYSik1GEopNRhKKTUYSik1GEopNRhKKTUYSik1GEopNRhKKTUYSik1GEopNRhKKTUYSik1GEopNRhKKTUYSik1GEopNBdJDxMJGgAAAAAAAAAAAAAAACMuFT9bdjald5tF2Yu1UP6MtlD/jLZQ/1ZuMpsAAAAAAAAAAAAAAAAAAAAAAAAAAAAAAAAAAAAAAAAAAAAAAAAAAAAAAAAAAAAAAAAAAAAAAAAAAAAAAAAAAAAADxMJGoWtTPOMtlD/jLZQ/4y2UP+MtlD/jLZQ/4y2UP+MtlD/jLZQ/4y2UP+MtlD/jLZQ/4y2UP+MtlD/jLZQ/4y2UP+MtlD/jLZQ/4y2UP+MtlD/jLZQ/4y2UP+MtlD/jLZQ/4y2UP+MtlD/jLZQ/4y2UP+MtlD/jLZQ/4y2UP+MtlD/jLZQ/4y2UP+MtlD/jLZQ/3icRdoAAAAAAAAAAAAAAAB3m0TYjLZQ/4y2UP+MtlD/jLZQ/4y2UP96nkbdCAsFDgAAAAAAAAAAAAAAAAAAAAAAAAAAAAAAAAAAAAAAAAAAAAAAAAAAAAAAAAAAAAAAAAAAAAAAAAAAAAAAABsjEDGMtlD/jLZQ/4y2UP+MtlD/jLZQ/4y2UP+MtlD/jLZQ/4y2UP+MtlD/jLZQ/4y2UP+MtlD/jLZQ/4y2UP+MtlD/jLZQ/4y2UP+MtlD/jLZQ/4y2UP+MtlD/jLZQ/4y2UP+MtlD/jLZQ/4y2UP+MtlD/jLZQ/4y2UP+MtlD/jLZQ/4y2UP+MtlD/jLZQ/4y2UP+LtFD9AAAAAAAAAAAAAAAAZoU8uoy2UP+MtlD/jLZQ/4y2UP+MtlD/i7VQ/iMtFD4AAAAAAAAAAAAAAAAAAAAAAAAAAAAAAAAAAAAAAAAAAAAAAAAAAAAAAAAAAAAAAAAAAAAAAAAAAAAAAAAbIxAxjLZQ/4y2UP+MtlD/jLZQ/4y2UP+MtlD/jLZQ/4y2UP+MtlD/jLZQ/4y2UP+MtlD/jLZQ/4y2UP+MtlD/jLZQ/4y2UP+MtlD/jLZQ/4y2UP+MtlD/jLZQ/4y2UP+MtlD/jLZQ/4y2UP+MtlD/jLZQ/4y2UP+MtlD/jLZQ/4y2UP+MtlD/jLZQ/4y2UP+MtlD/i7RQ/QAAAAAAAAAAAAAAAD5QJG+MtlD/jLZQ/4y2UP+MtlD/jLZQ/4y2UP9XcDSdAAAAAAAAAAAAAAAAAAAAAAAAAAAAAAAAAAAAAAAAAAAAAAAAAAAAAAAAAAAAAAAAAAAAAAAAAAAAAAAAGyMQMYy2UP+MtlD/jLZQ/4y2UP+MtlD/jLZQ/4y2UP+MtlD/jLZQ/4y2UP+MtlD/jLZQ/4y2UP+MtlD/jLZQ/4y2UP+MtlD/jLZQ/4y2UP+MtlD/jLZQ/4y2UP+MtlD/jLZQ/4y2UP+MtlD/jLZQ/4y2UP+MtlD/jLZQ/4y2UP+MtlD/jLZQ/4y2UP+MtlD/jLZQ/4u0UP0AAAAAAAAAAAAAAAAcIhUrhq5N9Iy2UP+MtlD/jLZQ/4y2UP+MtlD/gahL6xIWCx8AAAAAAAAAAAAAAAAAAAAAAAAAAAAAAAAAAAAAAAAAAAAAAAAAAAAAAAAAAAAAAAAAAAAAAAAAABsjEDGMtlD/jLZQ/4y2UP+MtlD/jLZQ/4y2UP+MtlD/jLZQ/4y2UP+MtlD/jLZQ/4y2UP+MtlD/jLZQ/4y2UP+MtlD/jLZQ/4y2UP+MtlD/jLZQ/4y2UP+MtlD/jLZQ/4y2UP+MtlD/jLZQ/4y2UP+MtlD/jLZQ/4y2UP+MtlD/jLZQ/4y2UP+MtlD/jLZQ/4y2UP+LtFD9AAAAAAAAAAAAAAAAAgIBAmmKPcCMtlD/jLZQ/4y2UP+MtlD/jLZQ/4y2UP9IXSqCAAAAAAAAAAAAAAAAAAAAAAAAAAAAAAAAAAAAAAAAAAAAAAAAAAAAAAAAAAAAAAAAAAAAAAAAAAAVHA0mirRP/Iy2UP+MtlD/jLZQ/4y2UP+MtlD/jLZQ/4y2UP+MtlD/jLZQ/4y2UP+MtlD/jLZQ/4y2UP+MtlD/jLZQ/4y2UP+MtlD/jLZQ/4y2UP+MtlD/jLZQ/4y2UP+MtlD/jLZQ/4y2UP+MtlD/jLZQ/4y2UP+MtlD/jLZQ/4y2UP+MtlD/jLZQ/4y2UP+MtlD/g6pL7gAAAAAAAAAAAAAAAAAAAAA1Rh9hjLZQ/4y2UP+MtlD/jLZQ/4y2UP+MtlD/g6pL7w8TCRoAAAAAAAAAAAAAAAAAAAAAAAAAAAAAAAAAAAAAAAAAAAAAAAAAAAAAAAAAAAAAAAAAAAAAAgIBAj9MI2JOZS2NTmUtjU5lLY1OZS2NTmUtjU5lLY1OZS2NTmUtjU5lLY1OZS2NTmUtjU5lLY1OZS2NTmUtjU5lLY1OZS2NTmUtjU5lLY1OZS2NTmUtjU5lLY1OZS2NTmUtjU5lLY1OZS2NTmUtjU5lLY1OZS2NTmUtjU5lLY1OZS2NTmUtjU5lLY1OZS2NTWQsjCg0F0gAAAAAAAAAAAAAAAAAAAAACw4IEnueSN6MtlD/jLZQ/4y2UP+MtlD/jLZQ/4y2UP9ZdTKeAgIBAwAAAAAAAAAAAAAAAAAAAAAAAAAAAAAAAAAAAAAAAAAAAAAAAAAAAAAAAAAAAAAAAAAAAAAAAAAAAAAAAAAAAAAAAAAAAAAAAAAAAAAAAAAAAAAAAAAAAAAAAAAAAAAAAAAAAAAAAAAAAAAAAAAAAAAAAAAAAAAAAAAAAAAAAAAAAAAAAAAAAAAAAAAAAAAAAAAAAAAAAAAAAAAAAAAAAAAAAAAAAAAAAAAAAAAAAAAAAAAAAAAAAAAAAAAAAAAAAAAAAAAAAAAAAAAAAAAAAAAAAAAAAAAAAAAAAABDVSd2jLZQ/4y2UP+MtlD/jLZQ/4y2UP+MtlD/ibJP+i06GU4AAAAAAAAAAAAAAAAAAAAAAAAAAAAAAAAAAAAAAAAAAAAAAAAAAAAAAAAAAAAAAAAAAAAAAAAAAAAAAAAAAAAAAAAAAAAAAAAAAAAAAAAAAAAAAAAAAAAAAAAAAAAAAAAAAAAAAAAAAAAAAAAAAAAAAAAAAAAAAAAAAAAAAAAAAAAAAAAAAAAAAAAAAAAAAAAAAAAAAAAAAAAAAAAAAAAAAAAAAAAAAAAAAAAAAAAAAAAAAAAAAAAAAAAAAAAAAAAAAAAAAAAAAAAAAAAAAAAAAAAAAAAAAAAAAAAACQsGD3+lSeiMtlD/jLZQ/4y2UP+MtlD/jLZQ/4y2UP95nkfeERYKHgAAAAAAAAAAAAAAAAAAAAAAAAAAAAAAAAAAAAAAAAAAAAAAAAAAAAAAAAAAAAAAAAAAAAAAAAAAAAAAAAAAAAAAAAAAAAAAAAAAAAAAAAAAAAAAAAAAAAAAAAAAAAAAAAAAAAAAAAAAAAAAAAAAAAAAAAAAAAAAAAAAAAAAAAAAAAAAAAAAAAAAAAAAAAAAAAAAAAAAAAAAAAAAAAAAAAAAAAAAAAAAAAAAAAAAAAAAAAAAAAAAAAAAAAAAAAAAAAAAAAAAAAAAAAAAAAAAAAAAAAAAAAAAAAAAAAA4SyBjirRP/Iy2UP+MtlD/jLZQ/4y2UP+MtlD/jLZQ/26PQMUHCAQLAAAAAAAAAAAAAAAAAAAAAAAAAAAAAAAAAAAAAAAAAAAAAAAAAAAAAAAAAAAAAAAAAAAAAAAAAAAAAAAAAAAAAAAAAAAAAAAAAAAAAAAAAAAAAAAAAAAAAAAAAAAAAAAAAAAAAAAAAAAAAAAAAAAAAAAAAAAAAAAAAAAAAAAAAAAAAAAAAAAAAAAAAAAAAAAAAAAAAAAAAAAAAAAAAAAAAAAAAAAAAAAAAAAAAAAAAAAAAAAAAAAAAAAAAAAAAAAAAAAAAAAAAAAAAAAAAAAAAAAAAAAAAAAABQYDCGyKP8GMtlD/jLZQ/4y2UP+MtlD/jLZQ/4y2UP+MtlD/XXg1qAcIBAsAAAAAAAAAAAAAAAAAAAAAAAAAAAAAAAAAAAAAAAAAAAAAAAAAAAAAAAAAAAAAAAAAAAAAAAAAAAAAAAAAAAAAAAAAAAAAAAAAAAAAAAAAAAAAAAAAAAAAAAAAAAAAAAAAAAAAAAAAAAAAAAAAAAAAAAAAAAAAAAAAAAAAAAAAAAAAAAAAAAAAAAAAAAAAAAAAAAAAAAAAAAAAAAAAAAAAAAAAAAAAAAAAAAAAAAAAAAAAAAAAAAAAAAAAAAAAAAAAAAAAAAAAAAAAAAAAAAAAAAAAAAAAAAAbIxEwg6pL7oy2UP+MtlD/jLZQ/4y2UP+MtlD/jLZQ/4y2UP9adDOiBgkEDAAAAAAAAAAAAAAAAAAAAAAAAAAAAAAAAAAAAAAAAAAAAAAAAAAAAAAAAAAAAAAAAAAAAAAAAAAAAAAAAAAAAAAAAAAAAAAAAAAAAAAAAAAAAAAAAAAAAAAAAAAAAAAAAAAAAAAAAAAAAAAAAAAAAAAAAAAAAAAAAAAAAAAAAAAAAgIBAhMYCyEeJhE1CAsFDgAAAAAAAAAAAAAAAAAAAAAAAAAAAAAAAAAAAAAAAAAAAAAAAAAAAAAAAAAAAAAAAAAAAAAAAAAAAAAAAAAAAAAAAAAAAAAAADpKIWeMtlD/jLZQ/4y2UP+MtlD/jLZQ/4y2UP+MtlD/jLZQ/2aFO7oOEggXAAAAAAAAAAAAAAAAAAAAAAAAAAAAAAAAAAAAAAAAAAAAAAAAAAAAAAAAAAAAAAAAAAAAAAAAAAAAAAAAAAAAAAAAAAAAAAAAAAAAAAAAAAAAAAAAAAAAAAAAAAAAAAAAAAAAAAAAAAAAAAAAAAAAAAAAAAAAAAAADRIIGGN/ObKLtVD+jLZQ/4OqS+45SyFnAQEBAQAAAAAAAAAAAAAAAAAAAAAAAAAAAAAAAAAAAAAAAAAAAAAAAAAAAAAAAAAAAAAAAAAAAAAAAAAAAAAAAAAAAAACAgEDV3Eym4u1UP6MtlD/jLZQ/4y2UP+MtlD/jLZQ/4y2UP+MtlD/d5pF2CYvGzwBAQEBAAAAAAAAAAAAAAAAAAAAAAAAAAAAAAAAAAAAAAAAAAAAAAAAAAAAAAAAAAAAAAAAAAAAAAAAAAAAAAAAAAAAAAAAAAAAAAAAAAAAAAAAAAAAAAAAAAAAAAAAAAAAAAAAAAAAAAAAAAAAAAAAAQEBAWJ/ObGMtlD/jLZQ/4y2UP+MtlD/irNP+yYyF0QAAAAAAAAAAAAAAAAAAAAAAAAAAAAAAAAAAAAAAAAAAAAAAAAAAAAAAAAAAAAAAAAAAAAAAAAAAAAAAAAAAAAAAAAAAAgKBQ1ohzy8jLZQ/4y2UP+MtlD/jLZQ/4y2UP+MtlD/jLZQ/4y2UP+FrUzyTGYrhgYJBAwAAAAAAAAAAAAAAAAAAAAAAAAAAAAAAAAAAAAAAAAAAAAAAAAAAAAAAAAAAAAAAAAAAAAAAAAAAAAAAAAAAAAAAAAAAAAAAAAAAAAAAAAAAAAAAAAAAAAAAAAAAAAAAAAAAAAAAAAAABMYCyGJsk75jLZQ/4y2UP+MtlD/jLZQ/4y2UP9deDWoAAAAAAAAAAAAAAAAAAAAAAAAAAAAAAAAAAAAAAAAAAAAAAAAAAAAAAAAAAAAAAAAAAAAAAAAAAAAAAAAAAAAAAAAAAAAAAAADBAHFWyLPcOMtlD/jLZQ/4y2UP+MtlD/jLZQ/4y2UP+MtlD/jLZQ/4y2UP95nUbbOEghYgYHBAkAAAAAAAAAAAAAAAAAAAAAAAAAAAAAAAAAAAAAAAAAAAAAAAAAAAAAAAAAAAAAAAAAAAAAAAAAAAAAAAAAAAAAAAAAAAAAAAAAAAAAAAAAAAAAAAAAAAAAAAAAAAAAAAAgKhM6irRP/Iy2UP+MtlD/jLZQ/4y2UP+MtlD/bo1AwwEBAQEAAAAAAAAAAAAAAAAAAAAAAAAAAAAAAAAAAAAAAAAAAAAAAAAAAAAAAAAAAAAAAAAAAAAAAAAAAAAAAAAAAAAAAAAAAAAAAAAMDwcUbI0+xIy2UP+MtlD/jLZQ/4y2UP+MtlD/jLZQ/4y2UP+MtlD/jLZQ/4u0UP15nUbcQ1YmeBgeDSYDBAIEAAAAAAAAAAAAAAAAAAAAAAAAAAAAAAAAAAAAAAAAAAAAAAAAAAAAAAAAAAAAAAAAAAAAAA0QCBUbJBEwBggECgAAAAAAAAAAAAAAAAAAAAAAAAAADRAIFoauTfSMtlD/jLZQ/4y2UP+MtlD/jLZQ/1RsMJcAAAAAAAAAAAAAAAAAAAAAAAAAAAAAAAAAAAAAAAAAAAAAAAAAAAAAAAAAAAAAAAAAAAAAAAAAAAAAAAAAAAAAAAAAAAAAAAAAAAAAAAAAAAsNBxJifjiti7VQ/oy2UP+MtlD/jLZQ/4y2UP+MtlD/jLZQ/4y2UP+MtlD/jLZQ/4y2UP+FrUzybY5AxFBiNYE2PC1HFBYLGwgKBQ0FBgMIBAUCBgMEAgUEBQIHBwgECwsOBxIeJhE1PE0ja2yDTKp+o0nkirRP/E1iLIkBAQEBAAAAAAAAAAAAAAAAAAAAAAAAAABNZCyLi7RQ/Yy2UP+MtlD/jLZQ/4OrS+4YIQ4oAAAAAAAAAAAAAAAAAAAAAAAAAAAAAAAAAAAAAAAAAAAAAAAAAAAAAAAAAAAAAAAAAAAAAAAAAAAAAAAAAAAAAAAAAAAAAAAAAAAAAAAAAAAAAAAABgcDCEheKYOKs0/7jLZQ/4y2UP+MtlD/jLZQ/4y2UP+MtlD/jLZQ/4y2UP+MtlD/jLZQ/4y2UP+MtlD/jLZQ/4u1UP6ApknpdZhD1XGSQcxuj0DIcpVC0XugRuCJsk75jLZQ/4y2UP+MtlD/jLZQ/4y2UP+ApknpCAoFDQAAAAAAAAAAAAAAAAAAAAAAAAAABAUCB1BfLHh4nEXbg6pL7miHPLshLRM3AAAAAAAAAAAAAAAAAAAAAAAAAAAAAAAAAAAAAAAAAAAAAAAAAAAAAAAAAAAAAAAAAAAAAAAAAAAAAAAAAAAAAAAAAAAAAAAAAAAAAAAAAAAAAAAAAAAAAAAAAAABAQEBKTUYSHqdRdyMtlD/jLZQ/4y2UP+MtlD/jLZQ/4y2UP+MtlD/jLZQ/4y2UP+MtlD/jLZQ/4y2UP+MtlD/jLZQ/4y2UP+MtlD/jLZQ/4y2UP+MtlD/jLZQ/4y2UP+MtlD/jLZQ/4y2UP+MtlD/jLZQ/zdCJlYAAAAAAAAAAAAAAAAAAAAAAAAAAAAAAAAAAAAABAUCBwUHAwkCAgEDAAAAAAAAAAAAAAAAAAAAAAAAAAAAAAAAAAAAAAAAAAAAAAAAAAAAAAAAAAAAAAAAAAAAAAAAAAAAAAAAAAAAAAAAAAAAAAAAAAAAAAAAAAAAAAAAAAAAAAAAAAAAAAAAAAAAAAAAAAAOEgkZUWkvkYevTfaMtlD/jLZQ/4y2UP+MtlD/jLZQ/4y2UP+MtlD/jLZQ/4y2UP+MtlD/jLZQ/4y2UP+MtlD/jLZQ/4y2UP+MtlD/jLZQ/4y2UP+MtlD/jLZQ/4y2UP+MtlD/jLZQ/4y2UP9ifTmwAgIBAgAAAAAAAAAAAAAAAAAAAAAAAAAAAAAAAAAAAAAAAAAAAAAAAAAAAAAAAAAAAAAAAAAAAAAAAAAAAAAAAAAAAAAAAAAAAAAAAAAAAAAAAAAAAAAAAAAAAAAAAAAAAAAAAAAAAAAAAAAAAAAAAAAAAAAAAAAAAAAAAAAAAAAAAAAAAAAAAAAAAAAAAAAAAAAAAAAAAAAeJhE1YHw4roqzT/uMtlD/jLZQ/4y2UP+MtlD/jLZQ/4y2UP+MtlD/jLZQ/4y2UP+MtlD/jLZQ/4y2UP+MtlD/jLZQ/4y2UP+MtlD/jLZQ/4y2UP+MtlD/jLZQ/4y2UP+MtlD/g6pL7hAVCh0AAAAAAAAAAAAAAAAAAAAAAAAAAAAAAAAAAAAAAAAAAAAAAAAAAAAAAAAAAAAAAAAAAAAAAAAAAAAAAAAAAAAAAAAAAAAAAAAAAAAAAAAAAAAAAAAAAAAAAAAAAAAAAAAAAAAAAAAAAAAAAAAAAAAAAAAAAAAAAAAAAAAAAAAAAAAAAAAAAAAAAAAAAAAAAAAAAAAAAAAAAAEBAQEfJhQyV3E0nYCmSuqMtlD/jLZQ/4y2UP+MtlD/jLZQ/4y2UP+MtlD/jLZQ/4y2UP+MtlD/jLZQ/4y2UP+MtlD/jLZQ/4y2UP+MtlD/jLZQ/4y2UP+MtlD/jLZQ/4KoSuwSFgsfAAAAAAAAAAAAAAAAAAAAAAAAAAAAAAAAAAAAAAAAAAAAAAAAAAAAAAAAAAAAAAAAAAAAAAAAAAAAAAAAAAAAAAAAAAAAAAAAAAAAAAAAAAAAAAAAAAAAAAAAAAAAAAAAAAAAAAAAAAAAAAAAAAAAAAAAAAAAAAAAAAAAAAAAAAAAAAAAAAAAAAAAAAAAAAAAAAAAAAAAAAAAAAAAAAAAAAEBAQEPFAkbNUUfYGF+OLGApknpirNP+4y2UP+MtlD/jLZQ/4y2UP+MtlD/jLZQ/4y2UP+MtlD/jLZQ/4y2UP+MtlD/jLZQ/4u1UP6FrUzyc5VDz0tgLIQbIhAuAQEBAQAAAAAAAAAAAAAAAAAAAAAAAAAAAAAAAAAAAAAAAAAAAAAAAAAAAAAAAAAAAAAAAAAAAAAAAAAAAAAAAAAAAAAAAAAAAAAAAAAAAAAAAAAAAAAAAAAAAAAAAAAAAAAAAAAAAAAAAAAAAAAAAAAAAAAAAAAAAAAAAAAAAAAAAAAAAAAAAAAAAAAAAAAAAAAAAAAAAAAAAAAAAAAAAAAAAAAAAAAAAAAAAAAAAAAAAAAACw4HEyIsFTw+UCNwWHM1nGmIPL15nkbdgqhK7IiwTveKs0/7hKxM8X2kSOZwkkDMX3s3q0pgKoYzPyVRHiEbJQICAgMAAAAAAAAAAAAAAAAAAAAAAAAAAAAAAAAAAAAAAAAAAAAAAAAAAAAAAAAAAAAAAAAAAAAAAAAAAAAAAAAAAAAAAAAAAAAAAAAAAAAAAAAAAAAAAAAAAAAAAAAAAA==;" parent="1" vertex="1">
          <mxGeometry x="350" y="338" width="64" height="64" as="geometry"/>
        </mxCell>
        <mxCell id="rfqRg02I_RsMfSukm1y0-8" value="&amp;nbsp;User Data" style="text;html=1;resizable=0;points=[];autosize=1;align=left;verticalAlign=top;spacingTop=-4;" parent="1" vertex="1">
          <mxGeometry x="100" y="504" width="70" height="20" as="geometry"/>
        </mxCell>
        <mxCell id="rfqRg02I_RsMfSukm1y0-11" value="Segment" style="text;html=1;resizable=0;points=[];autosize=1;align=left;verticalAlign=top;spacingTop=-4;" parent="1" vertex="1">
          <mxGeometry x="354" y="314" width="60" height="20" as="geometry"/>
        </mxCell>
        <mxCell id="rfqRg02I_RsMfSukm1y0-12" value="Amplitude" style="text;html=1;resizable=0;points=[];autosize=1;align=left;verticalAlign=top;spacingTop=-4;" parent="1" vertex="1">
          <mxGeometry x="628" y="294" width="70" height="20" as="geometry"/>
        </mxCell>
        <mxCell id="rfqRg02I_RsMfSukm1y0-13" value="" style="outlineConnect=0;dashed=0;verticalLabelPosition=bottom;verticalAlign=top;align=center;html=1;shape=mxgraph.aws3.redshift;fillColor=#2E73B8;gradientColor=none;" parent="1" vertex="1">
          <mxGeometry x="592.5" y="414" width="67.5" height="75" as="geometry"/>
        </mxCell>
        <mxCell id="rfqRg02I_RsMfSukm1y0-14" value="" style="shape=image;verticalLabelPosition=bottom;labelBackgroundColor=#ffffff;verticalAlign=top;aspect=fixed;imageAspect=0;image=data:image/svg+xml,PHN2ZyB4bWxucz0iaHR0cDovL3d3dy53My5vcmcvMjAwMC9zdmciIHhtbG5zOnhsaW5rPSJodHRwOi8vd3d3LnczLm9yZy8xOTk5L3hsaW5rIiB2aWV3Qm94PSIwIDAgMTg4IDQwLjc4Ij48ZGVmcz48c3R5bGU+LmF7ZmlsbDpub25lO30uYntjbGlwLXBhdGg6dXJsKCNhKTt9LmN7ZmlsbDojNWI2NjcwO30uZHtmaWxsOiMwMGIyZTM7fTwvc3R5bGU+PGNsaXBQYXRoIGlkPSJhIiB0cmFuc2Zvcm09InRyYW5zbGF0ZSgwKSI+PHJlY3QgY2xhc3M9ImEiIHdpZHRoPSIxODgiIGhlaWdodD0iNDAuNzgiLz48L2NsaXBQYXRoPjwvZGVmcz48dGl0bGU+QXNzZXQgMjwvdGl0bGU+PGcgY2xhc3M9ImIiPjxwYXRoIGNsYXNzPSJjIiBkPSJNMTYuMzIsMjAuMzlIMjQuNXY2YTEzLDEzLDAsMCwxLTcuNzIsMi40MkMxMC4yNCwyOC44LDUuOSwyNCw1LjksMTcuMzd2LS4wOUM1LjksMTEuMTYsMTAuMzgsNiwxNi4yNyw2YTEyLjQ5LDEyLjQ5LDAsMCwxLDksMy40M0wyOC44LDUuMTdDMjUuNTEsMi4zOCwyMi4wOC44MiwxNi41LjgyQTE2LjMxLDE2LjMxLDAsMCwwLDAsMTcuMzd2LjA5YzAsOS4zMyw2LjU4LDE2LjQ2LDE2LjU5LDE2LjQ2YTIwLjM4LDIwLjM4LDAsMCwwLDEzLjM1LTVWMTUuNUgxNi4zMloiIHRyYW5zZm9ybT0idHJhbnNsYXRlKDApIi8+PHBhdGggY2xhc3M9ImMiIGQ9Ik00Mi42Niw4LjkxYTIwLjY4LDIwLjY4LDAsMCwwLTkuMTksMkwzNSwxNS4zNmExNi44MywxNi44MywwLDAsMSw2LjktMS41MWMzLjg0LDAsNS45NCwxLjgzLDUuOTQsNS4xN3YuNDVhMjAuMzgsMjAuMzgsMCwwLDAtNi42Ny0xYy01LjYyLDAtOS43OCwyLjU2LTkuNzgsNy45MXYuMDljMCw0Ljg1LDQsNy40NSw4LjU5LDcuNDVhOS43OCw5Ljc4LDAsMCwwLDcuODItMy40N3YzaDUuNDlWMTkuMTFjMC02LjQ1LTMuNDgtMTAuMi0xMC42MS0xMC4ybTUuMjYsMTUuNzhjMCwzLTIuNzUsNS4wNy02LjQsNS4wNy0yLjYxLDAtNC42Ny0xLjI4LTQuNjctMy41N1YyNi4xYzAtMi4zMywyLjA2LTMuNzUsNS41My0zLjc1YTE1LjgxLDE1LjgxLDAsMCwxLDUuNTQsMVoiIHRyYW5zZm9ybT0idHJhbnNsYXRlKDApIi8+PHJlY3QgY2xhc3M9ImMiIHg9IjU2LjM5IiB5PSI5LjMxIiB3aWR0aD0iNS41MyIgaGVpZ2h0PSIyNC4xNCIvPjxyZWN0IGNsYXNzPSJjIiB4PSI1Ni4xNiIgeT0iMC4zNSIgd2lkdGg9IjUuOTQiIGhlaWdodD0iNS4yNiIvPjxwYXRoIGNsYXNzPSJjIiBkPSJNNzAuNzgsMTkuODNjMC0zLjc1LDIuMjQtNiw1LjQ0LTZzNS4xNywyLjE1LDUuMTcsNS44OVYzMy40NWg1LjUzVjE4LjA5YzAtNS42Mi0zLjE1LTkuMjgtOC42LTkuMjhhOC42OSw4LjY5LDAsMCwwLTcuNTQsNC4yNVY5LjMxSDY1LjI1VjMzLjQ1aDUuNTNaIiB0cmFuc2Zvcm09InRyYW5zbGF0ZSgwKSIvPjxwYXRoIGNsYXNzPSJjIiBkPSJNOTguMTEsMjkuNTNhMTMuNTMsMTMuNTMsMCwwLDEtNy45MS0zbC0yLjQ3LDMuNzVBMTcsMTcsMCwwLDAsOTgsMzMuOTJjNSwwLDktMi41MSw5LTcuNTl2LS4wOWMwLTQuMzQtNC01Ljk0LTcuNDktN0M5Ni42LDE4LjI5LDk0LDE3LjU1LDk0LDE1Ljgydi0uMDljMC0xLjQyLDEuMjMtMi40MywzLjM4LTIuNDNhMTQsMTQsMCwwLDEsNi44MSwyLjI5bDIuMTktMy45M2ExNi43NCwxNi43NCwwLDAsMC04Ljg2LTIuNzVjLTQuOCwwLTguNiwyLjc5LTguNiw3LjM3di4wOWMwLDQuNjEsNCw2LjA4LDcuNTQsNy4wOCwyLjg0Ljg3LDUuNCwxLjUxLDUuNCwzLjM4di4xYzAsMS42LTEuMzcsMi42LTMuNzUsMi42IiB0cmFuc2Zvcm09InRyYW5zbGF0ZSgwKSIvPjxyZWN0IGNsYXNzPSJjIiB4PSIxMDguMjgiIHk9IjAuMjciIHdpZHRoPSI1Ljk0IiBoZWlnaHQ9IjUuMjYiLz48cG9seWdvbiBjbGFzcz0iYyIgcG9pbnRzPSIxMDguNTEgOS4zMSAxMDguNTEgMzMuNDUgMTEwLjcxIDMzLjQ1IDExNC4wNCAzMy40NSAxMTQuMDQgMzIuMSAxMTQuMDQgOS4zMSAxMDguNTEgOS4zMSIvPjxwYXRoIGNsYXNzPSJjIiBkPSJNMTM1LjMzLDEyLjg1YTEwLjQzLDEwLjQzLDAsMCwwLTguNDYtNC4xMkExMC43OSwxMC43OSwwLDAsMCwxMTYsMTguMmExNCwxNCwwLDAsMC0uMTQsMS44N3YuMDlhMTEsMTEsMCwwLDAsNC4zOSw5LjE2LDEyLDEyLDAsMCwwLDEuMTcuNzNsLjI5LjE1LDguNi0zLjY5YTgsOCwwLDAsMS0xLC4yMSw5LjA4LDkuMDgsMCwwLDEtMSwuMDdsLS40OSwwYTcuNDcsNy40NywwLDAsMS0uOTUtLjEyLDYuNzEsNi43MSwwLDAsMS0zLjQ5LTEuNzgsNi4zOCw2LjM4LDAsMCwxLTEtMS4zMmMtLjA5LS4xNi0uMTctLjMyLS4yNS0uNDhhNi41LDYuNSwwLDAsMS0uNTEtMS42LDEuMTYsMS4xNiwwLDAsMSwwLS4xOCw3LjQ5LDcuNDksMCwwLDEtLjA5LTEuMTdWMjBhNy4yOCw3LjI4LDAsMCwxLC4xMy0xLjQyYzAtLjE0LjA3LS4yNy4xLS40YTYuNjUsNi42NSwwLDAsMSwuMy0uODksNi41LDYuNSwwLDAsMSwuNjItMS4xMyw2LjI3LDYuMjcsMCwwLDEsMS44NS0xLjc0LDcuMzMsNy4zMywwLDAsMSwzLjg2LTEsNy42Miw3LjYyLDAsMCwxLDMuNzIsMWwuNDIuMjVhNy43NCw3Ljc0LDAsMCwxLC44NC42NCw2LjQ2LDYuNDYsMCwwLDEsMS4yMywxLjUyLDYuNTQsNi41NCwwLDAsMSwuMy41OSw2LjE1LDYuMTUsMCwwLDEsLjMxLjg1LDcuMSw3LjEsMCwwLDEsLjI2LDEuODd2LjA5YTYuNjMsNi42MywwLDAsMS0uMjMsMS42OSw2LjI1LDYuMjUsMCwwLDEtLjc3LDEuNzdjLS4xLjE1LS4yLjMtLjMxLjQ0YTYuODMsNi44MywwLDAsMS0uNzMuNzlsLS40MS4zNWE0LjI5LDQuMjksMCwwLDEtLjM1LjI4bC0uMzIuMkwxNDAuODYsMjJWOS4yM2gtNS41M1oiIHRyYW5zZm9ybT0idHJhbnNsYXRlKDApIi8+PHBhdGggY2xhc3M9ImMiIGQ9Ik0xNDkuNTEsMTguMTFhNi4zNyw2LjM3LDAsMCwxLC4yMS0uNzgsNS4wNyw1LjA3LDAsMCwxLDEuOS0yLjYzLDQuODcsNC44NywwLDAsMSwxLjQ1LS43LDUuODksNS44OSwwLDAsMSwxLjcxLS4yNCw1LjEyLDUuMTIsMCwwLDEsLjY5LDAsNS4xOCw1LjE4LDAsMCwxLDEuMjIuMjcsNC41Myw0LjUzLDAsMCwxLC41NS4yMyw0LjE3LDQuMTcsMCwwLDEsLjU1LjMyLjM5LjM5LDAsMCwwLC4xLjA4bDYtMi41NywwLS4wNWMtLjA4LS4xMi0uMTUtLjI0LS4yNC0uMzVhOC4xLDguMSwwLDAsMC02LjcyLTNBOC43LDguNywwLDAsMCwxNDkuMzQsMTNWMGgtNS41M1YyMC43NGw1LjY3LTIuNDMiIHRyYW5zZm9ybT0idHJhbnNsYXRlKDApIi8+PHBvbHlnb24gY2xhc3M9ImMiIHBvaW50cz0iMTczLjU5IDIuNiAxNjguMDYgMi42IDE2OC4wNiA5LjgyIDE2OC4wNiAxMC4xNyAxNzMuNTkgNy44NCAxNzMuNTkgMi42Ii8+PHBhdGggY2xhc3M9ImQiIGQ9Ik0xMzEuNDIsMjYuMTRhOCw4LDAsMCwxLTEuMDcuMzdsLTguNiwzLjY5YTExLjE2LDExLjE2LDAsMCwwLDUuMTIsMS4yNUExMC4xNCwxMC4xNCwwLDAsMCwxMzUuMzgsMjd2MS44N2E4LjA1LDguMDUsMCwwLDEtMS4yMiw0LjYxYy0xLjI0LDEuODQtMy40MSwyLjgtNi40MiwyLjhhMTUuNjcsMTUuNjcsMCwwLDEtOC41OS0yLjU2bC0yLjA2LDQuMTZhMjAuODQsMjAuODQsMCwwLDAsMTAuNzksMi44OGM0LjM0LDAsNy43Mi0xLjA1LDkuOTItMy4yNWE5Ljc3LDkuNzcsMCwwLDAsMi4zNi00LDE2LjgzLDE2LjgzLDAsMCwwLC43LTUuMDdWMjJsLTguNTYsMy42OGMtLjI5LjE3LS41OC4zMi0uODguNDYiIHRyYW5zZm9ybT0idHJhbnNsYXRlKDApIi8+PHBhdGggY2xhc3M9ImQiIGQ9Ik0xNTcuODksMTQuN2E1LjE0LDUuMTQsMCwwLDEsMS45NCwzLjUsOS41OSw5LjU5LDAsMCwxLC4xMiwxLjQ2VjMzLjM3aDUuNTNWMThhMTAuMzcsMTAuMzcsMCwwLDAtMS42MS01Ljg4WiIgdHJhbnNmb3JtPSJ0cmFuc2xhdGUoMCkiLz48cGF0aCBjbGFzcz0iZCIgZD0iTTE0My44MSwzMy4zN2g1LjUzVjE5Ljc1YTcuMjUsNy4yNSwwLDAsMSwuMTQtMS40NGwtNS42NywyLjQzWiIgdHJhbnNmb3JtPSJ0cmFuc2xhdGUoMCkiLz48cGF0aCBjbGFzcz0iZCIgZD0iTTE4OCwyLjM2VjEuODFoMHYwTDE3Ni4yOCw2LjcxbC04LjIyLDMuNDZWMjYuN2MwLDQuMTQsMS43Niw2LjEzLDQuNDcsNi44YTEwLjI0LDEwLjI0LDAsMCwwLDIuNDguMjgsMTEsMTEsMCwwLDAsMi41NS0uMjgsOC44Niw4Ljg2LDAsMCwwLDIuNDMtMVYyOGE3LjM4LDcuMzgsMCwwLDEtMy40Mi44M2MtMS44OCwwLTMtLjg3LTMtM3YtMTJsMTQuMzctNnYwbDAsMFoiIHRyYW5zZm9ybT0idHJhbnNsYXRlKDApIi8+PC9nPjwvc3ZnPg==;" parent="1" vertex="1">
          <mxGeometry x="573" y="350" width="180" height="39" as="geometry"/>
        </mxCell>
        <mxCell id="rfqRg02I_RsMfSukm1y0-18" value="RedShift" style="text;html=1;resizable=0;points=[];autosize=1;align=left;verticalAlign=top;spacingTop=-4;" parent="1" vertex="1">
          <mxGeometry x="598" y="489" width="60" height="20" as="geometry"/>
        </mxCell>
        <mxCell id="rfqRg02I_RsMfSukm1y0-23" value="User Events" style="text;html=1;resizable=0;points=[];autosize=1;align=left;verticalAlign=top;spacingTop=-4;" parent="1" vertex="1">
          <mxGeometry x="102" y="485" width="80" height="20" as="geometry"/>
        </mxCell>
        <mxCell id="rfqRg02I_RsMfSukm1y0-44" value="query" style="edgeStyle=orthogonalEdgeStyle;rounded=0;orthogonalLoop=1;jettySize=auto;html=1;entryX=1;entryY=0.53;entryDx=0;entryDy=0;entryPerimeter=0;" parent="1" source="rfqRg02I_RsMfSukm1y0-24" target="rfqRg02I_RsMfSukm1y0-13" edge="1">
          <mxGeometry relative="1" as="geometry">
            <mxPoint x="670" y="434" as="targetPoint"/>
          </mxGeometry>
        </mxCell>
        <mxCell id="rfqRg02I_RsMfSukm1y0-24" value="" style="shape=image;html=1;verticalAlign=top;verticalLabelPosition=bottom;labelBackgroundColor=#ffffff;imageAspect=0;aspect=fixed;image=https://cdn3.iconfinder.com/data/icons/chart-diagram/64/statistics_horizontal_comparison-128.png" parent="1" vertex="1">
          <mxGeometry x="728" y="414" width="79" height="79" as="geometry"/>
        </mxCell>
        <mxCell id="rfqRg02I_RsMfSukm1y0-26" value="BackOffice Statistics" style="text;html=1;resizable=0;points=[];autosize=1;align=left;verticalAlign=top;spacingTop=-4;" parent="1" vertex="1">
          <mxGeometry x="698" y="489" width="120" height="20" as="geometry"/>
        </mxCell>
        <mxCell id="rfqRg02I_RsMfSukm1y0-29" style="edgeStyle=orthogonalEdgeStyle;rounded=0;orthogonalLoop=1;jettySize=auto;html=1;entryX=0;entryY=0.5;entryDx=0;entryDy=0;" parent="1" source="rfqRg02I_RsMfSukm1y0-27" target="rfqRg02I_RsMfSukm1y0-6" edge="1">
          <mxGeometry relative="1" as="geometry">
            <Array as="points">
              <mxPoint x="310" y="503"/>
              <mxPoint x="310" y="370"/>
            </Array>
          </mxGeometry>
        </mxCell>
        <mxCell id="rfqRg02I_RsMfSukm1y0-30" value="push" style="text;html=1;resizable=0;points=[];align=center;verticalAlign=middle;labelBackgroundColor=#ffffff;" parent="rfqRg02I_RsMfSukm1y0-29" vertex="1" connectable="0">
          <mxGeometry x="-0.1321" y="3" relative="1" as="geometry">
            <mxPoint as="offset"/>
          </mxGeometry>
        </mxCell>
        <mxCell id="rfqRg02I_RsMfSukm1y0-27" value="" style="aspect=fixed;perimeter=ellipsePerimeter;html=1;align=center;shadow=0;dashed=0;fontColor=#4277BB;labelBackgroundColor=#ffffff;fontSize=12;spacingTop=3;image;image=img/lib/ibm/infrastructure/mobile_backend.svg;" parent="1" vertex="1">
          <mxGeometry x="172" y="473" width="60" height="60" as="geometry"/>
        </mxCell>
        <mxCell id="rfqRg02I_RsMfSukm1y0-38" style="edgeStyle=orthogonalEdgeStyle;rounded=0;orthogonalLoop=1;jettySize=auto;html=1;exitX=1;exitY=0.5;exitDx=0;exitDy=0;" parent="1" source="rfqRg02I_RsMfSukm1y0-37" edge="1">
          <mxGeometry relative="1" as="geometry">
            <mxPoint x="232.5" y="524" as="sourcePoint"/>
            <mxPoint x="310" y="370" as="targetPoint"/>
            <Array as="points">
              <mxPoint x="310" y="268"/>
              <mxPoint x="310" y="370"/>
            </Array>
          </mxGeometry>
        </mxCell>
        <mxCell id="rfqRg02I_RsMfSukm1y0-40" value="Push User Action Events" style="text;html=1;resizable=0;points=[];align=center;verticalAlign=middle;labelBackgroundColor=#ffffff;" parent="rfqRg02I_RsMfSukm1y0-38" vertex="1" connectable="0">
          <mxGeometry x="-0.815" y="4" relative="1" as="geometry">
            <mxPoint x="53" y="6" as="offset"/>
          </mxGeometry>
        </mxCell>
        <mxCell id="rfqRg02I_RsMfSukm1y0-37" value="" style="shape=image;html=1;verticalAlign=top;verticalLabelPosition=bottom;labelBackgroundColor=#ffffff;imageAspect=0;aspect=fixed;image=https://cdn1.iconfinder.com/data/icons/flat-business-icons/128/browser-128.png" parent="1" vertex="1">
          <mxGeometry x="21.5" y="233" width="69" height="69" as="geometry"/>
        </mxCell>
        <mxCell id="rfqRg02I_RsMfSukm1y0-39" value="Core Product Webs" style="text;html=1;resizable=0;points=[];autosize=1;align=left;verticalAlign=top;spacingTop=-4;" parent="1" vertex="1">
          <mxGeometry y="308" width="120" height="20" as="geometry"/>
        </mxCell>
        <mxCell id="rfqRg02I_RsMfSukm1y0-45" value="UA-Receiver" style="text;html=1;resizable=0;points=[];autosize=1;align=left;verticalAlign=top;spacingTop=-4;" parent="1" vertex="1">
          <mxGeometry x="170" y="534" width="80" height="20" as="geometry"/>
        </mxCell>
        <mxCell id="SvzyOkWb3E6MvezEVZ9W-28" style="edgeStyle=orthogonalEdgeStyle;rounded=0;orthogonalLoop=1;jettySize=auto;html=1;exitX=1;exitY=0.5;exitDx=0;exitDy=0;exitPerimeter=0;entryX=0.04;entryY=0.48;entryDx=0;entryDy=0;entryPerimeter=0;" parent="1" source="SvzyOkWb3E6MvezEVZ9W-1" target="SvzyOkWb3E6MvezEVZ9W-25" edge="1">
          <mxGeometry relative="1" as="geometry"/>
        </mxCell>
        <mxCell id="SvzyOkWb3E6MvezEVZ9W-29" value="Pull Daily User Data" style="text;html=1;resizable=0;points=[];align=center;verticalAlign=middle;labelBackgroundColor=#ffffff;" parent="SvzyOkWb3E6MvezEVZ9W-28" vertex="1" connectable="0">
          <mxGeometry x="-0.3422" y="1" relative="1" as="geometry">
            <mxPoint as="offset"/>
          </mxGeometry>
        </mxCell>
        <mxCell id="SvzyOkWb3E6MvezEVZ9W-1" value="DataBase" style="outlineConnect=0;dashed=0;verticalLabelPosition=bottom;verticalAlign=top;align=center;html=1;shape=mxgraph.aws3.rds;fillColor=#2E73B8;gradientColor=none;" parent="1" vertex="1">
          <mxGeometry x="9" y="690" width="72" height="81" as="geometry"/>
        </mxCell>
        <mxCell id="SvzyOkWb3E6MvezEVZ9W-3" style="edgeStyle=orthogonalEdgeStyle;rounded=0;orthogonalLoop=1;jettySize=auto;html=1;exitX=0.5;exitY=0.5;exitDx=0;exitDy=0;exitPerimeter=0;" parent="1" source="SvzyOkWb3E6MvezEVZ9W-2" edge="1">
          <mxGeometry relative="1" as="geometry">
            <mxPoint x="20" y="274" as="targetPoint"/>
          </mxGeometry>
        </mxCell>
        <mxCell id="SvzyOkWb3E6MvezEVZ9W-2" value="User" style="shape=umlActor;verticalLabelPosition=bottom;labelBackgroundColor=#ffffff;verticalAlign=top;html=1;outlineConnect=0;" parent="1" vertex="1">
          <mxGeometry x="-100" y="244" width="30" height="60" as="geometry"/>
        </mxCell>
        <mxCell id="SvzyOkWb3E6MvezEVZ9W-4" value="click" style="text;html=1;resizable=0;points=[];autosize=1;align=left;verticalAlign=top;spacingTop=-4;" parent="1" vertex="1">
          <mxGeometry x="-50" y="274" width="40" height="20" as="geometry"/>
        </mxCell>
        <mxCell id="SvzyOkWb3E6MvezEVZ9W-7" style="edgeStyle=orthogonalEdgeStyle;rounded=0;orthogonalLoop=1;jettySize=auto;html=1;exitX=0.5;exitY=0.5;exitDx=0;exitDy=0;exitPerimeter=0;" parent="1" source="SvzyOkWb3E6MvezEVZ9W-6" edge="1">
          <mxGeometry relative="1" as="geometry">
            <mxPoint x="20" y="505" as="targetPoint"/>
          </mxGeometry>
        </mxCell>
        <mxCell id="SvzyOkWb3E6MvezEVZ9W-6" value="BO Admin" style="shape=umlActor;verticalLabelPosition=bottom;labelBackgroundColor=#ffffff;verticalAlign=top;html=1;outlineConnect=0;" parent="1" vertex="1">
          <mxGeometry x="-100" y="475" width="30" height="60" as="geometry"/>
        </mxCell>
        <mxCell id="SvzyOkWb3E6MvezEVZ9W-8" value="Create User" style="text;html=1;resizable=0;points=[];autosize=1;align=left;verticalAlign=top;spacingTop=-4;" parent="1" vertex="1">
          <mxGeometry x="-70" y="505" width="80" height="20" as="geometry"/>
        </mxCell>
        <mxCell id="SvzyOkWb3E6MvezEVZ9W-30" style="edgeStyle=orthogonalEdgeStyle;rounded=0;orthogonalLoop=1;jettySize=auto;html=1;exitX=0.6;exitY=0.03;exitDx=0;exitDy=0;exitPerimeter=0;" parent="1" source="SvzyOkWb3E6MvezEVZ9W-25" target="rfqRg02I_RsMfSukm1y0-13" edge="1">
          <mxGeometry relative="1" as="geometry"/>
        </mxCell>
        <mxCell id="SvzyOkWb3E6MvezEVZ9W-31" value="Sync to Redshift" style="text;html=1;resizable=0;points=[];align=center;verticalAlign=middle;labelBackgroundColor=#ffffff;" parent="SvzyOkWb3E6MvezEVZ9W-30" vertex="1" connectable="0">
          <mxGeometry x="-0.434" y="2" relative="1" as="geometry">
            <mxPoint as="offset"/>
          </mxGeometry>
        </mxCell>
        <mxCell id="SvzyOkWb3E6MvezEVZ9W-25" value="Scheduler" style="verticalLabelPosition=bottom;html=1;verticalAlign=top;align=center;strokeColor=none;fillColor=#00BEF2;shape=mxgraph.azure.scheduler;pointerEvents=1;" parent="1" vertex="1">
          <mxGeometry x="602" y="706.5" width="40" height="50" as="geometry"/>
        </mxCell>
      </root>
    </mxGraphModel>
  </diagram>
</mxfile>
